<svg width="271" height="233" viewBox="0 0 271 233" fill="none" xmlns="http://www.w3.org/2000/svg">
<g clip-path="url(#clip0_40_1678)">
<path d="M126.825 229.055C126.922 229.06 127.017 229.035 127.099 228.984C127.181 228.933 127.245 228.858 127.282 228.77C127.32 228.682 127.329 228.584 127.308 228.491C127.287 228.398 127.238 228.313 127.167 228.248L127.135 228.121L127.148 228.091C127.245 227.864 127.408 227.67 127.617 227.535C127.825 227.399 128.07 227.327 128.32 227.328C128.57 227.329 128.814 227.403 129.021 227.54C129.229 227.677 129.39 227.872 129.486 228.099C129.869 229.008 130.356 229.919 130.475 230.879C130.528 231.304 130.506 231.735 130.41 232.152C131.308 230.219 131.774 228.118 131.777 225.991C131.778 225.457 131.748 224.924 131.687 224.394C131.638 223.959 131.569 223.527 131.48 223.099C130.999 220.773 129.965 218.594 128.464 216.739C127.738 216.348 127.15 215.747 126.781 215.016C126.647 214.753 126.552 214.473 126.5 214.184C126.659 213.769 126.743 213.33 126.747 212.887C126.861 212.716 127.066 212.631 127.19 212.465C127.811 211.635 128.666 211.78 129.112 212.907C130.065 213.382 130.074 214.169 129.489 214.926C129.117 215.408 129.066 216.059 128.74 216.575C128.773 216.617 128.808 216.658 128.842 216.701C129.456 217.48 129.991 218.316 130.439 219.198C130.33 218.21 130.461 217.211 130.819 216.282C131.183 215.416 131.865 214.688 132.465 213.939C132.624 213.738 132.839 213.588 133.085 213.508C133.33 213.428 133.594 213.421 133.843 213.489C134.092 213.557 134.315 213.696 134.484 213.889C134.652 214.081 134.76 214.319 134.792 214.572L134.795 214.605C134.706 214.655 134.619 214.707 134.533 214.763C134.426 214.834 134.343 214.935 134.295 215.053C134.247 215.171 134.236 215.301 134.264 215.425C134.292 215.549 134.357 215.662 134.451 215.749C134.545 215.836 134.664 215.893 134.792 215.913L134.805 215.915C134.773 216.232 134.717 216.546 134.637 216.854C135.407 219.792 133.744 220.862 131.37 220.91C131.318 220.937 131.267 220.963 131.214 220.989C131.665 222.249 131.948 223.561 132.056 224.893C132.116 225.679 132.113 226.469 132.045 227.254L132.049 227.226C132.221 226.353 132.693 225.565 133.386 224.996C134.415 224.162 135.868 223.855 136.978 223.185C137.096 223.11 137.233 223.07 137.373 223.07C137.513 223.069 137.651 223.109 137.769 223.183C137.887 223.257 137.982 223.363 138.041 223.488C138.1 223.614 138.122 223.753 138.104 223.89L138.099 223.919C137.934 223.986 137.773 224.062 137.617 224.149C137.528 224.198 137.44 224.251 137.355 224.307C137.248 224.377 137.165 224.478 137.116 224.596C137.068 224.715 137.058 224.844 137.085 224.968C137.113 225.093 137.179 225.206 137.273 225.293C137.367 225.38 137.486 225.437 137.613 225.456L137.626 225.458L137.653 225.462C137.37 226.128 136.974 226.741 136.48 227.274C135.999 229.839 133.93 230.082 131.718 229.335H131.717C131.474 230.376 131.123 231.388 130.668 232.357H126.919C126.906 232.316 126.893 232.274 126.881 232.233C127.228 232.254 127.577 232.234 127.919 232.172C127.64 231.835 127.362 231.496 127.084 231.159C127.078 231.153 127.072 231.146 127.067 231.139C126.926 230.967 126.783 230.796 126.642 230.624L126.642 230.623C126.635 230.095 126.696 229.568 126.825 229.056L126.825 229.055Z" fill="#F2F2F2"/>
<path d="M33.4243 229.055C33.3276 229.06 33.2319 229.035 33.1501 228.984C33.0683 228.933 33.0045 228.858 32.9671 228.77C32.9298 228.682 32.9208 228.584 32.9414 228.491C32.962 228.398 33.0111 228.313 33.0822 228.248L33.1145 228.121L33.1017 228.091C33.0043 227.864 32.841 227.67 32.6325 227.535C32.424 227.399 32.1794 227.327 31.9295 227.328C31.6797 227.329 31.4357 227.403 31.2282 227.54C31.0207 227.677 30.8589 227.872 30.7632 228.099C30.3807 229.008 29.8938 229.919 29.7739 230.879C29.7211 231.304 29.7433 231.735 29.8397 232.152C28.9414 230.219 28.4749 228.118 28.4719 225.991C28.4717 225.457 28.5018 224.924 28.562 224.394C28.6117 223.959 28.6807 223.527 28.7689 223.099C29.2504 220.773 30.2841 218.594 31.7853 216.739C32.5118 216.348 33.0994 215.747 33.4688 215.016C33.6026 214.753 33.6972 214.473 33.7496 214.184C33.5904 213.769 33.5067 213.33 33.5024 212.887C33.3882 212.716 33.1837 212.631 33.059 212.465C32.4386 211.635 31.5838 211.78 31.1376 212.907C30.1844 213.382 30.1752 214.169 30.7601 214.926C31.1322 215.408 31.1833 216.059 31.5098 216.575C31.4762 216.617 31.4413 216.658 31.4077 216.701C30.7937 217.48 30.2585 218.316 29.8099 219.198C29.919 218.21 29.7887 217.211 29.4299 216.282C29.0663 215.416 28.3846 214.688 27.7844 213.939C27.6256 213.738 27.41 213.588 27.1648 213.508C26.9196 213.428 26.6559 213.421 26.4069 213.489C26.1578 213.557 25.9348 213.696 25.7659 213.889C25.5969 214.081 25.4897 214.319 25.4578 214.572L25.4542 214.605C25.5434 214.655 25.6306 214.707 25.716 214.763C25.8233 214.834 25.9064 214.935 25.9545 215.053C26.0026 215.171 26.0134 215.301 25.9855 215.425C25.9575 215.549 25.8922 215.662 25.7981 215.749C25.704 215.836 25.5854 215.893 25.4579 215.913L25.4448 215.915C25.4766 216.232 25.5327 216.546 25.6128 216.854C24.8427 219.792 26.5052 220.862 28.879 220.91C28.9314 220.937 28.9825 220.963 29.0349 220.989C28.5842 222.249 28.3014 223.561 28.1938 224.893C28.1329 225.679 28.1365 226.469 28.2046 227.254L28.2005 227.226C28.0285 226.353 27.5563 225.565 26.8636 224.996C25.8348 224.162 24.3813 223.855 23.2714 223.185C23.1535 223.11 23.0163 223.07 22.8761 223.07C22.736 223.069 22.5986 223.109 22.4803 223.183C22.362 223.257 22.2676 223.363 22.2084 223.488C22.1491 223.614 22.1274 223.753 22.1458 223.89L22.1503 223.919C22.3158 223.986 22.4769 224.062 22.6327 224.149C22.7218 224.198 22.8091 224.251 22.8945 224.307C23.0018 224.377 23.0849 224.478 23.133 224.596C23.181 224.715 23.1918 224.844 23.1639 224.968C23.136 225.093 23.0707 225.206 22.9766 225.293C22.8824 225.38 22.7638 225.437 22.6363 225.456L22.6232 225.458L22.5964 225.462C22.8791 226.128 23.2759 226.741 23.7693 227.274C24.2508 229.839 26.3189 230.082 28.5311 229.335H28.5324C28.7751 230.376 29.1268 231.388 29.5818 232.357H33.3304C33.3439 232.316 33.3559 232.274 33.3681 232.233C33.0211 232.254 32.6727 232.234 32.3308 232.172C32.6089 231.835 32.887 231.496 33.1652 231.159C33.1714 231.153 33.1772 231.146 33.1826 231.139C33.3237 230.967 33.4661 230.796 33.6072 230.624L33.6073 230.623C33.6148 230.095 33.5534 229.568 33.4245 229.056L33.4243 229.055Z" fill="#F2F2F2"/>
<path d="M90.0792 30.3483C90.8376 28.8419 92.0498 27.5913 92.7912 26.0767C93.5327 24.5622 93.6769 22.535 92.4416 21.3758C91.3927 20.3914 89.7498 20.3777 88.4954 19.6647C85.2998 17.8483 85.3035 12.0788 81.6501 11.5803C79.8736 11.3379 78.2662 12.6522 77.1924 14.0693C76.1186 15.4864 75.2631 17.14 73.7739 18.1259C72.0882 19.2419 69.9088 19.2905 68.0368 20.0657C64.4478 21.552 62.5661 25.3738 60.9928 28.8862C59.9793 31.1488 58.9425 33.5892 59.4128 36.0191C58.3906 36.6465 58.8462 38.3341 59.8665 38.9645C60.8868 39.5948 62.1681 39.5808 63.3398 39.8539C65.8023 40.4277 67.8186 42.3615 68.7744 44.6726C69.5194 46.4739 69.6718 48.4517 69.8155 50.392C70.0649 53.7588 70.3144 57.1256 70.5638 60.4924C70.6748 61.9903 70.8203 63.5822 71.7445 64.7757C72.6687 65.9692 74.6701 66.4693 75.7091 65.3715C76.7019 64.3223 76.2547 62.6613 76.2346 61.2261C76.2145 59.7909 77.5296 58.0038 78.7697 58.7546L79.207 57.7758C82.0393 56.7753 84.5194 54.9908 86.3505 52.6359C88.1815 50.2811 89.2858 47.4555 89.5313 44.4976C89.8481 39.7331 87.9262 34.6245 90.0792 30.3483Z" fill="#E6E6E6"/>
<path d="M92.9736 60.5604C93.2472 60.306 93.4413 59.9797 93.5331 59.6201C93.6248 59.2604 93.6105 58.8824 93.4916 58.5306C93.3727 58.1787 93.1544 57.8677 92.8622 57.6343C92.5701 57.4009 92.2164 57.2548 91.8428 57.2131L91.8475 57.3748C91.3144 57.6819 90.7065 57.8395 90.0892 57.8307C89.4742 57.8211 88.8621 57.9168 88.2801 58.1134C87.9908 58.2172 87.7401 58.405 87.561 58.652C87.382 58.8991 87.2829 59.1938 87.2769 59.4975C87.3106 59.7302 87.4009 59.9515 87.5399 60.1425C87.6789 60.3334 87.8626 60.4885 88.0753 60.5945C88.5025 60.8021 88.9611 60.9395 89.4332 61.0013C90.6495 61.227 92.073 61.3978 92.9736 60.5604Z" fill="#E6E6E6"/>
<path d="M116.693 30.4281C117.202 30.0863 117.635 29.6444 117.963 29.1302C118.122 28.8701 118.198 28.5685 118.18 28.2651C118.163 27.9617 118.052 27.6707 117.864 27.4302C117.48 27.1019 116.987 26.926 116.479 26.9367C115.101 26.8352 113.715 26.9964 112.398 27.4114C113.751 28.5932 115.103 29.7749 116.455 30.9567L116.693 30.4281Z" fill="#E6E6E6"/>
<path d="M109.931 33.5014C110.477 34.0965 110.303 35.0196 110.149 35.8079C109.994 36.5963 109.974 37.5814 110.661 38.0115C111.257 38.3842 112.093 38.08 112.529 37.5327C112.919 36.9489 113.156 36.2793 113.22 35.5832C113.434 34.5716 113.531 33.5393 113.508 32.5061C113.483 31.4652 113.11 30.4616 112.449 29.65C111.98 29.1222 111.355 28.7526 110.662 28.5928C109.969 28.4331 109.242 28.4913 108.585 28.7594L109.213 28.7288C108.756 29.3073 108.41 29.9628 108.191 30.6634C108.086 31.0154 108.079 31.3887 108.169 31.7445C108.26 32.1002 108.446 32.4255 108.707 32.6866C109.08 33.0065 109.599 33.1403 109.931 33.5014Z" fill="#E6E6E6"/>
<path d="M140.753 23.5212L140.865 23.1819C140.398 23.4485 140.038 23.8653 139.845 24.3625C139.652 24.8597 139.638 25.4071 139.806 25.9132C140.165 25.6336 140.442 25.2646 140.609 24.8442C140.775 24.4237 140.825 23.967 140.753 23.5212Z" fill="#E6E6E6"/>
<path d="M134.682 28.3779C135.276 28.0457 135.784 27.5806 136.164 27.0199C136.543 26.4592 136.785 25.8185 136.868 25.1493C136.933 24.7332 136.884 24.3076 136.727 23.9162C136.646 23.7219 136.518 23.5503 136.354 23.4166C136.19 23.2829 135.995 23.1913 135.786 23.1499L135.531 23.5449C135.167 23.2352 134.554 23.5537 134.4 24.0038C134.301 24.4711 134.343 24.9568 134.519 25.4014C134.695 25.8487 134.687 26.3461 134.496 26.7877C134.291 27.0474 134.061 27.2864 133.808 27.5012C133.684 27.6121 133.604 27.7619 133.58 27.925C133.556 28.0881 133.59 28.2544 133.676 28.3954C133.916 28.6651 134.364 28.5519 134.682 28.3779Z" fill="#E6E6E6"/>
<path d="M132.093 26.1713C132.31 25.7848 132.413 25.3454 132.389 24.9038L131.833 24.7317C131.477 24.8739 131.162 25.0989 130.913 25.3876C130.838 25.4622 130.78 25.5522 130.744 25.6514C130.709 25.7506 130.695 25.8563 130.706 25.9611C130.716 26.0659 130.75 26.1672 130.804 26.2577C130.859 26.3481 130.933 26.4255 131.022 26.4844C131.11 26.5432 131.211 26.582 131.316 26.598C131.422 26.614 131.53 26.6068 131.632 26.5769C131.734 26.547 131.829 26.4951 131.908 26.425C131.988 26.3549 132.051 26.2683 132.093 26.1713Z" fill="#E6E6E6"/>
<path d="M159.285 23.394C159.335 23.4356 159.385 23.4783 159.436 23.5203C159.48 23.5111 159.522 23.4946 159.567 23.4892L159.285 23.394Z" fill="#E6E6E6"/>
<path d="M158.393 28.2106C158.904 27.803 159.415 27.3954 159.926 26.9878C160.197 26.7984 160.428 26.5585 160.607 26.2817C160.728 26.0197 160.781 25.7314 160.759 25.4439C160.738 25.1564 160.643 24.879 160.483 24.6374C160.2 24.2094 159.846 23.8316 159.436 23.5203C158.984 23.6256 158.588 23.8905 158.322 24.2647C158.055 24.639 157.937 25.0966 157.99 25.5509C158.082 26.1289 158.45 26.7469 158.15 27.2514C158.033 27.4479 157.832 27.5816 157.697 27.7666C157.562 27.9516 157.518 28.2462 157.704 28.3822C157.909 28.5332 158.194 28.3697 158.393 28.2106Z" fill="#E6E6E6"/>
<path d="M159.51 30.7058C159.7 30.7158 159.89 30.6854 160.067 30.6167C160.244 30.548 160.404 30.4425 160.536 30.3075C161.219 29.7556 161.816 29.1081 162.309 28.3857C161.16 28.7449 160.011 29.104 158.861 29.4631L159.22 29.8765C158.901 30.0814 159.137 30.6352 159.51 30.7058Z" fill="#E6E6E6"/>
<path d="M162.732 33.0394C162.802 33.2162 162.929 33.3655 163.093 33.4645C163.257 33.5634 163.45 33.6066 163.641 33.5873C163.832 33.5622 164.015 33.4962 164.177 33.3939C164.339 33.2916 164.476 33.1555 164.579 32.9951C164.754 32.741 164.857 32.4454 164.877 32.139C164.897 31.8326 164.833 31.5264 164.693 31.2522C164.553 30.978 164.342 30.7456 164.08 30.5792C163.818 30.4128 163.516 30.3184 163.205 30.3057L163.523 30.7839C163.604 31.6002 162.479 32.2581 162.732 33.0394Z" fill="#E6E6E6"/>
<path d="M185.052 41.9803C185.363 42.2091 185.74 42.3323 186.128 42.3314C186.516 42.3305 186.893 42.2055 187.203 41.9752C187.404 41.806 187.567 41.5977 187.682 41.3634C187.798 41.129 187.863 40.8737 187.874 40.6134C187.884 40.353 187.84 40.0933 187.745 39.8505C187.649 39.6077 187.504 39.3869 187.317 39.2021L186.73 39.5254C186.405 39.319 186.011 39.2453 185.631 39.3196C185.252 39.394 184.916 39.6108 184.695 39.9242C184.497 40.2528 184.424 40.6403 184.49 41.0171C184.555 41.3939 184.754 41.7354 185.052 41.9803Z" fill="#E6E6E6"/>
<path d="M191.878 42.7426C192.164 42.6608 192.423 42.5079 192.632 42.2986C192.841 42.0893 192.992 41.8307 193.07 41.5474L191.929 41.3995C191.612 41.163 191.242 41.0037 190.851 40.9347C190.654 40.9057 190.454 40.9441 190.283 41.0436C190.112 41.143 189.98 41.2974 189.911 41.4809C189.887 41.637 189.903 41.7966 189.959 41.9446C190.015 42.0925 190.109 42.2239 190.231 42.3261C190.446 42.5288 190.711 42.6735 190.999 42.7464C191.287 42.8194 191.59 42.8181 191.878 42.7426Z" fill="#E6E6E6"/>
<path d="M187.165 44.9933C187.185 45.1764 187.258 45.3501 187.374 45.4941C187.491 45.6381 187.646 45.7464 187.823 45.8064C188.016 45.8966 188.232 45.9277 188.443 45.8954C188.654 45.8632 188.85 45.7692 189.006 45.6256C189.075 45.5488 189.124 45.457 189.15 45.3577C189.176 45.2584 189.177 45.1544 189.154 45.0545C189.131 44.9546 189.084 44.8615 189.017 44.7831C188.95 44.7047 188.865 44.6432 188.769 44.6037L187.913 44.4502C187.583 44.2813 187.16 44.626 187.165 44.9933Z" fill="#E6E6E6"/>
<path d="M137.511 50.9292L136.849 50.3325C137.025 50.5748 137.251 50.778 137.511 50.9292Z" fill="#E6E6E6"/>
<path d="M132.452 47.4159C132.86 49.284 134.9 50.8059 136.751 50.2445L136.849 50.3325C136.259 49.5366 136.16 48.3589 136.297 47.3347C136.553 45.5797 137.252 43.9164 138.331 42.4984C139.41 41.0803 140.833 39.9531 142.47 39.2209C142.918 39.0828 143.319 38.8251 143.629 38.4763C143.892 38.0956 143.794 37.4428 143.339 37.3353C143.092 37.3074 142.843 37.3643 142.633 37.4965L139.193 39.1672C137.455 40.011 135.682 40.879 134.317 42.2348C132.952 43.5905 132.045 45.5478 132.452 47.4159Z" fill="#E6E6E6"/>
<path d="M76.9078 111.653C73.7018 109.389 70.1903 107.578 66.4755 106.275C64.1923 105.474 61.7389 104.863 59.3599 105.318C58.0553 105.584 56.8327 106.15 55.7916 106.97C54.7504 107.79 53.92 108.841 53.3678 110.037C52.8357 111.241 52.5855 112.549 52.6357 113.862C52.6859 115.175 53.0352 116.46 53.6577 117.622C54.7547 119.65 56.6544 121.265 57.2896 123.477C57.7177 124.968 57.5149 126.555 57.3088 128.092C56.8876 131.231 56.4664 134.371 56.0453 137.51C55.6618 140.369 55.2882 143.343 56.2056 146.081C57.123 148.819 59.7408 151.232 62.6487 150.941L63.225 150.899C61.3014 149.608 60.7622 146.937 61.335 144.712C61.9078 142.488 63.3614 140.602 64.7807 138.784C68.9926 133.389 73.2045 127.993 77.4163 122.598C79.1204 120.415 80.9229 117.717 80.0142 115.112C79.4976 113.631 78.1985 112.565 76.9078 111.653Z" fill="#E6E6E6"/>
<path d="M48.2039 98.0137C47.7774 97.871 47.3268 98.188 47.076 98.557C46.8733 98.9533 46.6351 99.331 46.3644 99.6856C45.7082 100.353 44.5125 100.22 43.8049 99.6064C43.0973 98.9926 42.7907 98.0433 42.6533 97.1237C42.4885 96.0202 42.5597 94.7892 43.2979 93.9444C44.0579 93.0748 45.3069 92.8414 46.4563 92.6608C47.6436 92.4742 48.9738 92.3186 49.9464 93.0156C50.5591 93.4547 50.9162 94.1632 51.4837 94.6578C52.0513 95.1523 53.0609 95.3397 53.488 94.7228C53.5998 94.5042 53.6563 94.2622 53.6527 94.0173C53.6491 93.7725 53.5856 93.5321 53.4675 93.3167C53.2274 92.8877 53.0829 92.4129 53.0438 91.9244C53.0724 91.2463 53.6244 90.7074 54.1891 90.3198C54.7538 89.9322 55.3916 89.5978 55.7621 89.0259C56.2179 88.3225 56.1695 87.4165 56.4522 86.6296C57.1365 84.7253 59.5785 83.8781 60.2899 81.9834C60.4612 81.5848 60.4805 81.1385 60.344 80.727C60.0463 79.9724 59.2415 80.1205 59.1922 79.198C59.1449 78.3157 59.891 77.4504 60.6491 77.0819C61.6943 76.5738 62.9128 76.615 64.0776 76.5842C65.2423 76.5533 66.4972 76.4005 67.3521 75.6194C67.6287 75.338 67.842 75.0022 67.9781 74.634C68.1141 74.2657 68.1698 73.8732 68.1414 73.4822C68.1131 73.0912 68.0014 72.7106 67.8136 72.3651C67.6259 72.0197 67.3663 71.7172 67.0519 71.4775C66.4149 71.0436 65.6097 70.8927 64.99 70.4351C64.218 69.8652 63.8526 68.9161 63.2514 68.1725C62.7512 67.6064 62.1789 67.1065 61.5486 66.6853C61.0327 66.3076 60.5168 65.93 60.0009 65.5523C59.0683 64.8696 58.0979 64.1696 56.963 63.9263C55.8281 63.6831 54.4767 64.0273 53.9083 65.0264C53.6842 65.4717 53.5617 65.9601 53.5497 66.4571C53.4979 67.6273 53.5474 68.7998 53.6976 69.9617C53.7912 70.897 53.8849 71.8323 53.9786 72.7676C54.0625 73.606 53.9724 74.7114 53.1473 74.929C51.317 75.4118 51.9346 72.742 51.5287 71.9241C50.9073 70.6721 48.0525 70.0709 46.832 69.5492C46.0698 69.2233 45.2654 68.8636 44.8052 68.1814C44.2323 67.3323 44.3499 66.1766 44.7991 65.258C45.2483 64.3393 45.9802 63.5916 46.6451 62.8105C47.3228 62.0143 47.94 61.1702 48.5564 60.3269C49.2714 59.3488 49.9864 58.3707 50.7013 57.3927C51.6183 56.1383 52.5822 54.6074 52.0614 53.1487C51.9485 52.9536 51.7798 52.7956 51.5763 52.6946C51.3728 52.5937 51.1437 52.5541 50.9176 52.581C50.6915 52.6079 50.4784 52.7001 50.3051 52.8458C50.1318 52.9916 50.006 53.1846 49.9434 53.4006C49.7151 54.1881 50.3241 55.1936 49.7415 55.7772C49.5419 55.9357 49.2922 56.02 49.036 56.0153C48.7798 56.0106 48.5334 55.9171 48.34 55.7513C47.9627 55.4075 47.6753 54.9788 47.5023 54.5017C46.7965 52.9543 46.1088 51.3973 45.3843 49.8584C45.1553 49.3719 44.9162 48.5389 44.2221 48.6209C43.6195 48.6921 43.2941 49.5583 43.315 50.0613C43.3455 50.793 43.7555 51.4469 44.0688 52.1108C44.3822 52.7747 44.6013 53.572 44.2573 54.221C43.8216 55.0426 42.7184 55.2272 41.7788 55.2001C40.0078 55.1472 38.2726 54.6955 36.7057 53.8795C36.6647 54.7382 36.6238 55.5969 36.5829 56.4556C35.3358 55.9407 34.0887 55.4257 32.8416 54.9108C32.5994 54.8108 32.3572 54.7108 32.1149 54.6107C31.063 54.1764 30.0097 53.7415 28.9267 53.3889C28.3119 53.1887 27.6885 53.0153 27.0654 52.842C26.6866 52.7367 26.3078 52.6314 25.929 52.526C25.1816 52.2647 24.3888 52.1532 23.597 52.1979C22.7652 52.3009 22.0233 52.7416 21.2541 53.0711C19.5378 53.8061 17.3179 53.0667 15.4786 53.0536C14.7491 52.0029 13.7642 51.1494 12.6139 50.5712C11.4636 49.993 10.1848 49.7085 8.89428 49.7438C7.60379 49.779 6.34286 50.1329 5.22682 50.7731C4.11077 51.4133 3.17524 52.3193 2.50578 53.4082C2.18242 53.9599 1.89445 54.5311 1.64356 55.1184C1.39401 55.6702 1.14446 56.2219 0.894898 56.7736C0.528809 57.5829 0.154643 58.4356 0.2266 59.319C0.298556 60.2024 0.985044 61.1049 1.88337 61.0969C-0.234966 62.043 -0.675766 65.3536 1.12306 66.8073C1.62116 67.2098 2.23196 67.4731 2.68019 67.9291C3.01898 68.2737 3.24562 68.7104 3.33105 69.1831C3.41648 69.6557 3.3568 70.1427 3.15965 70.5817C2.96251 71.0206 2.6369 71.3914 2.22461 71.6465C1.81233 71.9016 1.33219 72.0294 0.845794 72.0134C2.10078 72.4918 3.48314 72.5363 4.76707 72.1396C6.051 71.7429 7.16061 70.9283 7.91464 69.8291C8.6837 68.6412 9.01795 67.1572 10.0642 66.1973C11.4497 64.926 13.7382 65.0247 15.3363 66.0243C16.9343 67.0239 17.9452 68.7258 18.6406 70.4619C19.5518 72.7369 20.135 75.3365 22.0764 76.8583C23.0151 77.5941 24.2038 78.0079 25.0335 78.8617C26.2151 80.0776 26.4195 81.9128 26.3929 83.597C26.3662 85.2811 26.1824 87.0285 26.8042 88.5972C27.4261 90.1659 29.209 91.4561 30.8077 90.8648C30.3497 92.2053 30.3638 93.659 30.8476 94.9907C31.3314 96.3223 32.2566 97.4539 33.4735 98.2022C33.1823 96.42 32.891 94.6378 32.5997 92.8556C34.0514 93.2588 34.9923 94.6479 35.5357 96.0357C36.0791 97.4235 36.3663 98.9245 37.1539 100.193C38.3942 102.191 40.6403 103.052 42.9251 103.044C45.3933 103.036 46.3304 101.875 47.957 100.165C48.2838 99.8737 48.5319 99.5063 48.6787 99.0964C48.7452 98.8898 48.7337 98.6665 48.6464 98.4675C48.5592 98.2686 48.4021 98.1074 48.2039 98.0137Z" fill="#E6E6E6"/>
<path d="M55.1931 97.925C53.8135 97.711 52.4338 97.4971 51.0542 97.2832C51.7774 97.7121 52.5007 98.1411 53.2239 98.57C53.827 98.9659 54.4828 99.2776 55.1725 99.4961C55.5184 99.6034 55.883 99.6395 56.2436 99.6021C56.6042 99.5646 56.9532 99.4545 57.2688 99.2784L57.0922 98.9454C56.814 98.2515 55.9404 98.0408 55.1931 97.925Z" fill="#E6E6E6"/>
<path d="M54.2557 105.49L54.2652 105.467C54.1818 105.33 54.0588 105.221 53.9123 105.154C53.7657 105.087 53.6021 105.065 53.4426 105.09C53.1248 105.146 52.7999 105.152 52.4804 105.106C52.2775 105.028 52.0965 104.902 51.9526 104.741C51.8086 104.58 51.706 104.387 51.6531 104.178C51.516 103.771 51.4754 103.336 51.3193 102.935C51.2064 102.619 51.0072 102.339 50.7436 102.127C50.48 101.915 50.1622 101.779 49.8251 101.733C49.4869 101.706 49.1516 101.812 48.8917 102.027C48.6318 102.242 48.4682 102.55 48.4363 102.883C48.4628 103.226 48.5733 103.558 48.7583 103.85C48.9071 104.132 49.0559 104.414 49.2048 104.697C49.3302 104.95 49.4744 105.193 49.6364 105.425C49.8998 105.783 50.2442 106.076 50.6423 106.28C51.0404 106.483 51.4811 106.593 51.9295 106.599C52.378 106.605 52.8217 106.508 53.2255 106.316C53.6293 106.123 53.982 105.841 54.2557 105.49V105.49Z" fill="#E6E6E6"/>
<path d="M46.1983 33.0629C47.2489 33.6739 48.5644 34.095 49.0635 35.1926L49.3515 35.2844C49.0374 35.6694 48.7233 36.0544 48.4092 36.4395C48.021 36.9153 47.6129 37.4455 47.6219 38.0562C47.6345 38.8972 48.4546 39.5317 49.2832 39.73C50.1674 39.9095 51.0878 39.7585 51.8655 39.3062C52.6432 38.854 53.2229 38.1329 53.492 37.2827C53.5905 36.9282 53.6312 36.5604 53.7176 36.2028C53.9695 35.3547 54.3497 34.5489 54.8454 33.8127C57.6349 29.1829 60.4245 24.5532 63.2141 19.9234C63.5615 19.3468 63.9196 18.657 63.6584 18.0378C63.519 17.7758 63.3032 17.5611 63.039 17.4212C62.7747 17.2813 62.4741 17.2227 62.1758 17.2529C61.5804 17.3242 61.0061 17.5148 60.488 17.8128C60.2578 17.414 59.933 17.0762 59.5414 16.8285C59.1498 16.5808 58.703 16.4306 58.2396 16.3908C57.3129 16.3202 56.3807 16.4003 55.4803 16.6279C53.4461 16.9307 51.4845 17.5954 49.6911 18.5898C48.7101 19.0791 47.6304 19.6833 47.3457 20.7309C46.9956 22.0194 48.124 23.3327 49.4231 23.703C50.7223 24.0733 52.1089 23.7623 53.4238 23.4506C53.5724 24.0794 53.5105 24.7388 53.2473 25.33C52.984 25.9211 52.5337 26.4122 51.9637 26.7296C51.3937 27.047 50.7349 27.1736 50.0858 27.0905C49.4368 27.0073 48.8325 26.7189 48.3636 26.2685C47.4211 25.3631 46.9595 23.7914 45.6654 23.5578C44.3755 23.3249 43.3502 24.6821 43.0656 25.9449C42.7871 27.305 42.9381 28.7167 43.4983 29.9895C44.0585 31.2623 45.0009 32.335 46.1983 33.0629Z" fill="#E6E6E6"/>
<path d="M62.3772 55.3405C61.756 53.6132 60.9396 51.9605 59.9434 50.4135C59.1883 49.1903 58.2563 48.0824 57.1769 47.1247C56.1904 46.2843 55.0565 45.629 53.831 45.1911C52.6414 44.7668 51.3171 44.5571 50.1145 44.9441C48.912 45.331 47.8889 46.4341 47.9133 47.6817C47.9402 49.0612 49.1637 50.1401 50.4389 50.7069C51.714 51.2738 53.1325 51.5205 54.3355 52.2241C55.1535 52.7135 55.8371 53.3937 56.3262 54.2047C56.8153 55.0158 57.095 55.933 57.1407 56.8756L57.4436 57.3699C56.7572 57.5943 56.117 57.9381 55.5535 58.3851C55.2744 58.6123 55.0611 58.9082 54.935 59.2428C54.809 59.5774 54.7747 59.9389 54.8356 60.2908C55.0458 61.1262 55.9105 61.6055 56.6923 61.9875C58.1369 62.6933 59.5815 63.3992 61.0262 64.105C60.2906 61.9413 62.6988 59.9278 62.832 57.6494C62.8372 56.8576 62.6825 56.0728 62.3772 55.3405Z" fill="#E6E6E6"/>
<path d="M26.0526 49.4986C26.9289 50.17 28.2763 49.856 29.0791 49.1004C29.8819 48.3448 30.2729 47.2696 30.6376 46.2358C30.5044 47.2591 30.517 48.2957 30.675 49.3155C30.7573 49.8254 30.9461 50.313 31.2293 50.7473C31.5125 51.1815 31.884 51.5531 32.3203 51.8384C32.7164 52.0527 33.1434 52.2061 33.5866 52.2931C35.6465 52.7556 37.7993 52.6039 39.7716 51.8572L39.7893 51.1919C38.7985 51.3034 38.0487 50.2313 37.9833 49.2496C37.9178 48.268 38.279 47.3052 38.3107 46.3219C38.3425 45.3386 37.8621 44.1897 36.8807 44.0148C37.0525 44.3551 37.1151 44.7389 37.0603 45.1152C37.0055 45.4915 36.8358 45.8424 36.5738 46.1212C36.3119 46.4001 35.97 46.5936 35.5939 46.676C35.2177 46.7584 34.8249 46.7259 34.468 46.5827C33.332 46.1271 32.9194 44.7619 32.0415 43.9173C31.4991 43.4413 30.8262 43.1342 30.1074 43.0344C29.3885 42.9347 28.6558 43.0468 28.0014 43.3567C27.3552 43.682 26.7884 44.1417 26.34 44.7042C25.8916 45.2668 25.5724 45.9186 25.4043 46.6147C25.1378 47.6248 25.2169 48.8584 26.0526 49.4986Z" fill="#E6E6E6"/>
<path d="M53.0987 42.4923L53.1394 42.4271C52.8947 41.7302 52.1364 41.3216 51.3962 41.2179C50.6501 41.1693 49.9009 41.1937 49.1596 41.2908C48.4115 41.3863 47.653 41.2215 47.0148 40.8248C46.5053 40.449 46.215 39.8578 45.8077 39.3758C45.4004 38.8937 44.7412 38.4973 44.1495 38.7278C43.5089 38.9773 43.338 39.8631 43.6489 40.4694C44.0151 41.0513 44.5675 41.4961 45.2188 41.7335C47.6851 42.8503 50.4601 43.1175 53.0987 42.4923Z" fill="#E6E6E6"/>
<path d="M44.6803 44.581C44.4754 44.7291 44.3365 44.9496 44.2926 45.1963C44.2488 45.4431 44.3033 45.6971 44.4449 45.905C44.5865 46.113 44.8042 46.2589 45.0523 46.3122C45.3005 46.3655 45.5599 46.3221 45.7763 46.191L45.9925 46.4015C46.2799 45.8937 46.3984 45.2135 46.0309 44.7588C45.8674 44.5703 45.6392 44.4479 45.39 44.4151C45.1408 44.3823 44.8881 44.4414 44.6803 44.581Z" fill="#E6E6E6"/>
<path d="M42.1511 46.4027C42.1542 46.2212 42.1016 46.0431 42.0002 45.8918C41.8988 45.7404 41.7533 45.6229 41.5829 45.5546C41.4669 45.535 41.3481 45.5387 41.2336 45.5656C41.1191 45.5925 41.0113 45.6419 40.9166 45.711C40.822 45.7801 40.7426 45.8673 40.6831 45.9675C40.6235 46.0677 40.5852 46.1787 40.5703 46.2939C40.5525 46.5285 40.5837 46.7643 40.6621 46.9865C40.7405 47.2087 40.8644 47.4127 41.0261 47.5857C41.1201 47.7251 41.2431 47.8432 41.3868 47.9322C41.5305 48.0213 41.6917 48.0793 41.8598 48.1024C42.1985 48.1134 42.5438 47.764 42.4065 47.4584L41.8893 47.4484C42.0486 47.1213 42.1378 46.7653 42.1511 46.4027Z" fill="#E6E6E6"/>
<path d="M32.0378 41.178C32.2277 41.3299 32.4176 41.4817 32.6076 41.6336C32.9366 41.9142 33.292 42.1631 33.6689 42.377C34.3282 42.7373 35.1036 42.831 35.8316 42.6382C36.191 42.5371 36.5188 42.3484 36.7848 42.0894C37.0508 41.8304 37.2464 41.5096 37.3537 41.1564C37.5808 40.3123 37.2103 39.4357 36.8478 38.6389C36.7651 38.4109 36.6286 38.2056 36.4495 38.0399C36.3578 37.9597 36.2408 37.9134 36.1184 37.9086C35.996 37.9039 35.8756 37.941 35.7778 38.0138C35.7069 38.101 35.6597 38.2046 35.6408 38.3148C35.6219 38.425 35.6318 38.5381 35.6697 38.6434C35.7476 38.8533 35.7832 39.0762 35.7745 39.2996C35.7384 39.52 35.504 39.7282 35.2975 39.6371L35.2646 40.3871C34.2785 39.8947 33.7569 38.5847 32.6594 38.4556C32.4131 38.4266 32.1635 38.4649 31.9377 38.5663C31.7119 38.6677 31.5188 38.8283 31.3792 39.0306C31.2396 39.233 31.1591 39.4692 31.1463 39.7136C31.1336 39.958 31.1891 40.2011 31.3068 40.4165C31.4974 40.7153 31.7458 40.9741 32.0378 41.178Z" fill="#E6E6E6"/>
<path d="M29.6891 37.94C29.9172 37.7857 30.0977 37.5723 30.2107 37.3232C30.3236 37.0741 30.3647 36.7991 30.3293 36.5285C30.302 36.3975 30.2458 36.2739 30.1646 36.1667C30.0834 36.0595 29.9793 35.9713 29.8596 35.9083C29.74 35.8453 29.6077 35.8091 29.4722 35.8022C29.3368 35.7954 29.2014 35.818 29.0759 35.8686C28.7941 36.0764 28.5962 36.3761 28.5173 36.7143C28.2574 37.4375 27.9975 38.1608 27.7375 38.884L28.1744 38.5705C28.7148 38.4556 29.2286 38.2418 29.6891 37.94Z" fill="#E6E6E6"/>
<path d="M34.751 33.5017C34.829 33.4046 34.8846 33.2918 34.9137 33.1713C34.9428 33.0507 34.9447 32.9254 34.9194 32.804C34.8941 32.6826 34.8421 32.5682 34.7672 32.4688C34.6922 32.3694 34.596 32.2874 34.4855 32.2286L33.9393 32.1782C33.8151 32.2092 33.7 32.2685 33.6033 32.3514C33.5065 32.4342 33.4308 32.5382 33.3822 32.6552C33.3335 32.7721 33.3134 32.8986 33.3233 33.0246C33.3332 33.1506 33.3729 33.2726 33.4392 33.3807C33.5055 33.4888 33.5966 33.5801 33.7051 33.6472C33.8137 33.7144 33.9366 33.7555 34.0642 33.7672C34.1917 33.779 34.3203 33.7611 34.4396 33.715C34.5589 33.6689 34.6655 33.5958 34.751 33.5017Z" fill="#E6E6E6"/>
<path d="M39.776 34.3332C40.2857 34.5738 40.9309 34.8031 41.3743 34.4576C41.5057 34.3403 41.6033 34.191 41.6575 34.0246C41.7117 33.8583 41.7205 33.6807 41.683 33.5099C41.6034 33.1692 41.4496 32.8497 41.2323 32.5735C40.5542 31.6131 39.6927 30.7924 38.6961 30.1575L38.4496 30.4733C38.1054 31.3551 37.7731 32.3844 38.2532 33.202C38.5769 33.7531 39.1936 34.0583 39.776 34.3332Z" fill="#E6E6E6"/>
<path d="M43.573 35.118L44.5261 35.5433C44.4326 35.3826 44.2903 35.255 44.1192 35.1787C43.9481 35.1024 43.757 35.0811 43.573 35.118Z" fill="#E6E6E6"/>
<path d="M41.0045 38.0764L40.5541 38.2227C40.1712 38.8436 40.3373 39.6374 40.5155 40.3426C40.6281 40.7884 40.871 41.337 41.3362 41.3167C41.7889 41.297 41.9893 40.7554 42.0762 40.3167C42.2118 39.84 42.2265 39.3378 42.119 38.8542C42.0576 38.6149 41.9116 38.405 41.7073 38.2623C41.503 38.1197 41.2538 38.0538 41.0045 38.0764Z" fill="#E6E6E6"/>
<path d="M33.8227 35.9867L34.1559 36.1191C34.234 36.1081 34.3063 36.072 34.3615 36.0164C34.4167 35.9607 34.4518 35.8887 34.4613 35.8114C34.4708 35.7341 34.4541 35.6559 34.414 35.5889C34.3738 35.5218 34.3124 35.4697 34.2392 35.4406C34.166 35.4116 34.0851 35.4071 34.0091 35.428C33.933 35.4489 33.8661 35.4939 33.8187 35.5561C33.7712 35.6183 33.7459 35.6942 33.7466 35.7721C33.7473 35.8499 33.7741 35.9254 33.8227 35.9867Z" fill="#E6E6E6"/>
<path d="M50.6226 61.1241C50.4611 61.1276 50.3029 61.1692 50.161 61.2453C50.0192 61.3215 49.8979 61.4299 49.8072 61.5617C49.7165 61.6935 49.659 61.8448 49.6397 62.0029C49.6203 62.1611 49.6395 62.3215 49.6957 62.4708C50.023 63.166 51.15 63.169 51.6508 62.583C51.7791 62.4165 51.8711 62.2256 51.9208 62.0224C51.9705 61.8191 51.977 61.6079 51.9399 61.402C51.9027 61.1961 51.8227 61.0001 51.7048 60.8263C51.587 60.6525 51.4339 60.5046 51.2553 60.3921L50.6226 61.1241Z" fill="#E6E6E6"/>
<path d="M66.8547 77.5913C66.7237 77.6257 66.601 77.6857 66.4939 77.7678C66.3869 77.8498 66.2975 77.9522 66.2313 78.0688C66.165 78.1855 66.1231 78.3141 66.1081 78.447C66.093 78.5799 66.1052 78.7145 66.1437 78.8427L67.0794 78.9068C67.3962 78.7499 67.713 78.593 68.0299 78.4361C68.0107 78.3037 67.9649 78.1764 67.895 78.0618C67.8251 77.9472 67.7327 77.8476 67.6231 77.7688C67.5136 77.69 67.3891 77.6337 67.2571 77.6033C67.1251 77.5728 66.9883 77.5687 66.8547 77.5913Z" fill="#E6E6E6"/>
<path d="M63.0516 78.7331C62.7839 78.9206 62.569 79.1723 62.4272 79.4644C62.2854 79.7565 62.2213 80.0795 62.241 80.4028C62.2715 80.7253 62.4052 81.0299 62.6228 81.2725C62.8404 81.5151 63.1306 81.683 63.4514 81.7521C63.7753 81.8022 64.1063 81.7291 64.3776 81.5476C64.6489 81.3661 64.8401 81.0897 64.9127 80.7744C65.071 79.8196 64.0309 79.1204 63.6571 78.2261L63.0516 78.7331Z" fill="#E6E6E6"/>
<path d="M99.3912 72.4278C99.49 73.1445 98.8354 73.7723 98.811 74.4952C98.7822 75.353 99.7286 76.0203 100.594 75.9361C101.024 75.8626 101.431 75.6918 101.782 75.4371C102.134 75.1825 102.42 74.8508 102.62 74.4683L102.639 74.3878C102.217 73.9177 101.795 73.4475 101.374 72.9773C100.856 72.3999 100.307 71.7426 100.327 70.9719C100.337 70.5919 100.489 70.2238 100.48 69.8438C100.46 69.5705 100.398 69.3017 100.297 69.0465C100.183 68.7104 100.027 68.3316 99.6868 68.2181C99.2607 68.0761 98.8306 68.4486 98.6271 68.8445C98.4442 69.2095 98.3552 69.6134 98.3682 70.0205C98.3811 70.4275 98.4956 70.8251 98.7014 71.1782C98.9476 71.5907 99.3258 71.9534 99.3912 72.4278Z" fill="#E6E6E6"/>
<path d="M95.4145 74.9494C95.5067 74.9985 95.6086 75.0274 95.7132 75.034C95.8178 75.0406 95.9226 75.0248 96.0205 74.9877C96.3962 74.9246 96.7573 74.7951 97.0865 74.6055C97.25 74.5086 97.3844 74.3705 97.4761 74.2055C97.5677 74.0405 97.6132 73.8544 97.608 73.6663C97.5511 73.4298 97.4243 73.2152 97.2437 73.0498C97.0631 72.8844 96.8369 72.7756 96.5936 72.737C96.4247 72.6784 96.2438 72.6617 96.0668 72.6884C95.8898 72.715 95.7222 72.7843 95.5787 72.89C95.2645 73.1808 95.302 73.6743 95.3636 74.0949L95.2973 74.2045C95.2382 74.4643 95.2004 74.7873 95.4145 74.9494Z" fill="#E6E6E6"/>
<path d="M161.789 105.579C161.698 105.355 161.606 105.132 161.515 104.908C161.39 105.212 161.437 105.523 161.789 105.579Z" fill="#E6E6E6"/>
<path d="M216.54 58.5157C215.369 57.2629 214.653 56.5407 213.914 54.9879C213.511 54.1314 212.9 53.3866 212.135 52.8198C211.37 52.253 210.475 51.8819 209.529 51.7397C207.101 51.3451 204.62 51.97 202.162 51.8447C198.225 51.6442 194.676 49.5612 190.906 48.4251C188.795 47.8417 186.645 47.4044 184.473 47.1163C183.221 46.921 181.969 46.7257 180.717 46.5304C176.614 45.8902 172.484 45.2481 168.331 45.3332C167.133 45.3577 165.465 45.0026 165.561 43.8246C165.68 42.3615 168.348 42.5536 168.861 41.1758C169.179 40.3236 168.419 39.4288 167.586 39.0434C166.752 38.658 165.79 38.5422 165.034 38.0248C164.278 37.5074 163.863 36.308 164.558 35.7129C162.631 36.6873 160.705 37.6617 158.778 38.6362C157.176 39.4463 155.386 40.5003 155.103 42.2541C154.138 42.5058 153.293 43.0847 152.717 43.8893C151.633 43.8949 150.782 44.9214 150.603 45.976C150.424 47.0305 150.749 48.0978 151.07 49.119C150.677 48.3762 150.26 47.6049 149.567 47.1202C148.874 46.6355 147.819 46.5432 147.228 47.1453C146.622 47.7632 146.764 48.8 147.193 49.5486C147.621 50.2973 148.28 50.9016 148.685 51.6632C149.949 54.0421 147.659 57.3913 144.949 57.1263C145.131 54.6699 145.313 52.2134 145.495 49.757C145.61 49.0014 145.545 48.2297 145.306 47.5029C145.011 46.7997 144.254 46.2222 143.501 46.3882C142.147 46.6868 142.263 48.6435 142.826 49.8944C143.389 51.1453 143.951 52.8848 142.801 53.6508C142.058 54.1455 141.052 53.84 140.25 53.4451C139.449 53.0503 138.591 52.5637 137.715 52.7481C136.838 52.9326 136.287 54.254 137.062 54.6989C135.778 54.4788 134.494 54.2587 133.21 54.0386C133.146 54.4115 133.004 54.767 132.793 55.0822C132.581 55.3975 132.305 55.6655 131.982 55.8688C131.659 56.0722 131.296 56.2064 130.917 56.2628C130.538 56.3192 130.151 56.2966 129.782 56.1963C129.656 55.6811 129.53 55.1658 129.403 54.6504C129.216 54.5988 129.028 54.5472 128.84 54.4956C129.43 54.6576 128.507 57.1112 127.68 58.9855C126.568 58.8569 124.942 58.8321 124.757 58.5177C123.869 57.0124 123.975 53.4266 122.432 52.5797C121.658 52.155 120.865 51.768 120.052 51.4187C119.625 51.2181 119.173 51.072 118.709 50.9837C117.761 50.8364 116.806 51.1263 115.892 51.4127C114.812 51.7511 113.706 52.1023 112.812 52.7891C112.048 53.4427 111.393 54.2108 110.872 55.0653C109.105 57.6438 107.339 60.2222 105.573 62.8007C105.047 63.4893 104.633 64.2546 104.346 65.0692C104.211 65.4742 104.166 65.9032 104.214 66.327C104.263 66.7507 104.403 67.1593 104.626 67.5246C104.861 67.8827 105.211 68.1525 105.62 68.2904C106.029 68.4284 106.474 68.4264 106.882 68.285C107.394 68.0664 107.906 67.571 108.413 67.7998C108.798 67.9731 108.894 68.4712 108.853 68.886C108.756 69.2921 108.748 69.7143 108.831 70.1236C109.062 70.7693 109.95 70.994 110.584 70.7146C111.2 70.383 111.662 69.8285 111.872 69.1678C112.482 67.6231 112.42 65.9139 112.572 64.2626C112.724 62.6114 113.181 60.8452 114.501 59.8185C114.896 59.5112 115.476 59.2897 115.883 59.5819C116.035 59.7185 116.141 59.8984 116.184 60.0968C116.228 60.2952 116.207 60.502 116.126 60.6884C115.956 61.0573 115.734 61.4008 115.468 61.709C115.017 62.3347 114.701 63.0453 114.541 63.7966C114.38 64.5478 114.378 65.3236 114.535 66.0757L114.804 66.2404C115.833 65.9771 117.21 66.4485 118.576 66.9006C117.585 67.1915 116.712 67.784 116.082 68.5934C114.503 70.7791 113.36 72.8474 110.236 72.8214C109.495 72.8153 108.76 72.6707 108.019 72.6691C107.271 72.6236 106.534 72.8656 105.963 73.3445C105.402 73.8872 105.228 74.7135 104.747 75.3274C104.115 76.1345 103.059 76.4628 102.094 76.8294C101.389 77.0974 100.646 77.4587 100.322 78.1321C100.118 78.6843 100.071 79.2808 100.186 79.8574C100.295 80.8771 100.487 82.0368 101.364 82.5873C101.692 82.7561 102.051 82.8588 102.419 82.8896C102.788 82.9203 103.159 82.8785 103.511 82.7665C104.423 82.5476 105.315 82.1354 106.251 82.197C107.722 82.2936 108.933 83.6863 108.948 85.1404C108.956 85.8763 108.738 86.7206 109.233 87.2717C109.697 87.7896 110.619 87.6973 111.1 87.1945C111.324 86.927 111.478 86.6096 111.549 86.2698C111.62 85.9301 111.605 85.5784 111.506 85.2456C111.302 84.5826 110.987 83.9577 110.575 83.3962C111.065 83.2711 111.583 83.3171 112.042 83.5264C112.501 83.7358 112.873 84.0955 113.093 84.5444C113.42 85.2604 113.314 86.0865 113.418 86.8649C113.523 87.6432 114.003 88.5084 114.798 88.5532C115.057 88.5604 115.312 88.4777 115.516 88.3194C115.72 88.161 115.862 87.9371 115.917 87.6864C115.925 87.2914 115.903 86.8963 115.852 86.5045C115.879 86.1188 116.054 85.758 116.343 85.496C116.631 85.2341 117.01 85.0908 117.402 85.0956C117.16 85.5362 117.081 86.0461 117.179 86.5378C117.277 87.0294 117.545 87.4721 117.938 87.79C118.542 88.2516 119.342 88.3548 120.095 88.4838C120.848 88.6128 121.652 88.8168 122.138 89.399C122.948 90.3686 121.957 90.8054 121.803 91.6266C121.613 92.6347 122.467 94.1235 122.795 95.088C124.302 97.1674 125.808 99.2468 127.315 101.326C127.651 101.832 128.048 102.296 128.497 102.708C129.984 103.968 132.436 103.844 133.862 102.517C134.554 101.827 135.003 100.936 135.143 99.9753C135.284 99.0148 135.109 98.0351 134.643 97.1801C133.762 95.5972 132.015 94.6169 131.153 93.0238C132.588 94.1962 134.351 94.9112 136.207 95.0743C139.491 95.7327 142.612 97.0237 145.389 98.8733C145.52 101.736 146.633 104.47 148.547 106.627C148.891 104.183 150.046 101.921 151.831 100.194C152.992 99.0768 154.578 98.1764 156.17 98.4767C157.763 98.777 158.971 100.78 158.008 102.067C158.815 102.126 159.622 102.186 160.429 102.245C160.791 103.133 161.153 104.02 161.515 104.908C161.579 104.722 161.703 104.56 161.867 104.448C162.031 104.335 162.227 104.278 162.427 104.284C163.183 104.396 163.713 105.09 164.431 105.346C165.786 105.828 167.234 104.491 167.41 103.081C167.585 101.67 166.905 100.309 166.244 99.046C167.704 99.3126 169.21 99.1536 170.58 98.5884C171.95 98.0232 173.122 97.0764 173.955 95.8638C174.787 94.6511 175.243 93.2254 175.267 91.761C175.291 90.2967 174.881 88.8573 174.088 87.6191C175.659 85.9916 177.507 84.6491 179.549 83.6528C181.439 82.7319 183.506 82.0998 185.157 80.808C186.808 79.5162 187.967 77.273 187.172 75.3472C186.611 73.9867 185.204 73.0634 184.783 71.6546C184.173 69.6153 186.025 67.5059 188.118 66.9964C190.21 66.4869 192.395 67.1132 194.456 67.7345C194.14 65.6422 196.598 63.6807 198.606 64.4237C199.447 64.0878 200.288 63.7519 201.129 63.416C200.154 65.5361 198.042 66.885 196.488 68.6378C194.935 70.3905 194.01 73.2448 195.633 74.9353C197.958 72.856 200.284 70.7766 202.609 68.6972C205.042 66.5222 207.474 64.3471 209.907 62.1721C209.791 61.8355 209.675 61.4989 209.559 61.1623C211.86 60.2999 214.339 59.5866 216.54 58.5157Z" fill="#E6E6E6"/>
<path d="M95.7481 86.5012C95.6541 86.6346 95.6042 86.7934 95.605 86.9559C95.6058 87.1184 95.6574 87.2767 95.7528 87.4092C95.8777 87.5139 96.0356 87.5723 96.1995 87.5745C96.3634 87.5767 96.5229 87.5224 96.6506 87.4211C96.9004 87.2108 97.0954 86.9444 97.2194 86.6444C97.3402 86.875 97.53 87.0632 97.7631 87.1836C97.9961 87.3041 98.2611 87.3508 98.522 87.3174C99.0431 87.2399 99.5367 87.0369 99.9592 86.7262C100.294 86.5324 100.59 86.2792 100.832 85.9792C100.952 85.8281 101.034 85.6516 101.072 85.4636C101.11 85.2757 101.103 85.0816 101.051 84.8968C100.926 84.6133 100.731 84.3651 100.484 84.1745C99.8688 83.6137 99.2534 83.053 98.638 82.4922L98.4295 82.4306C98.321 82.3167 98.1903 82.2256 98.0451 82.1627C97.9 82.0999 97.7435 82.0667 97.5851 82.065C97.4266 82.0633 97.2694 82.0933 97.123 82.153C96.9765 82.2128 96.8439 82.3011 96.7329 82.4127C96.3508 82.8347 96.3491 83.4652 96.4075 84.0281C96.4659 84.591 96.5568 85.1907 96.3027 85.698C96.1571 85.9888 95.9104 86.219 95.7481 86.5012Z" fill="#E6E6E6"/>
<path d="M131.451 105.656C129.06 105.13 126.871 103.941 125.143 102.228C123.415 100.514 122.22 98.3488 121.7 95.987C121.473 94.8725 121.371 93.6547 120.619 92.7931C119.892 91.9589 118.703 91.6578 117.587 91.6579C116.472 91.658 115.372 91.9112 114.259 91.9797C112.312 92.0995 110.249 91.5922 108.857 90.2445C108.198 89.6063 107.699 88.7958 106.929 88.2924C105.895 87.6159 104.523 87.6164 103.344 87.9997C102.031 88.4267 100.98 89.595 99.5436 89.4342C98.0503 89.2669 96.3196 88.7462 95.7341 90.686C95.5655 91.2445 95.6229 91.8571 95.4095 92.4005C95.0804 93.2379 94.207 93.7101 93.5162 94.295C92.1247 95.4734 91.385 97.2634 91.1358 99.0558C90.8867 100.848 91.0794 102.668 91.2724 104.467C91.3765 105.438 91.5134 106.482 92.1891 107.195C93.1309 108.188 94.7114 108.15 96.0856 108.038C97.682 107.908 99.2785 107.778 100.875 107.648C101.736 107.578 102.716 107.548 103.329 108.148C103.696 108.508 103.851 109.028 104.174 109.427C104.464 109.767 104.862 109.999 105.303 110.087C105.744 110.175 106.202 110.112 106.603 109.91C106.279 110.481 106.103 111.121 106.089 111.775C106.076 112.429 106.227 113.076 106.528 113.658C106.828 114.241 107.27 114.742 107.814 115.116C108.357 115.49 108.986 115.726 109.644 115.803L109.767 115.88C108.745 117.606 107.685 119.545 108.108 121.5C108.472 123.177 109.879 124.521 110.109 126.22C110.321 127.779 109.496 129.374 109.861 130.905C110.23 132.456 111.818 133.537 113.428 133.652C115.038 133.768 116.621 133.063 117.868 132.052C119.116 131.04 120.08 129.737 121.031 128.45C121.617 127.655 122.219 126.827 122.421 125.864C122.635 124.839 122.387 123.703 122.892 122.783C123.475 121.721 124.858 121.324 125.556 120.332C126.46 119.049 125.927 117.301 126.127 115.75C126.622 111.913 131.563 109.522 131.451 105.656Z" fill="#E6E6E6"/>
<path d="M130.737 118.755C130.602 119.354 130.034 119.749 129.492 120.05C128.95 120.352 128.354 120.656 128.078 121.206C127.795 121.769 127.924 122.441 128.072 123.052C128.38 124.324 128.742 125.582 129.16 126.825C129.968 125.317 130.674 123.759 131.273 122.159C131.527 121.563 131.683 120.932 131.737 120.288C131.762 119.966 131.718 119.642 131.608 119.338C131.498 119.033 131.325 118.755 131.099 118.52L130.737 118.755Z" fill="#E6E6E6"/>
<path d="M163.993 112.082C163.314 111.308 162.635 110.535 161.956 109.762C161.492 109.233 160.962 108.668 160.258 108.58L159.969 108.762C160.558 110.145 161.146 111.528 161.735 112.911C161.944 113.543 162.31 114.112 162.802 114.566C163.329 114.975 164.183 115.053 164.623 114.554C164.765 114.367 164.854 114.146 164.882 113.914C164.91 113.682 164.876 113.447 164.782 113.233C164.591 112.806 164.324 112.416 163.993 112.082Z" fill="#E6E6E6"/>
<path d="M170.573 113.563C170.83 113.475 171.065 113.335 171.264 113.152C171.462 112.969 171.62 112.748 171.727 112.501C171.938 112.008 172.077 111.487 172.14 110.955C172.256 110.263 172.372 109.571 172.488 108.878L172.336 108.84C172.189 108.77 172.021 108.755 171.863 108.798C171.705 108.841 171.569 108.939 171.479 109.074C171.308 109.349 171.179 109.647 171.095 109.959C171.052 110.115 170.974 110.259 170.866 110.381C170.759 110.503 170.625 110.599 170.475 110.663C169.929 110.825 169.413 110.255 168.844 110.278C168.614 110.306 168.401 110.411 168.24 110.575C168.078 110.739 167.977 110.952 167.954 111.179C167.921 111.638 168.053 112.094 168.326 112.467C168.812 113.21 169.712 113.807 170.573 113.563Z" fill="#E6E6E6"/>
<path d="M174.327 114.876L175.892 110.81C175.258 111.263 174.772 111.89 174.494 112.612C174.216 113.334 174.158 114.121 174.327 114.876Z" fill="#E6E6E6"/>
<path d="M182.314 111.598L181.997 111.611C181.856 111.887 181.781 112.191 181.778 112.5C181.775 112.81 181.844 113.115 181.98 113.394C182.258 113.949 182.662 114.434 183.161 114.81C183.934 115.439 184.816 115.925 185.765 116.244C187.157 116.645 188.595 116.863 190.045 116.895C190.873 116.948 191.702 117.002 192.53 117.055C192.925 117.081 193.435 117.031 193.545 116.656C193.635 116.347 193.368 116.056 193.118 115.848C190.927 114.029 188.269 112.839 185.438 112.409C184.364 112.248 183.224 112.182 182.314 111.598Z" fill="#E6E6E6"/>
<path d="M191.157 122.389C190.561 121.819 189.965 121.249 189.369 120.679C188.79 120.124 187.922 119.537 187.258 119.99C186.876 120.25 186.758 120.757 186.435 121.085C186.238 121.259 186 121.382 185.743 121.443C185.485 121.503 185.217 121.499 184.961 121.431C184.452 121.29 183.971 121.065 183.538 120.766L182.06 119.861C181.55 119.549 181.04 119.236 180.53 118.924L179.378 120.028C179.428 119.485 178.694 119.132 178.186 119.346C177.944 119.48 177.737 119.666 177.578 119.89C177.419 120.114 177.313 120.37 177.269 120.64C177.184 121.179 177.037 121.706 176.829 122.212C176.244 123.316 174.825 123.643 173.577 123.828C172.328 124.013 170.913 124.273 170.245 125.33C169.688 126.21 169.855 127.34 170.041 128.361L170.745 132.224C170.778 132.692 170.968 133.136 171.286 133.486C171.904 134.024 172.862 133.697 173.616 133.368C175.193 132.62 176.886 132.136 178.624 131.937C180.378 131.743 182.143 132.189 183.586 133.19C184.481 133.862 185.163 134.793 186.111 135.39C186.764 135.777 187.498 136.013 188.257 136.078C189.017 136.144 189.781 136.037 190.492 135.767C191.918 135.207 193.098 134.169 193.824 132.836C194.47 131.66 194.793 130.339 194.764 129.002C194.734 127.666 194.353 126.36 193.656 125.213C192.945 124.173 192.105 123.224 191.157 122.389Z" fill="#E6E6E6"/>
<path d="M189.4 138.127C189.257 138.298 189.173 138.51 189.161 138.732C189.149 138.953 189.209 139.173 189.333 139.358C189.593 139.725 189.988 139.977 190.435 140.058C190.876 140.136 191.327 140.156 191.774 140.118L191.788 139.789C191.668 139.21 191.398 138.673 191.003 138.229C190.571 137.824 189.809 137.7 189.4 138.127Z" fill="#E6E6E6"/>
<path d="M204.742 138.48L204.529 138.403C204.02 139.158 203.512 139.914 203.004 140.67C202.73 141.077 202.444 141.565 202.611 142.025C202.809 142.569 203.539 142.728 204.106 142.584C204.539 142.469 204.929 142.233 205.231 141.906C205.534 141.579 205.735 141.174 205.812 140.738C205.874 140.3 205.806 139.853 205.617 139.452C205.427 139.051 205.123 138.713 204.742 138.48Z" fill="#E6E6E6"/>
<path d="M208.618 136.081L207.214 134.98C207.195 135.491 207.177 136.001 207.158 136.512L207.105 136.513C207.429 136.793 207.734 137.093 208.02 137.41C208.349 137.686 208.9 137.812 209.181 137.489C209.265 137.373 209.312 137.236 209.318 137.094C209.323 136.952 209.286 136.811 209.211 136.69C209.056 136.45 208.855 136.243 208.618 136.081Z" fill="#E6E6E6"/>
<path d="M183.262 88.1928C182.673 88.1747 182.021 88.1394 181.565 88.507C181.415 88.6394 181.283 88.7908 181.173 88.9574L181.012 89.1796C180.771 89.4906 180.562 89.8237 180.385 90.1743C180.293 90.3386 180.238 90.5205 180.223 90.7077C180.209 90.8949 180.235 91.083 180.3 91.2593C180.338 91.3436 180.394 91.4187 180.464 91.4793C180.535 91.5398 180.618 91.5844 180.707 91.6098C180.797 91.6352 180.891 91.6409 180.984 91.6264C181.076 91.6119 181.164 91.5776 181.241 91.5258C181.493 91.2958 181.434 90.8786 181.624 90.597C181.708 90.4909 181.816 90.4055 181.939 90.3475C182.062 90.2894 182.197 90.2604 182.333 90.2627C182.605 90.2694 182.876 90.2996 183.142 90.3529C183.88 90.4527 184.632 90.342 185.309 90.0338C185.985 89.7256 186.558 89.2328 186.96 88.6137C187.362 87.9945 187.576 87.2749 187.576 86.5398C187.577 85.8046 187.364 85.0847 186.963 84.465L186.916 84.3223C186.508 84.3069 186.108 84.4331 185.784 84.6789C185.461 84.9246 185.236 85.2744 185.147 85.6674C185.015 86.3443 185.294 87.1307 184.878 87.6845C184.528 88.1515 183.851 88.211 183.262 88.1928Z" fill="#E6E6E6"/>
<path d="M188.534 81.0165L188.444 81.0088C187.917 81.1037 187.412 81.2896 186.951 81.5578C186.799 81.6271 186.678 81.748 186.61 81.8983C186.59 81.978 186.591 82.0614 186.611 82.141C186.632 82.2205 186.673 82.2937 186.729 82.354C186.843 82.4733 186.977 82.5727 187.125 82.648C187.345 82.793 187.589 82.9004 187.845 82.9656C187.973 82.997 188.108 82.9962 188.236 82.9635C188.364 82.9308 188.482 82.8672 188.579 82.7783C188.671 82.6548 188.733 82.5132 188.763 82.3632C188.793 82.2133 188.789 82.0588 188.752 81.9105C188.71 81.606 188.637 81.3065 188.534 81.0165Z" fill="#E6E6E6"/>
<path d="M179.456 88.3652C179.597 88.1427 179.697 87.8975 179.752 87.6409C179.807 87.4416 179.862 87.2423 179.917 87.043L179.33 86.6912C179.049 86.8352 178.791 87.0171 178.561 87.2316C178.447 87.3397 178.357 87.4699 178.296 87.614C178.235 87.7582 178.206 87.9132 178.209 88.0692C178.217 88.2252 178.278 88.3738 178.383 88.491C178.487 88.6082 178.629 88.687 178.785 88.7145C178.918 88.7185 179.05 88.6884 179.167 88.6272C179.285 88.566 179.385 88.4757 179.456 88.3652Z" fill="#E6E6E6"/>
<path d="M115.504 34.5109C115.272 34.6537 115.338 34.9988 115.432 35.2521C115.54 35.543 115.648 35.8339 115.756 36.1248L115.907 35.5601C116.04 35.3411 116.099 35.086 116.075 34.8319C116.022 34.5837 115.722 34.3769 115.504 34.5109Z" fill="#E6E6E6"/>
<path d="M262.074 86.9091H163.886C161.519 86.9064 159.25 85.9778 157.577 84.327C155.904 82.6762 154.962 80.4379 154.96 78.1033V8.80576C154.962 6.47114 155.904 4.23291 157.577 2.58208C159.251 0.931255 161.519 0.00265591 163.886 0H262.074C264.44 0.0026549 266.709 0.931254 268.383 2.58208C270.056 4.23291 270.997 6.47114 271 8.80576V78.1033C270.997 80.4379 270.056 82.6762 268.383 84.327C266.709 85.9778 264.44 86.9064 262.074 86.9091Z" fill="white"/>
<path d="M262.074 86.9091H163.886C161.519 86.9064 159.25 85.9778 157.577 84.327C155.904 82.6762 154.962 80.4379 154.96 78.1033V8.80576C154.962 6.47114 155.904 4.23291 157.577 2.58208C159.251 0.931255 161.519 0.00265591 163.886 0H262.074C264.44 0.0026549 266.709 0.931254 268.383 2.58208C270.056 4.23291 270.997 6.47114 271 8.80576V78.1033C270.997 80.4379 270.056 82.6762 268.383 84.327C266.709 85.9778 264.44 86.9064 262.074 86.9091ZM163.886 0.765719C161.725 0.768109 159.654 1.61595 158.126 3.12323C156.598 4.63052 155.738 6.67414 155.736 8.80576V78.1033C155.738 80.2349 156.598 82.2785 158.126 83.7858C159.654 85.2931 161.725 86.1409 163.886 86.1433H262.074C264.235 86.1409 266.306 85.2931 267.834 83.7858C269.362 82.2785 270.221 80.2349 270.224 78.1033V8.80576C270.221 6.67414 269.362 4.63052 267.834 3.12323C266.306 1.61595 264.235 0.768109 262.074 0.765719H163.886Z" fill="#3F3D56"/>
<path d="M190.6 10.5512H175.077C174.665 10.5512 174.27 10.3898 173.979 10.1026C173.688 9.81541 173.524 9.42588 173.524 9.01972C173.524 8.61356 173.688 8.22403 173.979 7.93683C174.27 7.64963 174.665 7.48828 175.077 7.48828H190.6C191.012 7.48828 191.407 7.64963 191.698 7.93683C191.989 8.22403 192.153 8.61356 192.153 9.01972C192.153 9.42588 191.989 9.81541 191.698 10.1026C191.407 10.3898 191.012 10.5512 190.6 10.5512Z" fill="#CCCCCC"/>
<path d="M224.365 45.0087H175.077C174.665 45.0087 174.27 44.8473 173.979 44.5601C173.688 44.2729 173.524 43.8834 173.524 43.4772C173.524 43.0711 173.688 42.6815 173.979 42.3943C174.27 42.1071 174.665 41.9458 175.077 41.9458H224.365C224.776 41.9458 225.171 42.1071 225.462 42.3943C225.753 42.6815 225.917 43.0711 225.917 43.4772C225.917 43.8834 225.753 44.2729 225.462 44.5601C225.171 44.8473 224.776 45.0087 224.365 45.0087Z" fill="#CCCCCC"/>
<path d="M183.807 35.3407C189.556 35.3407 194.215 30.7436 194.215 25.0728C194.215 19.402 189.556 14.8049 183.807 14.8049C178.059 14.8049 173.399 19.402 173.399 25.0728C173.399 30.7436 178.059 35.3407 183.807 35.3407Z" fill="#FF7A73"/>
<path d="M175.853 74.2544H173.524V75.0201H175.853V74.2544Z" fill="#3F3D56"/>
<path d="M244.223 75.0201H239.339V74.2544H244.223V75.0201ZM234.456 75.0201H229.572V74.2544H234.456V75.0201ZM224.688 75.0201H219.805V74.2544H224.688V75.0201ZM214.921 75.0201H210.038V74.2544H214.921L214.921 75.0201ZM205.154 75.0201H200.271V74.2544H205.154V75.0201ZM195.387 75.0201H190.504V74.2544H195.387L195.387 75.0201ZM185.62 75.0201H180.736V74.2544H185.62V75.0201Z" fill="#3F3D56"/>
<path d="M251.435 74.2544H249.106V75.0201H251.435V74.2544Z" fill="#3F3D56"/>
<path d="M213.047 60.7058H211.107V73.723H213.047V60.7058Z" fill="#FF7A73"/>
<path d="M232.84 60.7058H230.899V73.723H232.84V60.7058Z" fill="#FF7A73"/>
<path d="M242.542 67.9802H240.602V73.7231H242.542V67.9802Z" fill="#FF7A73"/>
<path d="M222.75 54.9629H220.809V73.723H222.75V54.9629Z" fill="#FF7A73"/>
<path d="M34.9118 86.7403C36.1979 86.7403 37.2404 85.7118 37.2404 84.4432C37.2404 83.1745 36.1979 82.146 34.9118 82.146C33.6258 82.146 32.5833 83.1745 32.5833 84.4432C32.5833 85.7118 33.6258 86.7403 34.9118 86.7403Z" fill="#FF7A73"/>
<path d="M41.1213 75.6373C42.4073 75.6373 43.4499 74.6088 43.4499 73.3401C43.4499 72.0714 42.4073 71.043 41.1213 71.043C39.8353 71.043 38.7927 72.0714 38.7927 73.3401C38.7927 74.6088 39.8353 75.6373 41.1213 75.6373Z" fill="#FF7A73"/>
<path d="M109.426 66.8316C110.712 66.8316 111.755 65.8031 111.755 64.5345C111.755 63.2658 110.712 62.2373 109.426 62.2373C108.14 62.2373 107.097 63.2658 107.097 64.5345C107.097 65.8031 108.14 66.8316 109.426 66.8316Z" fill="#FF7A73"/>
<path d="M55.9751 228.746L59.4874 228.745L61.1581 215.381L55.9744 215.381L55.9751 228.746Z" fill="#FFB6B6"/>
<path d="M55.8515 232.36L66.6519 232.36V232.225C66.6519 231.125 66.2089 230.07 65.4206 229.293C64.6322 228.515 63.563 228.078 62.4481 228.078H62.4478L60.475 226.602L56.7941 228.078L55.8513 228.078L55.8515 232.36Z" fill="#2F2E41"/>
<path d="M82.3658 228.746L85.878 228.745L87.5488 215.381L82.365 215.381L82.3658 228.746Z" fill="#FFB6B6"/>
<path d="M82.2421 232.36L93.0426 232.36V232.225C93.0425 231.125 92.5996 230.07 91.8112 229.293C91.0229 228.515 89.9536 228.078 88.8387 228.078H88.8385L86.8656 226.602L83.1848 228.078L82.2419 228.078L82.2421 232.36Z" fill="#2F2E41"/>
<path d="M55.8386 120.029L62.0717 119.148C64.1798 122.625 64.9289 131.881 64.9289 131.881L71.0289 146.184C71.4329 146.455 71.7575 146.826 71.9699 147.26C72.1824 147.693 72.2753 148.175 72.2393 148.655C72.2033 149.136 72.0396 149.598 71.7647 149.996C71.4899 150.395 71.1135 150.714 70.6735 150.924C70.2336 151.133 69.7456 151.224 69.2586 151.188C68.7716 151.151 68.3028 150.989 67.8995 150.718C67.4962 150.446 67.1725 150.075 66.9611 149.64C66.7496 149.206 66.6579 148.724 66.6951 148.244L56.6795 131.596L55.8386 120.029Z" fill="#FFB6B6"/>
<path d="M59.217 102.958C58.2523 103.105 57.3323 103.46 56.5226 103.998C55.7128 104.536 55.0332 105.244 54.5322 106.07C54.0311 106.897 53.7208 107.822 53.6235 108.781C53.5261 109.739 53.644 110.707 53.9688 111.615L55.2915 115.313C55.2915 115.313 53.6253 126.45 56.3713 129.593L64.7973 128.841C64.7973 128.841 63.2567 123.222 64.4394 120.504C65.1638 118.839 65.1235 113.089 64.4098 108.412C63.8649 104.84 62.8352 102.405 59.217 102.958Z" fill="#3F3D56"/>
<path d="M88.2747 136.512C88.2747 136.512 94.7694 142.761 93.3825 144.204C91.9955 145.647 88.823 147.669 91.7676 147.998C94.7121 148.327 95.9337 149.041 93.3825 149.641C90.8312 150.241 91.2255 151.783 91.2255 151.783C91.2255 151.783 95.0664 169.821 92.1556 181.689C92.1556 181.689 90.5357 214.107 89.5192 216.631C88.5026 219.156 88.1145 217.625 88.5026 219.156C88.8907 220.687 89.6669 218.007 88.8907 220.687C88.4672 222.087 88.1318 223.512 87.8866 224.952L80.2946 223.804C80.2946 223.804 79.0722 220.003 80.2946 219.005C81.5169 218.007 82.6134 218.622 81.289 216.401C79.9646 214.179 79.5765 217.242 79.9646 214.179C80.3526 211.116 78.7325 194.551 81.289 185.796L76.5646 161.231L69.064 186.667C69.064 186.667 65.0856 217.732 63.7929 218.827C62.5003 219.922 60.5598 218.007 62.5003 219.922C64.4408 221.836 64.4069 221.507 64.4408 221.836C64.8022 225.348 53.6912 221.507 53.6912 221.507C53.753 220.614 53.753 219.719 53.6912 218.827C53.5741 218.007 54.9725 217.745 53.6912 216.919C52.4098 216.093 54.3164 216.912 54.3164 216.912C54.3164 216.912 57.1817 193.994 59.3616 187.049L61.8843 153.229C61.8843 153.229 62.0444 153.904 61.8843 152.264C61.7241 150.624 60.5598 151.773 61.7241 150.624C62.8884 149.476 63.6646 148.89 62.8884 148.034C62.1122 147.178 59.971 145.447 61.2357 144.398C62.5003 143.35 64.989 136.512 64.989 136.512L89.2449 136.703" fill="#2F2E41"/>
<path d="M79.155 98.5423L74.7814 93.6841L67.8706 94.4416L63.4461 100.55C61.091 101.084 59.0329 102.488 57.6954 104.474C56.3578 106.459 55.8425 108.875 56.2554 111.224C57.9724 120.977 63.8073 130.437 61.8806 135.249C58.956 142.554 58.7775 145.534 65.7784 144.509C72.7793 143.485 96.2336 141.124 91.6863 136.638C87.1391 132.152 86.1403 124.656 86.1403 124.656L85.9579 107.506C86.1513 106.472 86.1255 105.409 85.8823 104.385C85.6391 103.361 85.1837 102.398 84.5447 101.556C83.9057 100.714 83.0969 100.011 82.1694 99.4928C81.2418 98.9742 80.2155 98.6506 79.155 98.5423Z" fill="#3F3D56"/>
<path d="M77.9602 117.349L84.1933 116.468C86.3013 119.945 87.0505 129.201 87.0505 129.201L93.1505 143.504C93.5545 143.775 93.879 144.146 94.0915 144.579C94.304 145.013 94.3969 145.495 94.3609 145.975C94.3249 146.455 94.1612 146.918 93.8863 147.316C93.6115 147.714 93.2351 148.034 92.7951 148.243C92.3552 148.452 91.8671 148.544 91.3802 148.507C90.8932 148.471 90.4244 148.309 90.0211 148.038C89.6178 147.766 89.2941 147.394 89.0827 146.96C88.8712 146.526 88.7795 146.044 88.8167 145.564L78.801 128.916L77.9602 117.349Z" fill="#FFB6B6"/>
<path d="M81.3384 100.278C80.3736 100.425 79.4536 100.78 78.6439 101.318C77.8342 101.856 77.1546 102.564 76.6535 103.39C76.1524 104.217 75.8422 105.142 75.7448 106.101C75.6474 107.059 75.7653 108.027 76.0901 108.935L77.4129 112.633C77.4129 112.633 75.7467 123.77 78.4926 126.913L86.9186 126.161C86.9186 126.161 85.3781 120.542 86.5608 117.824C87.2851 116.159 87.2449 110.409 86.5312 105.732C85.9862 102.16 84.9565 99.7249 81.3384 100.278Z" fill="#3F3D56"/>
<path d="M69.4255 93.2659C74.0388 93.2659 77.7786 89.5765 77.7786 85.0255C77.7786 80.4745 74.0388 76.7852 69.4255 76.7852C64.8123 76.7852 61.0725 80.4745 61.0725 85.0255C61.0725 89.5765 64.8123 93.2659 69.4255 93.2659Z" fill="#FFB6B6"/>
<path d="M67.8892 93.092C70.2156 92.517 70.2948 91.8611 72.6212 91.2862C73.362 91.1031 74.2202 90.8147 74.4398 90.0931C74.4919 89.8292 74.4812 89.557 74.4086 89.2979C74.336 89.0387 74.2035 88.7997 74.0214 88.5997C73.6549 88.2036 73.3115 87.7873 72.993 87.3527C72.782 87.0037 72.6603 86.6092 72.6385 86.2033C72.6167 85.7975 72.6955 85.3925 72.8679 85.0234C73.0403 84.6543 73.3012 84.3322 73.6281 84.0848C73.955 83.8375 74.3381 83.6724 74.7441 83.6039C75.4638 83.4824 76.2058 83.6705 76.9301 83.5795C77.9234 83.4547 79.3844 79.8191 78.7476 79.0567C78.1278 78.3147 77.1104 77.8719 76.7686 76.9714C76.545 76.3825 76.6672 75.7239 76.5677 75.1028C76.42 74.1817 74.5308 76.7318 74.7823 75.833C75.3991 73.628 64.962 73.2807 63.8754 76.1096C63.4693 77.1668 62.3699 77.3348 61.5243 78.0979C60.9701 78.5981 59.6445 80.1987 59.4523 81.0613C59.2931 81.9335 59.3238 82.8292 59.5422 83.6889C60.409 87.7189 61.8417 91.2905 65.6552 92.9694" fill="#2F2E41"/>
<path d="M2.01886 232.882L153.269 233C153.33 233 153.39 232.989 153.447 232.966C153.503 232.943 153.554 232.909 153.597 232.867C153.64 232.825 153.674 232.774 153.697 232.719C153.721 232.664 153.733 232.604 153.733 232.544C153.733 232.484 153.721 232.425 153.697 232.369C153.674 232.314 153.64 232.264 153.597 232.221C153.554 232.179 153.503 232.146 153.447 232.123C153.39 232.1 153.33 232.088 153.269 232.088L2.01886 231.971C1.95806 231.971 1.89783 231.982 1.84161 232.005C1.78539 232.028 1.73429 232.061 1.69124 232.104C1.64819 232.146 1.61403 232.196 1.59073 232.252C1.56742 232.307 1.55542 232.367 1.55542 232.427C1.55542 232.487 1.56742 232.546 1.59073 232.601C1.61403 232.657 1.64819 232.707 1.69124 232.749C1.73429 232.792 1.78539 232.825 1.84161 232.848C1.89783 232.871 1.95806 232.883 2.01886 232.882Z" fill="#CACACA"/>
</g>
<defs>
<clipPath id="clip0_40_1678">
<rect width="271" height="233" fill="white"/>
</clipPath>
</defs>
</svg>
