<svg width="213" height="199" viewBox="0 0 213 199" fill="none" xmlns="http://www.w3.org/2000/svg">
<g clip-path="url(#clip0_49_135)">
<path d="M196.898 152.241L206.453 153.733C209.688 149.821 211.917 145.179 212.949 140.211C205.961 145.924 195.336 142.888 186.864 146.007C184.229 147 181.851 148.573 179.908 150.609C177.964 152.644 176.503 155.091 175.635 157.767L170.965 162.786C175.192 164.457 179.732 165.194 184.271 164.944C188.811 164.694 193.242 163.465 197.26 161.339C199.502 160.125 201.582 158.633 203.451 156.9C200.108 154.797 196.898 152.241 196.898 152.241Z" fill="#F2F2F2"/>
<path d="M193.506 136.975L202.724 134.053C203.873 129.111 203.796 123.964 202.501 119.058C198.798 127.284 187.932 129.3 181.742 135.866C179.827 137.929 178.401 140.395 177.57 143.083C176.739 145.771 176.524 148.612 176.942 151.394L175.003 157.966C179.532 157.579 183.924 156.216 187.876 153.97C191.827 151.724 195.245 148.65 197.892 144.958C199.357 142.872 200.553 140.61 201.451 138.225C197.52 137.833 193.506 136.975 193.506 136.975Z" fill="#F2F2F2"/>
<path d="M213 165.826C213 165.875 212.991 165.924 212.972 165.969C212.953 166.015 212.925 166.056 212.89 166.091C212.856 166.126 212.814 166.153 212.769 166.172C212.723 166.191 212.674 166.201 212.625 166.2H0.375139C0.275647 166.2 0.180227 166.161 0.109875 166.091C0.0395229 166.02 0 165.925 0 165.826C0 165.726 0.0395229 165.631 0.109875 165.561C0.180227 165.49 0.275647 165.451 0.375139 165.451H212.625C212.674 165.451 212.723 165.46 212.769 165.479C212.814 165.498 212.856 165.526 212.89 165.56C212.925 165.595 212.953 165.637 212.972 165.682C212.991 165.728 213 165.776 213 165.826Z" fill="#CCCCCC"/>
<path d="M87.952 149.85C125.384 149.85 155.729 119.538 155.729 82.1466C155.729 44.755 125.384 14.4431 87.952 14.4431C50.5197 14.4431 20.1748 44.755 20.1748 82.1466C20.1748 119.538 50.5197 149.85 87.952 149.85Z" fill="#E6E6E6"/>
<path d="M146.272 82.1466C146.279 91.2368 144.153 100.202 140.065 108.323C135.977 116.445 130.041 123.496 122.733 128.912C122.244 129.278 121.746 129.633 121.245 129.98C111.472 136.766 99.8542 140.403 87.952 140.403C76.0497 140.403 64.4323 136.766 54.6592 129.98C54.1579 129.633 53.6599 129.278 53.1712 128.912C45.8679 123.492 39.9354 116.439 35.8481 108.319C31.7608 100.198 29.6321 91.2355 29.6321 82.1466C29.6321 73.0577 31.7608 64.0948 35.8481 55.9745C39.9354 47.8541 45.8679 40.8017 53.1712 35.3808C53.6599 35.0155 54.1579 34.6597 54.6592 34.3133C64.4323 27.5273 76.0497 23.8901 87.952 23.8901C99.8542 23.8901 111.472 27.5273 121.245 34.3133C121.746 34.6597 122.244 35.0155 122.733 35.3808C130.041 40.7969 135.977 47.8484 140.065 55.9698C144.153 64.0912 146.279 73.0564 146.272 82.1466Z" fill="white"/>
<path d="M87.952 135.365C117.376 135.365 141.228 111.538 141.228 82.1465C141.228 52.755 117.376 28.9285 87.952 28.9285C58.5285 28.9285 34.676 52.755 34.676 82.1465C34.676 111.538 58.5285 135.365 87.952 135.365Z" fill="#FF7A73"/>
<path opacity="0.2" d="M88.091 29.0774C87.2833 29.0774 86.4807 29.0985 85.6818 29.134C99.147 30.316 111.659 36.5666 120.683 46.6196C129.707 56.6725 134.568 69.7761 134.281 83.2754C133.994 96.7748 128.581 109.66 119.138 119.322C109.695 128.983 96.9291 134.698 83.4258 135.308C84.9635 135.441 86.5187 135.514 88.091 135.514C102.221 135.514 115.772 129.907 125.763 119.926C135.754 109.946 141.367 96.4098 141.367 82.2955C141.367 68.1812 135.754 54.6449 125.763 44.6646C115.772 34.6843 102.221 29.0774 88.091 29.0774V29.0774Z" fill="black"/>
<path d="M88.1096 25.1497C87.65 25.1505 87.2094 25.3332 86.8844 25.6578C86.5595 25.9825 86.3765 26.4225 86.3757 26.8816V34.4392C86.3757 34.8985 86.5584 35.3391 86.8836 35.6639C87.2087 35.9887 87.6497 36.1712 88.1096 36.1712C88.5694 36.1712 89.0104 35.9887 89.3356 35.6639C89.6607 35.3391 89.8434 34.8985 89.8434 34.4392V26.8816C89.8426 26.4225 89.6597 25.9825 89.3347 25.6578C89.0097 25.3332 88.5692 25.1505 88.1096 25.1497Z" fill="white"/>
<path d="M122.733 35.3807C122.244 35.0155 121.746 34.6596 121.245 34.3132C120.944 34.2937 120.643 34.3528 120.372 34.4848C120.101 34.6167 119.87 34.817 119.7 35.0658L115.441 41.3103C115.182 41.6899 115.085 42.1566 115.171 42.6078C115.257 43.059 115.518 43.4577 115.898 43.7161C116.278 43.9746 116.745 44.0717 117.197 43.9861C117.649 43.9005 118.048 43.6391 118.307 43.2595L122.566 37.0151C122.728 36.7782 122.828 36.5046 122.857 36.2191C122.886 35.9337 122.843 35.6455 122.733 35.3807Z" fill="white"/>
<path d="M142.082 63.854C141.997 63.6435 141.87 63.4519 141.711 63.2901C141.551 63.1284 141.361 62.9997 141.151 62.9114C140.941 62.823 140.716 62.7769 140.489 62.7754C140.262 62.774 140.036 62.8174 139.825 62.903L132.814 65.7466C132.389 65.9198 132.049 66.2546 131.871 66.6776C131.692 67.1005 131.689 67.577 131.862 68.0023C132.035 68.4275 132.37 68.7668 132.793 68.9455C133.217 69.1243 133.693 69.1278 134.119 68.9554L141.13 66.1119C141.556 65.9378 141.895 65.6025 142.073 65.1794C142.252 64.7562 142.255 64.2797 142.082 63.854Z" fill="white"/>
<path d="M60.4629 41.3103L56.204 35.0658C56.0342 34.817 55.8025 34.6167 55.5316 34.4848C55.2607 34.3528 54.96 34.2937 54.6593 34.3132C54.158 34.6596 53.6599 35.0155 53.1713 35.3807C53.0606 35.6455 53.0178 35.9337 53.047 36.2191C53.0762 36.5046 53.1764 36.7782 53.3384 37.0151L57.5973 43.2595C57.8561 43.6391 58.2552 43.9005 58.7069 43.9861C59.1586 44.0717 59.6258 43.9746 60.0058 43.7161C60.3858 43.4577 60.6474 43.059 60.7331 42.6078C60.8189 42.1566 60.7216 41.6899 60.4629 41.3103Z" fill="white"/>
<path d="M43.0898 65.7467L36.0788 62.9031C35.6528 62.7303 35.1756 62.7336 34.7521 62.9123C34.3286 63.091 33.9934 63.4303 33.8204 63.8558C33.6473 64.2813 33.6505 64.758 33.8293 65.1811C34.0081 65.6042 34.3478 65.939 34.7737 66.1119L41.7847 68.9555C42.2106 69.1279 42.6875 69.1243 43.1108 68.9456C43.534 68.7668 43.869 68.4276 44.0419 68.0023C44.2149 67.577 44.2118 67.1006 44.0332 66.6776C43.8547 66.2547 43.5153 65.9198 43.0898 65.7466V65.7467Z" fill="white"/>
<path d="M88.1096 128.122C87.65 128.123 87.2094 128.306 86.8844 128.63C86.5595 128.955 86.3765 129.395 86.3757 129.854V137.412C86.3757 137.871 86.5584 138.311 86.8836 138.636C87.2087 138.961 87.6497 139.144 88.1096 139.144C88.5694 139.144 89.0104 138.961 89.3356 138.636C89.6607 138.311 89.8434 137.871 89.8434 137.412V129.854C89.8426 129.395 89.6597 128.955 89.3347 128.63C89.0097 128.306 88.5692 128.123 88.1096 128.122Z" fill="white"/>
<path d="M122.566 127.278L118.307 121.034C118.178 120.846 118.015 120.685 117.824 120.56C117.634 120.435 117.421 120.349 117.197 120.307C116.973 120.265 116.744 120.267 116.521 120.313C116.298 120.359 116.086 120.449 115.898 120.577C115.71 120.705 115.549 120.869 115.424 121.059C115.299 121.249 115.213 121.462 115.171 121.685C115.128 121.909 115.13 122.138 115.177 122.361C115.223 122.584 115.313 122.795 115.441 122.983L119.7 129.227C119.87 129.476 120.101 129.676 120.372 129.808C120.643 129.94 120.944 129.999 121.245 129.98C121.746 129.633 122.244 129.278 122.733 128.912C122.843 128.648 122.886 128.359 122.857 128.074C122.828 127.789 122.728 127.515 122.566 127.278Z" fill="white"/>
<path d="M141.13 98.1812L134.119 95.3377C133.693 95.1649 133.216 95.1682 132.793 95.3469C132.369 95.5255 132.034 95.8649 131.861 96.2904C131.688 96.7158 131.691 97.1925 131.87 97.6156C132.049 98.0387 132.388 98.3736 132.814 98.5465L139.825 101.39C140.251 101.562 140.728 101.559 141.151 101.38C141.575 101.201 141.909 100.862 142.082 100.437C142.255 100.012 142.252 99.5352 142.074 99.1122C141.895 98.6892 141.556 98.3544 141.13 98.1812V98.1812Z" fill="white"/>
<path d="M60.0058 120.577C59.6257 120.319 59.1585 120.222 58.7069 120.307C58.2553 120.393 57.8562 120.654 57.5973 121.034L53.3384 127.278C53.1764 127.515 53.0762 127.789 53.047 128.074C53.0178 128.36 53.0606 128.648 53.1713 128.912C53.6599 129.278 54.158 129.634 54.6593 129.98C54.96 130 55.2607 129.94 55.5316 129.808C55.8025 129.676 56.0342 129.476 56.204 129.227L60.4629 122.983C60.591 122.795 60.6809 122.584 60.7272 122.361C60.7736 122.138 60.7756 121.909 60.7332 121.685C60.6907 121.462 60.6046 121.249 60.4798 121.059C60.355 120.869 60.1939 120.705 60.0058 120.577Z" fill="white"/>
<path d="M44.0419 96.2889C43.9562 96.0783 43.8299 95.8867 43.6701 95.7249C43.5103 95.5632 43.3202 95.4345 43.1106 95.3462C42.9009 95.2579 42.676 95.2117 42.4485 95.2102C42.221 95.2088 41.9954 95.2522 41.7847 95.3379L34.7737 98.1814C34.3482 98.3546 34.0088 98.6894 33.8303 99.1124C33.6518 99.5354 33.6486 100.012 33.8216 100.437C33.9946 100.862 34.3295 101.202 34.7527 101.38C35.176 101.559 35.653 101.563 36.0788 101.39L43.0898 98.5467C43.5152 98.3726 43.8542 98.0373 44.0326 97.6142C44.2111 97.191 44.2144 96.7145 44.0419 96.2889Z" fill="white"/>
<path d="M90.3592 81.2872C90.5193 82.2339 90.2969 83.2053 89.7408 83.9884C89.1848 84.7716 88.3405 85.3024 87.3931 85.4645L56.626 90.6922C56.1567 90.772 55.6762 90.7586 55.2121 90.6529C54.7479 90.5471 54.3091 90.3511 53.9208 90.076C53.5325 89.8009 53.2022 89.452 52.9489 89.0494C52.6955 88.6468 52.524 88.1982 52.4442 87.7294C52.3643 87.2606 52.3777 86.7806 52.4836 86.317C52.5894 85.8533 52.7857 85.415 53.0611 85.0271C53.3365 84.6392 53.6857 84.3093 54.0888 84.0562C54.4918 83.8031 54.9409 83.6318 55.4102 83.5521L86.1773 78.3243C87.125 78.1644 88.0975 78.3865 88.8815 78.942C89.6655 79.4974 90.1969 80.3408 90.3592 81.2872Z" fill="#3F3D56"/>
<path d="M122.741 115.338C122.299 115.782 121.699 116.033 121.072 116.035C120.445 116.037 119.843 115.791 119.397 115.351L86.2769 82.526C85.8324 82.0847 85.5815 81.4852 85.5794 80.8592C85.5772 80.2332 85.8239 79.632 86.2653 79.1876C86.7067 78.7432 87.3066 78.492 87.9333 78.4893C88.5599 78.4865 89.1621 78.7324 89.6073 79.1729L122.728 111.998C123.172 112.439 123.423 113.039 123.426 113.665C123.428 114.291 123.182 114.893 122.741 115.338Z" fill="#3F3D56"/>
<path d="M87.9519 86.2404C90.2153 86.2404 92.0501 84.4076 92.0501 82.1467C92.0501 79.8858 90.2153 78.053 87.9519 78.053C85.6886 78.053 83.8538 79.8858 83.8538 82.1467C83.8538 84.4076 85.6886 86.2404 87.9519 86.2404Z" fill="#CCCCCC"/>
<path d="M59.7239 11.1615C53.4333 21.0407 43.8353 27.597 31.9984 31.9041C31.7645 32.0791 31.4984 32.2063 31.2153 32.2786C30.9322 32.3508 30.6375 32.3667 30.3483 32.3252C30.059 32.2837 29.7808 32.1857 29.5294 32.0369C29.2781 31.888 29.0585 31.6911 28.8833 31.4574C22.4537 22.8819 23.9055 10.6258 32.3913 4.07314C34.4429 2.49168 36.7885 1.33305 39.292 0.664525C41.7955 -0.00399993 44.407 -0.16911 46.9749 0.178784C49.5428 0.526679 52.0159 1.38064 54.2507 2.69111C56.4855 4.00157 58.4375 5.74242 59.9933 7.8126L60.1711 8.04979C60.3463 8.28344 60.4737 8.54926 60.546 8.83208C60.6183 9.11491 60.6342 9.40919 60.5927 9.69814C60.5512 9.98709 60.4531 10.265 60.304 10.5161C60.155 10.7672 59.9578 10.9865 59.7239 11.1615Z" fill="#E6E6E6"/>
<path d="M115.911 7.8126C117.467 5.74242 119.419 4.00157 121.653 2.6911C123.888 1.38064 126.361 0.52668 128.929 0.178785C131.497 -0.169109 134.109 -0.00400339 136.612 0.664522C139.116 1.33305 141.461 2.49167 143.513 4.07313C151.999 10.6258 153.45 22.8819 147.021 31.4574C146.846 31.6911 146.626 31.888 146.375 32.0368C146.123 32.1857 145.845 32.2837 145.556 32.3252C145.267 32.3667 144.972 32.3508 144.689 32.2786C144.406 32.2063 144.14 32.0791 143.906 31.9041C132.917 27.7016 123.906 20.4293 116.18 11.1615C115.708 10.8081 115.395 10.2817 115.311 9.69813C115.228 9.11457 115.379 8.52165 115.733 8.04978L115.911 7.8126Z" fill="#E6E6E6"/>
<path d="M113.154 140.802C112.753 141.027 112.458 141.402 112.333 141.844C112.208 142.285 112.264 142.759 112.487 143.16L122.494 161.022C122.718 161.422 123.093 161.718 123.536 161.842C123.978 161.967 124.452 161.911 124.853 161.687C125.254 161.463 125.55 161.088 125.675 160.646C125.8 160.204 125.744 159.731 125.52 159.33L115.513 141.468C115.288 141.068 114.913 140.773 114.471 140.648C114.029 140.524 113.555 140.579 113.154 140.802Z" fill="#E6E6E6"/>
<path d="M60.3908 141.468L50.3844 159.33C50.16 159.731 50.1041 160.204 50.2291 160.646C50.3541 161.088 50.6497 161.463 51.051 161.687C51.4522 161.911 51.9262 161.967 52.3686 161.842C52.8111 161.717 53.1859 161.422 53.4105 161.022L63.4169 143.16C63.5281 142.961 63.5992 142.743 63.6259 142.517C63.6526 142.291 63.6345 142.062 63.5727 141.843C63.5108 141.624 63.4064 141.419 63.2654 141.241C63.1243 141.062 62.9495 140.913 62.7507 140.802C62.552 140.691 62.3333 140.62 62.1072 140.593C61.881 140.567 61.6518 140.585 61.4327 140.647C61.2135 140.709 61.0087 140.813 60.83 140.954C60.6512 141.095 60.502 141.27 60.3908 141.468H60.3908Z" fill="#E6E6E6"/>
<path d="M124.52 165.595C127.48 165.595 129.879 163.198 129.879 160.242C129.879 157.285 127.48 154.888 124.52 154.888C121.56 154.888 119.161 157.285 119.161 160.242C119.161 163.198 121.56 165.595 124.52 165.595Z" fill="#E6E6E6"/>
<path d="M128.303 28.6136C131.263 28.6136 133.662 26.2168 133.662 23.2603C133.662 20.3037 131.263 17.907 128.303 17.907C125.343 17.907 122.944 20.3037 122.944 23.2603C122.944 26.2168 125.343 28.6136 128.303 28.6136Z" fill="#E6E6E6"/>
<path d="M87.6367 16.0176C90.5965 16.0176 92.9958 13.6209 92.9958 10.6643C92.9958 7.70779 90.5965 5.31104 87.6367 5.31104C84.6769 5.31104 82.2776 7.70779 82.2776 10.6643C82.2776 13.6209 84.6769 16.0176 87.6367 16.0176Z" fill="#E6E6E6"/>
<path d="M48.8618 27.9839C51.8216 27.9839 54.2209 25.5872 54.2209 22.6306C54.2209 19.6741 51.8216 17.2773 48.8618 17.2773C45.902 17.2773 43.5027 19.6741 43.5027 22.6306C43.5027 25.5872 45.902 27.9839 48.8618 27.9839Z" fill="#E6E6E6"/>
<path d="M52.3296 165.595C55.2893 165.595 57.6887 163.198 57.6887 160.242C57.6887 157.285 55.2893 154.888 52.3296 154.888C49.3698 154.888 46.9705 157.285 46.9705 160.242C46.9705 163.198 49.3698 165.595 52.3296 165.595Z" fill="#E6E6E6"/>
<path d="M120.316 112.327C120.528 112.657 120.809 112.938 121.14 113.148C121.472 113.358 121.845 113.493 122.234 113.543C122.623 113.593 123.019 113.558 123.393 113.439C123.767 113.32 124.11 113.121 124.399 112.855L132.808 117.356L132.357 112.424L124.441 108.906C123.962 108.452 123.332 108.188 122.672 108.166C122.011 108.144 121.366 108.365 120.857 108.787C120.349 109.208 120.013 109.802 119.913 110.454C119.814 111.107 119.957 111.773 120.316 112.327H120.316Z" fill="#FFB7B7"/>
<path d="M126.444 114.048L129.739 109.504L145.615 117.001L165.37 113.298C166.346 113.115 167.351 113.149 168.313 113.398C169.275 113.646 170.17 114.103 170.935 114.736C171.701 115.369 172.317 116.163 172.74 117.061C173.164 117.958 173.385 118.938 173.387 119.931C173.388 121.723 172.677 123.443 171.411 124.713C170.144 125.983 168.425 126.699 166.631 126.704L143.991 126.746L126.444 114.048Z" fill="#3F3D56"/>
<path d="M121.368 192.529L118.034 190.937L122.614 177.016L127.534 179.367L121.368 192.529Z" fill="#FFB7B7"/>
<path d="M143.721 190.285C143.478 190.437 143.236 190.586 142.991 190.735C142.504 191.034 142.011 191.327 141.519 191.616C141.272 191.76 141.022 191.905 140.774 192.047V192.054L140.76 192.056L140.755 192.059L140.378 192.152L139.837 190.723L139.587 190.065L139.234 189.133L138.588 187.428L135.183 178.45L140.476 177.146L140.674 177.956H140.677L140.774 178.357L142.624 185.848L143.001 187.379L143.013 187.425L143.241 188.34L143.437 189.133L143.655 190.019L143.721 190.285Z" fill="#FFB7B7"/>
<path d="M175.292 158.756C174.956 159.294 174.613 159.83 174.268 160.361C173.626 161.349 172.968 162.323 172.292 163.282C172.292 163.284 172.289 163.284 172.287 163.287C171.892 163.652 171.457 163.969 170.989 164.233C170.969 164.248 170.947 164.258 170.928 164.27C170.583 164.46 170.216 164.607 169.835 164.708C169.698 164.742 169.559 164.777 169.421 164.811C168.927 164.928 168.437 165.028 167.95 165.117C167.083 165.271 166.225 165.381 165.373 165.449C165.305 165.457 165.236 165.461 165.167 165.466C161.663 165.723 158.251 165.31 154.69 164.632C152.932 164.299 151.137 163.901 149.278 163.487C148.671 163.35 148.061 163.216 147.444 163.081C147.397 163.071 147.348 163.059 147.299 163.049C146.418 162.856 145.521 162.665 144.603 162.477C143.447 162.24 142.254 162.01 141.015 161.792L141.103 163.536C141.177 164.878 141.456 166.201 141.931 167.458C142.46 169.004 142.879 170.227 141.995 172.774L141.569 174.007C141.789 174.619 141.865 175.274 141.79 175.92C141.715 176.567 141.491 177.187 141.135 177.732L141.049 177.862L144.603 186.843L144.833 187.425H143.013L140.775 187.427H136.981L131.508 176.458L131.246 175.934V175.908L131.812 154.827C131.819 154.641 131.834 154.453 131.858 154.267C131.958 153.422 132.225 152.605 132.644 151.864C133.064 151.123 133.626 150.473 134.3 149.951C134.945 149.448 135.684 149.077 136.474 148.861C137.264 148.645 138.089 148.589 138.902 148.694L140.775 148.936L144.603 149.43L147.299 149.78L147.353 149.788L155.305 150.815L155.876 148.491L155.981 148.452L159.329 147.226L170.908 142.987L170.937 142.977L171.699 142.698L171.79 142.845C171.817 142.889 171.844 142.933 171.868 142.977C172.621 144.325 173.234 145.746 173.697 147.219C174.477 149.624 175.119 152.072 175.62 154.551C175.642 154.658 175.662 154.756 175.679 154.844L175.686 154.871C175.693 154.913 175.698 154.94 175.701 154.947C175.968 156.058 175.782 157.413 175.292 158.756Z" fill="#2F2E41"/>
<path d="M175.78 150.987C175.744 150.831 175.697 150.672 175.648 150.517C175.259 149.35 174.806 148.205 174.291 147.088C173.713 145.815 173.02 144.453 172.195 142.978C171.796 142.263 171.366 141.52 170.907 140.749C170.677 140.363 170.437 139.969 170.189 139.567C170.18 139.549 170.169 139.531 170.157 139.514L170.086 139.396L158.63 140.928L154.364 141.498L154.109 143.621L154.048 144.147C154.045 144.147 154.045 144.147 154.048 144.15L153.876 145.583V145.586L153.649 147.479L153.629 147.477L147.298 146.657L140.774 145.813L137.269 145.361C136.457 145.255 135.632 145.312 134.842 145.527C134.052 145.743 133.313 146.114 132.668 146.618C131.994 147.139 131.432 147.79 131.012 148.53C130.593 149.271 130.326 150.088 130.226 150.933C130.204 151.105 130.189 151.281 130.182 151.454L126.876 159.28C124.897 163.961 123.637 168.912 123.138 173.968L120.714 181.711L121.059 181.743L126.197 182.22L127.554 182.347L130.542 177.99C130.882 177.494 131.206 176.982 131.507 176.459C132.003 175.604 132.444 174.718 132.827 173.807L139.29 158.444C139.789 158.529 140.284 158.611 140.774 158.688C143.039 159.055 145.214 159.355 147.298 159.586C154.075 160.342 159.943 160.401 165.166 159.76C166.633 159.581 168.051 159.346 169.42 159.055C169.922 158.95 170.418 158.837 170.907 158.715C171.022 158.688 171.135 158.661 171.247 158.632C172.259 158.371 173.19 157.861 173.954 157.148C174.717 156.435 175.29 155.543 175.619 154.552C176.012 153.403 176.068 152.166 175.78 150.987Z" fill="#2F2E41"/>
<path d="M122.433 190.256L118.826 188.529L118.26 188.258L117.356 190.474L111.047 191.861C110.736 191.929 110.454 192.096 110.243 192.335C110.032 192.575 109.904 192.876 109.877 193.194C109.849 193.511 109.924 193.83 110.091 194.102C110.258 194.374 110.507 194.586 110.803 194.706L116.967 197.219L118.924 195.46L118.444 197.82L120.765 198.767L123.31 190.677L122.433 190.256Z" fill="#2F2E41"/>
<path d="M144.603 186.843L144.833 187.425H144.603V186.843Z" fill="#2F2E41"/>
<path d="M143.346 187.549L139.567 188.858L138.973 189.062L139.892 191.272L136.387 196.692C136.213 196.96 136.13 197.276 136.149 197.595C136.168 197.913 136.289 198.217 136.493 198.462C136.698 198.707 136.975 198.88 137.285 198.957C137.595 199.033 137.922 199.008 138.217 198.886L144.366 196.339L144.518 193.713L145.84 195.728L148.156 194.769L144.266 187.232L143.346 187.549Z" fill="#2F2E41"/>
<path d="M174.838 154.532C174.613 154.531 174.392 154.476 174.194 154.372L154.247 143.961L154.016 143.018L153.582 140.035L153.588 140.007L155.485 131.271C155.45 131.196 155.378 131.073 155.296 130.934C154.449 129.501 151.871 125.138 156.79 119.131L165.426 109.074L172.839 108.755L172.923 108.862C174.905 111.346 176.242 114.282 176.814 117.407C177.387 120.533 177.177 123.751 176.205 126.776L175.433 140.7L176.261 143.512C176.745 145.164 176.665 146.93 176.033 148.532L176.223 153.086C176.23 153.272 176.2 153.458 176.134 153.633C176.068 153.808 175.967 153.967 175.838 154.102C175.708 154.237 175.553 154.345 175.381 154.419C175.21 154.492 175.025 154.531 174.838 154.532L174.838 154.532Z" fill="#3F3D56"/>
<path d="M157.535 166.014C157.873 165.815 158.163 165.544 158.385 165.221C158.607 164.897 158.755 164.529 158.819 164.142C158.883 163.755 158.861 163.359 158.755 162.982C158.649 162.604 158.461 162.255 158.206 161.957L163.001 153.719L158.051 153.997L154.256 161.778C153.785 162.241 153.5 162.86 153.455 163.518C153.41 164.177 153.608 164.829 154.012 165.351C154.416 165.873 154.998 166.229 155.648 166.352C156.297 166.474 156.969 166.354 157.535 166.014L157.535 166.014Z" fill="#FFB7B7"/>
<path d="M159.471 159.958L155.039 156.51L163.092 140.922L160.074 121.071C159.925 120.09 159.994 119.088 160.276 118.136C160.558 117.185 161.047 116.307 161.707 115.565C162.367 114.823 163.182 114.235 164.095 113.844C165.008 113.452 165.996 113.266 166.989 113.299C168.782 113.36 170.478 114.129 171.705 115.437C172.931 116.746 173.588 118.487 173.531 120.279L172.785 142.881L159.471 159.958Z" fill="#3F3D56"/>
<path d="M160.672 104.895V97.5679C160.67 94.9641 161.704 92.4662 163.546 90.6239C165.388 88.7815 167.887 87.7456 170.494 87.7439C173.101 87.7422 175.601 88.775 177.446 90.615C179.29 92.455 180.327 94.9514 180.329 97.5552V97.5679C182.061 101.174 180.977 102.888 180.329 104.895C180.328 105.244 180.189 105.579 179.942 105.826C179.694 106.073 179.359 106.212 179.009 106.213H161.992C161.642 106.212 161.307 106.073 161.059 105.826C160.812 105.579 160.673 105.244 160.672 104.895Z" fill="#2F2E41"/>
<path d="M167.278 105.737C171.341 105.737 174.635 102.446 174.635 98.3877C174.635 94.329 171.341 91.0388 167.278 91.0388C163.215 91.0388 159.921 94.329 159.921 98.3877C159.921 102.446 163.215 105.737 167.278 105.737Z" fill="#FFB7B7"/>
<path d="M174.977 100.314C174.91 100.304 174.844 100.29 174.777 100.279C173.63 100.076 172.482 99.8761 171.338 99.6693L171.233 97.0787L169.846 99.3993C166.685 100.447 163.726 99.8551 160.943 98.5475C160.025 98.1122 159.135 97.6217 158.276 97.0787C158.51 95.6459 159.061 94.2835 159.89 93.0911C160.719 91.8986 161.804 90.9063 163.066 90.1868C163.172 90.1272 163.273 90.0747 163.379 90.022C163.379 90.022 163.38 90.0219 163.38 90.0218C163.381 90.0216 163.381 90.0213 163.381 90.021C163.382 90.0207 163.382 90.0203 163.382 90.0199C163.382 90.0194 163.382 90.019 163.382 90.0185C163.561 89.9344 163.744 89.8538 163.926 89.7802C165.355 89.2224 166.913 89.0812 168.418 89.3729C169.924 89.6645 171.316 90.3771 172.433 91.4278C174.679 93.5697 175.69 97.1067 174.977 100.314Z" fill="#2F2E41"/>
</g>
<defs>
<clipPath id="clip0_49_135">
<rect width="213" height="199" fill="white"/>
</clipPath>
</defs>
</svg>
