<svg width="211" height="184" viewBox="0 0 211 184" fill="none" xmlns="http://www.w3.org/2000/svg">
<g clip-path="url(#clip0_49_227)">
<path d="M34.9972 64.0538C34.5035 64.1036 34.0067 64.1151 33.5113 64.0885C33.4268 64.0792 33.3421 64.1035 33.2754 64.1561C33.2087 64.2088 33.1653 64.2855 33.1546 64.3697L32.2068 71.4787C32.1339 71.9948 31.9226 72.4815 31.5954 72.8871C31.3256 73.2099 31.125 73.5847 31.0062 73.9882C30.8873 74.3918 30.8527 74.8155 30.9044 75.233V87.3089C30.9044 87.3089 30.8433 88.919 32.0805 88.919C33.5612 89.1051 35.0594 89.1051 36.5401 88.919C36.5401 88.919 37.5307 88.7315 37.5307 87.2457V75.3553C37.6062 74.9404 37.5907 74.5141 37.4851 74.1059C37.3795 73.6976 37.1864 73.3172 36.9192 72.991C36.6029 72.5839 36.3985 72.1013 36.3261 71.5908L35.3416 64.3331C35.3304 64.2515 35.2886 64.1772 35.2246 64.1253C35.1607 64.0734 35.0793 64.0479 34.9972 64.0538Z" fill="white"/>
<path d="M34.3059 89.2619C33.5575 89.262 32.8099 89.2155 32.0673 89.1227C31.9014 89.1266 31.7364 89.0962 31.5828 89.0333C31.4292 88.9705 31.2903 88.8765 31.1747 88.7574C30.6713 88.2345 30.6992 87.3389 30.7007 87.301L30.7006 75.2453C30.648 74.8021 30.6864 74.3527 30.8133 73.9248C30.9403 73.4969 31.1532 73.0993 31.4389 72.7564C31.7419 72.38 31.9374 71.9286 32.0049 71.4502L32.9526 64.3427C32.971 64.206 33.042 64.0819 33.1504 63.9966C33.2588 63.9113 33.3962 63.8716 33.5334 63.8858C34.0147 63.9112 34.4972 63.8996 34.9767 63.851L34.9824 63.8505C35.1162 63.8408 35.2487 63.8824 35.353 63.9669C35.4572 64.0514 35.5253 64.1724 35.5435 64.3053L36.528 71.5635C36.5957 72.0382 36.786 72.4871 37.0801 72.8658C37.3634 73.212 37.5685 73.6153 37.6814 74.048C37.7944 74.4808 37.8125 74.9329 37.7345 75.3733V87.2456C37.7345 88.8813 36.5896 89.117 36.578 89.1192C35.8243 89.2142 35.0655 89.2619 34.3059 89.2619ZM33.4836 64.2911C33.4532 64.2896 33.4235 64.2995 33.4 64.3188C33.3766 64.338 33.3612 64.3653 33.3568 64.3954L32.4088 71.5056C32.3309 72.0587 32.1046 72.5803 31.754 73.015C31.5019 73.3169 31.3145 73.6672 31.2032 74.0444C31.0918 74.4215 31.059 74.8175 31.1067 75.2078L31.1082 75.2329V87.3088C31.1078 87.3238 31.0862 88.079 31.4693 88.4756C31.5486 88.5563 31.644 88.6194 31.7493 88.6606C31.8546 88.7019 31.9675 88.7205 32.0805 88.7152L32.1059 88.7168C33.5697 88.9005 35.0508 88.9005 36.5146 88.7168C36.534 88.712 37.3268 88.5312 37.3268 87.2456L37.3301 75.3187C37.4007 74.9329 37.3864 74.5364 37.2882 74.1567C37.19 73.777 37.0103 73.4233 36.7615 73.1201C36.4219 72.6839 36.2023 72.1666 36.1243 71.6194L35.1396 64.3603C35.1353 64.3306 35.12 64.3035 35.0968 64.2843C35.0736 64.2652 35.044 64.2555 35.014 64.2569C34.5111 64.3073 34.005 64.319 33.5003 64.292C33.4948 64.2914 33.4892 64.2911 33.4835 64.2911H33.4836Z" fill="#3F3D56"/>
<path d="M33.501 75.449H35.0032C35.6005 75.449 36.1734 75.6862 36.5957 76.1086C37.0181 76.531 37.2554 77.1038 37.2554 77.7011V83.3528C37.2554 83.9501 37.0181 84.523 36.5957 84.9453C36.1734 85.3677 35.6005 85.605 35.0032 85.605H33.501C32.9037 85.605 32.3308 85.3677 31.9084 84.9453C31.4861 84.523 31.2488 83.9501 31.2488 83.3528V77.7011C31.2488 77.4054 31.307 77.1125 31.4202 76.8393C31.5334 76.566 31.6993 76.3177 31.9084 76.1086C32.1176 75.8995 32.3659 75.7336 32.6391 75.6204C32.9124 75.5072 33.2052 75.449 33.501 75.449Z" fill="#FF7A73"/>
<path d="M5.88441 179.253H10.7818L13.1117 160.364L5.88354 160.364L5.88441 179.253Z" fill="#9F616A"/>
<path d="M4.63525 177.654L14.28 177.654H14.2804C15.9105 177.654 17.4738 178.301 18.6265 179.454C19.7791 180.606 20.4267 182.17 20.4268 183.8V183.999L4.63554 184L4.63525 177.654Z" fill="#2F2E41"/>
<path d="M2.80564 111.785C2.80564 111.785 0.683138 114.184 4.19768 123.536L3.57862 174.816L14.9682 174.594L17.4717 149.58L22.0299 113.078L2.80564 111.785Z" fill="#2F2E41"/>
<path d="M25.9361 118.875L25.8114 118.856C11.241 116.634 0.245947 114.504 0.136586 114.482L0 114.456L3.81951 105.166C3.78933 104.196 2.96255 76.937 4.54529 69.1054C6.07748 61.5239 13.2997 60.2814 14.1227 60.1645L14.9491 57.4265L25.3895 62.859L27.2104 69.1255L27.5802 86.3006L25.9361 118.875Z" fill="#3F3D56"/>
<path d="M32.2241 83.5247C31.7539 83.5246 31.2888 83.6217 30.8581 83.8101C30.4273 83.9985 30.0402 84.274 29.7211 84.6193H12.1726L5.74463 85.9874L6.8 94.127L29.666 89.2097C30.0446 89.6372 30.5242 89.9631 31.0611 90.1575C31.598 90.352 32.1751 90.4089 32.7397 90.3231C33.3043 90.2372 33.8383 90.0113 34.2931 89.6659C34.7479 89.3206 35.109 88.8668 35.3433 88.3461C35.5776 87.8253 35.6777 87.2542 35.6346 86.6848C35.5914 86.1154 35.4062 85.5659 35.096 85.0864C34.7859 84.6069 34.3605 84.2128 33.8588 83.94C33.3571 83.6672 32.7951 83.5244 32.2241 83.5247H32.2241Z" fill="#9F616A"/>
<path d="M32.3763 54.3496C34.6167 50.2512 33.1105 45.1127 29.0119 42.8724C24.9134 40.632 19.7747 42.1382 17.5342 46.2365C15.2938 50.3349 16.8 55.4734 20.8986 57.7137C24.9971 59.9541 30.1358 58.4479 32.3763 54.3496Z" fill="#9F616A"/>
<path d="M17.0011 43.5322L16.5911 42.707L18.6542 41.682C18.6542 41.682 20.9301 37.979 25.0484 39.0196C29.1667 40.0602 31.0196 40.683 31.0196 40.683L33.0775 41.7184L32.0447 42.746L33.8975 43.3688L32.6597 43.9838L34.1 44.8116L33.3246 49.0552C33.3246 49.0552 32.0369 45.8366 29.5612 47.0666C27.0855 48.2965 22.5571 46.4307 22.5571 46.4307L18.623 54.0443C18.623 54.0443 17.8113 51.3753 16.3643 52.087C16.3642 52.087 12.6673 46.1997 17.0011 43.5322Z" fill="#2F2E41"/>
<path d="M6.91243 95.6528L4.9056 89.6836L4.42017 69.7857L5.27523 66.9625C5.583 65.9464 6.09276 65.0029 6.77394 64.1885C7.45512 63.3741 8.29371 62.7056 9.23945 62.2231C10.1852 61.7405 11.2186 61.4539 12.2778 61.3803C13.337 61.3067 14.4001 61.4477 15.4035 61.7948C16.4069 62.142 17.3299 62.6881 18.1171 63.4005C18.9044 64.1128 19.5397 64.9768 19.9851 65.9406C20.4304 66.9044 20.6766 67.9482 20.7088 69.0094C20.7411 70.0706 20.5587 71.1274 20.1727 72.1164L15.5896 83.8602L15.8226 84.3123L25.7519 84.2319L29.2789 90.5803L6.91243 95.6528Z" fill="#3F3D56"/>
<path d="M106.256 93.2001C106.627 92.9505 106.938 92.6227 107.169 92.2398C107.399 91.8569 107.542 91.4282 107.589 90.9839C107.635 90.5396 107.584 90.0905 107.438 89.6682C107.292 89.2459 107.055 88.8607 106.745 88.5397L111.639 78.8455L106.033 79.4957L102.245 88.6018C101.74 89.1597 101.458 89.8832 101.451 90.6353C101.444 91.3874 101.714 92.1159 102.208 92.6827C102.703 93.2495 103.388 93.6152 104.134 93.7106C104.88 93.8059 105.635 93.6243 106.256 93.2001Z" fill="#FFB7B7"/>
<path d="M145.508 161.869L141.097 161.869L138.999 144.856L145.509 144.857L145.508 161.869Z" fill="#FFB7B7"/>
<path d="M146.633 166.145L132.411 166.144V165.964C132.411 164.496 132.994 163.088 134.032 162.05C135.07 161.012 136.478 160.429 137.946 160.429H137.947L146.633 160.429L146.633 166.145Z" fill="#2F2E41"/>
<path d="M121.403 161.869L116.992 161.869L114.894 144.856L121.404 144.857L121.403 161.869Z" fill="#FFB7B7"/>
<path d="M121.449 166.145L107.226 166.144V165.964C107.226 164.496 107.809 163.088 108.848 162.05C109.886 161.012 111.294 160.429 112.762 160.429H112.762L121.449 160.429L121.449 166.145Z" fill="#2F2E41"/>
<path d="M121.041 90.0161L116.724 99.962L113.163 157.129L122.157 156.769L124.614 129.517L132.192 105.245L136.548 132.305L138.347 156.049L145.79 156.372L148.756 90.0161H121.041Z" fill="#2F2E41"/>
<path d="M142.623 40.9385L130.109 41.2515L122.763 45.0227L122.36 72.8461L117.778 92.0559C117.778 92.0559 146.406 94.0261 150.364 91.1479L145.686 69.2022L151.96 45.4852L142.623 40.9385Z" fill="#FF7A73"/>
<path d="M124.695 45.4839L123.53 44.6973C123.53 44.6973 118.704 46.1436 117.278 52.5784C117.278 52.5784 116.186 55.8068 115.708 58.0263C115.158 60.5722 103.028 83.9569 103.028 83.9569L110.291 86.0403L123.605 64.5088L124.695 45.4839Z" fill="#FF7A73"/>
<path d="M151.764 96.7681C151.476 96.426 151.267 96.0251 151.152 95.5936C151.036 95.1621 151.016 94.7104 151.094 94.2705C151.172 93.8306 151.345 93.4131 151.602 93.0473C151.859 92.6816 152.192 92.3766 152.579 92.1538L150.548 81.4858L155.758 83.6566L156.888 93.4543C157.219 94.1297 157.291 94.903 157.09 95.6278C156.889 96.3527 156.429 96.9786 155.798 97.3871C155.166 97.7956 154.406 97.9582 153.663 97.8441C152.92 97.73 152.244 97.3472 151.764 96.7681Z" fill="#FFB7B7"/>
<path d="M150.077 45.8173L151.414 45.3823C151.414 45.3823 155.654 48.1033 155.25 54.6819C155.25 54.6819 155.409 58.0861 155.257 60.3517C155.083 62.9503 157.416 88.7732 157.416 88.7732H149.861L146.623 65.3884L150.077 45.8173Z" fill="#FF7A73"/>
<path d="M145.694 29.2653C145.694 30.9808 145.186 32.6579 144.233 34.0843C143.279 35.5107 141.925 36.6225 140.34 37.279C138.755 37.9355 137.01 38.1073 135.328 37.7726C133.645 37.4379 132.099 36.6118 130.886 35.3987C129.673 34.1856 128.847 32.6401 128.512 30.9575C128.178 29.2749 128.349 27.5309 129.006 25.9459C129.663 24.361 130.774 23.0063 132.201 22.0532C133.627 21.1001 135.304 20.5913 137.02 20.5913C139.315 20.5856 141.518 21.4917 143.145 23.1103C144.772 24.7288 145.689 26.9273 145.694 29.2221C145.694 29.2365 145.694 29.2509 145.694 29.2653Z" fill="#FFB7B7"/>
<path d="M128.375 17.6146C129.391 15.4296 131.357 15.8616 133.077 16.6023C135.255 16.1192 137.326 14.673 139.673 15.5283C141.984 18.8899 149.745 17.9009 148.094 23.3737C148.092 24.6852 150.561 23.9218 150.13 26.0696C151.439 30.203 145.407 38.0311 141.945 36.3826C142.801 34.8133 144.757 31.2489 141.791 30.8954C135.408 36.8335 141.132 19.5878 133.113 24.6031C130.458 27.0329 126.823 20.045 128.375 17.6146Z" fill="#2F2E41"/>
<path d="M153.282 97.633C153.695 97.7161 154.122 97.7075 154.531 97.608C154.941 97.5085 155.323 97.3204 155.652 97.057C155.981 96.7935 156.248 96.4612 156.435 96.0834C156.622 95.7055 156.723 95.2914 156.732 94.87L178.513 74.3705L173.612 70.4614L153.707 91.8928C152.998 91.9242 152.325 92.2145 151.816 92.7088C151.307 93.203 150.997 93.8668 150.945 94.5744C150.892 95.2819 151.101 95.9841 151.532 96.5478C151.963 97.1115 152.586 97.4977 153.282 97.633Z" fill="#9F616A"/>
<path d="M175.427 77.684L171.189 72.7184C171.069 72.5771 170.98 72.4115 170.929 72.2328C170.878 72.0541 170.867 71.8666 170.895 71.6831C170.923 71.4995 170.991 71.3241 171.093 71.169C171.195 71.0138 171.329 70.8825 171.487 70.7839L177.003 67.3307C177.729 66.7178 178.669 66.418 179.616 66.4971C180.563 66.5761 181.441 67.0274 182.055 67.7522C182.67 68.4769 182.972 69.4159 182.896 70.3632C182.819 71.3105 182.37 72.1887 181.647 72.8054L177.384 77.6948C177.262 77.8347 177.111 77.9467 176.942 78.0231C176.772 78.0996 176.588 78.1386 176.403 78.1376C176.217 78.1365 176.034 78.0955 175.865 78.0172C175.697 77.939 175.547 77.8253 175.427 77.684V77.684Z" fill="#CBCBCB"/>
<path d="M164.032 178.838L158.706 178.838L156.173 158.298L164.033 158.299L164.032 178.838Z" fill="#9F616A"/>
<path d="M165.39 184L148.219 183.999V183.782C148.219 182.01 148.923 180.31 150.176 179.057C151.43 177.803 153.13 177.099 154.902 177.099H154.903L165.39 177.1L165.39 184Z" fill="#2F2E41"/>
<path d="M206.6 178.838L201.275 178.838L198.741 158.298L206.601 158.299L206.6 178.838Z" fill="#9F616A"/>
<path d="M207.958 184L190.787 183.999V183.782C190.787 182.01 191.491 180.31 192.745 179.057C193.998 177.803 195.698 177.099 197.471 177.099H197.471L207.958 177.1L207.958 184Z" fill="#2F2E41"/>
<path d="M192.276 88.5718L197.644 68.7403L190.68 64.8262H180.96L177.179 68.8708C177.179 68.8708 170.863 73.2652 172.392 78.1342L174.858 89.2242L171.086 106.838L152.081 133.193L147.582 159.081L165.291 163.723L184.442 126.017L193.727 167.768L211 166.899L205.048 116.276C205.048 116.276 203.351 100.855 194.457 91.2258L192.276 88.5718Z" fill="#2F2E41"/>
<path d="M203.362 106.119C203.661 105.822 203.892 105.463 204.037 105.068C204.183 104.673 204.24 104.25 204.205 103.83C204.17 103.41 204.043 103.003 203.834 102.637C203.624 102.272 203.337 101.957 202.992 101.714L198.827 73.6169L192.849 75.5045L198.833 102.565C198.464 103.171 198.33 103.891 198.456 104.589C198.583 105.287 198.961 105.915 199.519 106.353C200.077 106.791 200.777 107.009 201.485 106.966C202.193 106.923 202.861 106.621 203.362 106.119Z" fill="#9F616A"/>
<path d="M199.857 78.0265L193.372 78.7742C193.187 78.7955 193 78.7768 192.823 78.7193C192.647 78.6618 192.485 78.5669 192.348 78.4411C192.211 78.3153 192.103 78.1616 192.032 77.9903C191.96 77.819 191.926 77.6343 191.932 77.4487L192.142 70.9441C192.038 69.9995 192.314 69.0524 192.907 68.3105C193.501 67.5686 194.365 67.0924 195.309 66.9863C196.254 66.8802 197.201 67.1529 197.945 67.7446C198.689 68.3363 199.167 69.1986 199.276 70.1427L200.957 76.408C201.005 76.5874 201.014 76.7751 200.983 76.9582C200.952 77.1414 200.882 77.3157 200.777 77.4693C200.673 77.6229 200.537 77.7521 200.378 77.8483C200.219 77.9445 200.041 78.0053 199.857 78.0265V78.0265Z" fill="#CBCBCB"/>
<path d="M174.95 59.1865V50.8306C174.95 47.861 176.129 45.0131 178.229 42.9133C180.329 40.8135 183.177 39.6338 186.147 39.6338C189.117 39.6338 191.965 40.8135 194.065 42.9133C196.165 45.0131 197.344 47.861 197.344 50.8306V59.1865C197.344 59.5852 197.185 59.9675 196.903 60.2495C196.621 60.5315 196.239 60.6901 195.84 60.6905H176.454C176.055 60.6901 175.673 60.5315 175.391 60.2495C175.109 59.9675 174.95 59.5852 174.95 59.1865Z" fill="#2F2E41"/>
<path d="M187.784 59.4899C191.762 57.3152 193.224 52.3274 191.05 48.3492C188.875 44.371 183.887 42.909 179.908 45.0836C175.93 47.2583 174.468 52.2462 176.643 56.2244C178.817 60.2026 183.805 61.6646 187.784 59.4899Z" fill="#9F616A"/>
<path d="M172.301 51.499C172.303 49.1508 173.238 46.8995 174.898 45.239C176.559 43.5785 178.81 42.6445 181.158 42.6418H182.83C185.178 42.6445 187.429 43.5785 189.09 45.239C190.751 46.8995 191.685 49.1508 191.687 51.499V51.6662H188.155L186.951 48.2931L186.71 51.6662H184.884L184.277 49.9643L184.155 51.6662H172.301V51.499Z" fill="#2F2E41"/>
<path d="M183.038 61.6302C182.873 61.4057 182.774 61.1389 182.753 60.8606C182.732 60.5822 182.79 60.3037 182.921 60.057C184.692 56.6885 187.171 50.4644 183.88 46.6259L183.643 46.3501H193.199V60.6954L184.518 62.2269C184.43 62.2424 184.341 62.2503 184.252 62.2504C184.015 62.2504 183.782 62.1941 183.571 62.0863C183.36 61.9785 183.177 61.8222 183.038 61.6302Z" fill="#2F2E41"/>
<path d="M95.2122 69.2689C95.0911 69.3934 94.9799 69.5274 94.8799 69.6694L79.3109 69.2885L77.4946 65.9697L72.1274 68.0561L74.7718 74.2438C74.9854 74.7437 75.3555 75.1608 75.8263 75.4325C76.2972 75.7042 76.8435 75.8158 77.3832 75.7506L94.9733 73.6258C95.3882 74.151 95.9533 74.5375 96.5932 74.7339C97.2332 74.9302 97.9177 74.927 98.5559 74.7248C99.194 74.5226 99.7554 74.1309 100.166 73.6019C100.576 73.0728 100.815 72.4314 100.851 71.7631C100.888 71.0947 100.72 70.431 100.371 69.8603C100.021 69.2896 99.5057 68.8388 98.8935 68.5681C98.2813 68.2973 97.6012 68.2193 96.9436 68.3445C96.286 68.4697 95.6821 68.7921 95.2122 69.2689H95.2122Z" fill="#FFB7B7"/>
<path d="M44.4594 163.817H49.5785L52.0138 144.072L44.4585 144.072L44.4594 163.817Z" fill="#FFB7B7"/>
<path d="M43.1538 162.145L53.2353 162.145H53.2358C54.9397 162.145 56.5737 162.822 57.7786 164.027C58.9834 165.232 59.6604 166.866 59.6605 168.569V168.778L43.1541 168.779L43.1538 162.145Z" fill="#2F2E41"/>
<path d="M90.9435 163.703L95.6511 161.692L90.134 142.578L83.1863 145.546L90.9435 163.703Z" fill="#FFB7B7"/>
<path d="M89.0862 162.679L98.3571 158.718L98.3575 158.718C99.9245 158.049 101.693 158.029 103.274 158.664C104.856 159.299 106.12 160.535 106.79 162.102L106.872 162.294L91.6923 168.779L89.0862 162.679Z" fill="#2F2E41"/>
<path d="M69.3423 73.5461L69.7123 79.5445L58.892 80.7025L47.5696 81.9141L50.902 72.8057L69.3423 73.5461Z" fill="#FFB7B7"/>
<path d="M69.7224 75.6983C69.5998 75.6501 57.378 70.8962 49.8708 74.7834L49.6862 74.8791L48.1886 67.5079L47.3352 51.6601L52.8881 49.0364L54.417 45.6118L64.8308 44.9956L66.9708 47.9303L74.2569 50.318L69.9023 75.7694L69.7224 75.6983Z" fill="#E4E4E4"/>
<path d="M70.105 61.3938L71.3931 51.2733L74.326 50.3806L74.3755 50.3989C74.4432 50.4237 76.0372 51.0338 76.4735 53.2405C76.8923 55.3585 80.0465 68.5391 80.0784 68.6721L80.1099 68.8039L72.6988 71.769L70.105 61.3938Z" fill="#E4E4E4"/>
<path d="M87.1309 160.233L96.9962 158.209L81.2285 114.703L75.8321 99.8631C75.8321 99.8631 72.4094 87.9649 70.863 83.3605L69.9298 77.1824L47.8383 79.6275C47.8383 79.6275 41.6682 88.6885 43.5426 103.457L42.6948 158.968L52.5601 159.474L60.8234 103.489L75.3262 134.179C75.3262 134.179 79.8974 147.276 83.1679 150.115L87.1309 160.233Z" fill="#2F2E41"/>
<path d="M56.6973 81.6879C56.5236 81.6837 56.3498 81.6933 56.1776 81.7165L45.8714 70.0413L47.0703 66.453L41.8912 63.936L39.1515 70.0821C38.9301 70.5787 38.8759 71.1336 38.9968 71.6636C39.1177 72.1936 39.4072 72.6701 39.822 73.0215L53.3398 84.475C53.2368 85.1364 53.3375 85.8135 53.6286 86.4162C53.9198 87.0189 54.3875 87.5188 54.9697 87.8492C55.5518 88.1796 56.2208 88.325 56.8876 88.266C57.5544 88.2069 58.1874 87.9463 58.7024 87.5188C59.2175 87.0912 59.5901 86.517 59.7709 85.8725C59.9516 85.228 59.9318 84.5437 59.7141 83.9107C59.4965 83.2777 59.0912 82.726 58.5523 82.3289C58.0134 81.9319 57.3664 81.7083 56.6973 81.6879Z" fill="#FFB7B7"/>
<path d="M40.9583 65.6656L44.9873 54.1897C45.4401 52.8369 46.0075 52.0151 46.6739 51.7469C46.8051 51.6878 46.9472 51.6567 47.0911 51.6553C47.235 51.654 47.3777 51.6825 47.51 51.7391L49.3166 54.0215L50.9934 61.0652L46.6943 71.1774L40.9583 65.6656Z" fill="#E4E4E4"/>
<path d="M67.6269 42.6208H49.9392C49.5754 42.6204 49.2266 42.4757 48.9693 42.2185C48.712 41.9612 48.5673 41.6124 48.5669 41.2486V33.6249C48.5669 30.9155 49.6432 28.3171 51.5591 26.4013C53.475 24.4855 56.0736 23.4092 58.7831 23.4092C61.4926 23.4092 64.0911 24.4855 66.007 26.4013C67.9229 28.3171 68.9992 30.9155 68.9992 33.6249V41.2486C68.9988 41.6124 68.8541 41.9612 68.5969 42.2185C68.3396 42.4757 67.9908 42.6204 67.6269 42.6208Z" fill="#2F2E41"/>
<path d="M60.8825 42.4435C65.0192 42.4435 68.3726 39.0902 68.3726 34.9537C68.3726 30.8172 65.0192 27.4639 60.8825 27.4639C56.7458 27.4639 53.3923 30.8172 53.3923 34.9537C53.3923 39.0902 56.7458 42.4435 60.8825 42.4435Z" fill="#FFB7B7"/>
<path d="M71.4162 34.3874H60.6006L60.4897 32.8346L59.9352 34.3874H58.2698L58.05 31.3099L56.9509 34.3874H53.7285V34.2349C53.7309 32.0924 54.5831 30.0384 56.0981 28.5234C57.6132 27.0084 59.6673 26.1562 61.8099 26.1538H63.3348C65.4774 26.1562 67.5315 27.0084 69.0465 28.5234C70.5616 30.0383 71.4138 32.0924 71.4162 34.2349L71.4162 34.3874Z" fill="#2F2E41"/>
<path d="M60.5121 44.0441C60.4307 44.044 60.3495 44.0369 60.2693 44.0227L52.3496 42.6254V29.5371H61.0676L60.8518 29.7888C57.8488 33.2909 60.1112 38.9696 61.7271 42.0429C61.8462 42.268 61.8993 42.5221 61.8803 42.7761C61.8613 43.03 61.7709 43.2735 61.6196 43.4783C61.493 43.6535 61.3265 43.7961 61.134 43.8945C60.9415 43.9928 60.7283 44.0441 60.5121 44.0441Z" fill="#2F2E41"/>
<path d="M155.38 75.5043C154.887 75.554 154.39 75.5656 153.895 75.5389C153.81 75.5297 153.725 75.554 153.659 75.6066C153.592 75.6592 153.549 75.7359 153.538 75.8202L152.59 82.9292C152.517 83.4452 152.306 83.9319 151.979 84.3375C151.709 84.6603 151.508 85.0351 151.389 85.4387C151.271 85.8422 151.236 86.2659 151.288 86.6834V98.7593C151.288 98.7593 151.227 100.369 152.464 100.369C153.944 100.555 155.443 100.555 156.923 100.369C156.923 100.369 157.914 100.182 157.914 98.6961V86.8057C157.99 86.3908 157.974 85.9645 157.868 85.5563C157.763 85.1481 157.57 84.7677 157.303 84.4415C156.986 84.0344 156.782 83.5517 156.709 83.0413L155.725 75.7835C155.714 75.7019 155.672 75.6276 155.608 75.5757C155.544 75.5239 155.463 75.4983 155.38 75.5043Z" fill="white"/>
<path d="M154.689 100.712C153.941 100.712 153.193 100.666 152.451 100.573C152.285 100.577 152.12 100.547 151.966 100.484C151.813 100.421 151.674 100.327 151.558 100.208C151.055 99.685 151.083 98.7894 151.084 98.7515L151.084 86.6958C151.031 86.2525 151.07 85.8032 151.197 85.3752C151.324 84.9473 151.536 84.5497 151.822 84.2068C152.125 83.8304 152.321 83.3791 152.388 82.9006L153.336 75.7932C153.354 75.6565 153.425 75.5323 153.534 75.447C153.642 75.3617 153.78 75.322 153.917 75.3363C154.398 75.3617 154.881 75.35 155.36 75.3014L155.366 75.3009C155.5 75.2912 155.632 75.3329 155.736 75.4173C155.84 75.5018 155.909 75.6228 155.927 75.7557L156.911 83.0139C156.979 83.4886 157.169 83.9375 157.463 84.3163C157.747 84.6624 157.952 85.0657 158.065 85.4985C158.178 85.9312 158.196 86.3833 158.118 86.8237V98.696C158.118 100.332 156.973 100.567 156.961 100.57C156.208 100.665 155.449 100.712 154.689 100.712ZM153.867 75.7415C153.837 75.7401 153.807 75.7499 153.783 75.7692C153.76 75.7885 153.744 75.8158 153.74 75.8458L152.792 82.9561C152.714 83.5091 152.488 84.0307 152.137 84.4655C151.885 84.7673 151.698 85.1177 151.586 85.4948C151.475 85.8719 151.442 86.2679 151.49 86.6582L151.492 86.6833V98.7592C151.491 98.7743 151.469 99.5294 151.853 99.9261C151.932 100.007 152.027 100.07 152.133 100.111C152.238 100.152 152.351 100.171 152.464 100.166L152.489 100.167C153.953 100.351 155.434 100.351 156.898 100.167C156.917 100.162 157.71 99.9816 157.71 98.696L157.713 86.7691C157.784 86.3833 157.77 85.9868 157.671 85.6072C157.573 85.2275 157.394 84.8737 157.145 84.5705C156.805 84.1344 156.586 83.617 156.508 83.0698L155.523 75.8108C155.519 75.781 155.503 75.7539 155.48 75.7348C155.457 75.7157 155.427 75.7059 155.397 75.7074C154.894 75.7577 154.388 75.7694 153.884 75.7424C153.878 75.7418 153.872 75.7415 153.867 75.7415Z" fill="#3F3D56"/>
<path d="M153.885 86.8994H155.387C155.984 86.8994 156.557 87.1367 156.979 87.5591C157.402 87.9814 157.639 88.5542 157.639 89.1515V94.8033C157.639 95.4006 157.402 95.9734 156.979 96.3958C156.557 96.8181 155.984 97.0554 155.387 97.0554H153.885C153.287 97.0554 152.714 96.8181 152.292 96.3958C151.87 95.9734 151.632 95.4006 151.632 94.8033V89.1516C151.632 88.5542 151.87 87.9814 152.292 87.5591C152.714 87.1367 153.287 86.8994 153.885 86.8994Z" fill="#FF7A73"/>
<path d="M104.405 65.7128C103.911 65.7625 103.414 65.7741 102.919 65.7474C102.834 65.7382 102.75 65.7625 102.683 65.8151C102.616 65.8677 102.573 65.9444 102.562 66.0287L101.614 73.1377C101.541 73.6537 101.33 74.1404 101.003 74.546C100.733 74.8688 100.533 75.2436 100.414 75.6472C100.295 76.0507 100.26 76.4744 100.312 76.8919V88.9678C100.312 88.9678 100.251 90.5779 101.488 90.5779C102.969 90.764 104.467 90.764 105.948 90.5779C105.948 90.5779 106.938 90.3904 106.938 88.9046V77.0142C107.014 76.5993 106.998 76.173 106.893 75.7648C106.787 75.3565 106.594 74.9762 106.327 74.65C106.01 74.2429 105.806 73.7602 105.734 73.2498L104.749 65.992C104.738 65.9104 104.696 65.8361 104.632 65.7842C104.568 65.7324 104.487 65.7068 104.405 65.7128Z" fill="white"/>
<path d="M103.714 90.9209C102.965 90.9209 102.218 90.8744 101.475 90.7816C101.309 90.7856 101.144 90.7551 100.991 90.6923C100.837 90.6294 100.698 90.5355 100.582 90.4163C100.079 89.8934 100.107 88.9979 100.108 88.96L100.108 76.9043C100.056 76.461 100.094 76.0117 100.221 75.5837C100.348 75.1558 100.561 74.7582 100.847 74.4153C101.15 74.0389 101.345 73.5876 101.413 73.1091L102.36 66.0017C102.379 65.865 102.45 65.7408 102.558 65.6555C102.667 65.5702 102.804 65.5305 102.941 65.5448C103.422 65.5702 103.905 65.5585 104.384 65.5099L104.39 65.5094C104.524 65.4997 104.656 65.5413 104.761 65.6258C104.865 65.7103 104.933 65.8313 104.951 65.9642L105.936 73.2224C106.003 73.6971 106.194 74.146 106.488 74.5248C106.771 74.8709 106.976 75.2742 107.089 75.707C107.202 76.1397 107.22 76.5918 107.142 77.0322V88.9045C107.142 90.5402 105.997 90.776 105.986 90.7782C105.232 90.8731 104.473 90.9208 103.714 90.9209ZM102.891 65.95C102.861 65.9486 102.831 65.9584 102.808 65.9777C102.784 65.997 102.769 66.0243 102.764 66.0543L101.817 73.1646C101.739 73.7176 101.512 74.2392 101.162 74.674C100.91 74.9758 100.722 75.3261 100.611 75.7033C100.5 76.0804 100.467 76.4764 100.514 76.8667L100.516 76.8918V88.9677C100.516 88.9828 100.494 89.7379 100.877 90.1346C100.956 90.2153 101.052 90.2783 101.157 90.3196C101.262 90.3608 101.375 90.3794 101.488 90.3741L101.514 90.3757C102.977 90.5594 104.458 90.5594 105.922 90.3757C105.942 90.3709 106.735 90.1901 106.735 88.9045L106.738 76.9776C106.808 76.5918 106.794 76.1953 106.696 75.8156C106.598 75.436 106.418 75.0822 106.169 74.779C105.83 74.3429 105.61 73.8255 105.532 73.2783L104.547 66.0193C104.543 65.9895 104.528 65.9624 104.505 65.9433C104.481 65.9242 104.452 65.9144 104.422 65.9159C103.919 65.9662 103.413 65.9779 102.908 65.9509C102.902 65.9503 102.897 65.95 102.891 65.95Z" fill="#3F3D56"/>
<path d="M102.909 77.1079H104.411C105.008 77.1079 105.581 77.3452 106.003 77.7675C106.426 78.1899 106.663 78.7627 106.663 79.36V85.0118C106.663 85.6091 106.426 86.1819 106.003 86.6043C105.581 87.0266 105.008 87.2639 104.411 87.2639H102.909C102.311 87.2639 101.739 87.0266 101.316 86.6043C100.894 86.1819 100.656 85.6091 100.656 85.0118V79.36C100.656 78.7627 100.894 78.1899 101.316 77.7675C101.739 77.3452 102.311 77.1079 102.909 77.1079Z" fill="#FF7A73"/>
<path d="M95.7647 55.3453C95.2711 55.3951 94.7743 55.4066 94.2789 55.38C94.1944 55.3707 94.1097 55.395 94.043 55.4477C93.9763 55.5003 93.9329 55.577 93.9222 55.6612L92.9744 62.7702C92.9015 63.2863 92.6902 63.773 92.3629 64.1786C92.0932 64.5014 91.8926 64.8762 91.7737 65.2797C91.6549 65.6833 91.6202 66.107 91.672 66.5245V78.6004C91.672 78.6004 91.6108 80.2105 92.848 80.2105C94.3288 80.3966 95.827 80.3966 97.3077 80.2105C97.3077 80.2105 98.2983 80.023 98.2983 78.5372V66.6468C98.3738 66.2319 98.3583 65.8056 98.2527 65.3974C98.1471 64.9891 97.954 64.6087 97.6868 64.2825C97.3705 63.8754 97.166 63.3928 97.0937 62.8823L96.1092 55.6246C96.098 55.543 96.0562 55.4687 95.9922 55.4168C95.9282 55.3649 95.8469 55.3394 95.7647 55.3453Z" fill="white"/>
<path d="M95.0735 80.5534C94.3251 80.5535 93.5775 80.507 92.8349 80.4142C92.669 80.4181 92.504 80.3877 92.3504 80.3248C92.1968 80.262 92.0579 80.168 91.9423 80.0489C91.4388 79.526 91.4669 78.6305 91.4683 78.5925L91.4681 66.5368C91.4156 66.0936 91.454 65.6442 91.5809 65.2163C91.7079 64.7884 91.9207 64.3908 92.2065 64.0479C92.5095 63.6715 92.705 63.2202 92.7725 62.7417L93.7201 55.6342C93.7386 55.4975 93.8096 55.3734 93.918 55.2881C94.0264 55.2028 94.1638 55.1631 94.301 55.1773C94.7823 55.2027 95.2648 55.1911 95.7443 55.1425L95.75 55.142C95.8838 55.1323 96.0163 55.1739 96.1205 55.2584C96.2248 55.3429 96.2929 55.4639 96.3111 55.5968L97.2956 62.855C97.3633 63.3297 97.5536 63.7786 97.8477 64.1573C98.131 64.5035 98.3361 64.9068 98.449 65.3395C98.562 65.7723 98.5801 66.2244 98.502 66.6648V78.5371C98.502 80.1728 97.3571 80.4085 97.3455 80.4107C96.5919 80.5057 95.8331 80.5534 95.0735 80.5534ZM94.2511 55.5826C94.2208 55.5811 94.1911 55.591 94.1676 55.6103C94.1442 55.6295 94.1288 55.6568 94.1244 55.6869L93.1764 62.7971C93.0985 63.3502 92.8721 63.8718 92.5215 64.3065C92.2695 64.6084 92.0821 64.9587 91.9707 65.3359C91.8594 65.713 91.8266 66.109 91.8742 66.4993L91.8758 66.5244V78.6003C91.8754 78.6153 91.8538 79.3705 92.2369 79.7672C92.3162 79.8478 92.4116 79.9109 92.5169 79.9521C92.6222 79.9934 92.735 80.012 92.848 80.0067L92.8734 80.0083C94.3373 80.192 95.8184 80.192 97.2822 80.0083C97.3015 80.0035 98.0944 79.8227 98.0944 78.5371L98.0977 66.6102C98.1683 66.2244 98.1539 65.8279 98.0557 65.4482C97.9576 65.0685 97.7778 64.7148 97.5291 64.4116C97.1895 63.9754 96.9699 63.4581 96.8919 62.9109L95.9072 55.6518C95.9029 55.6221 95.8876 55.595 95.8644 55.5759C95.8411 55.5567 95.8116 55.547 95.7816 55.5484C95.2786 55.5988 94.7726 55.6105 94.2679 55.5835C94.2623 55.5829 94.2568 55.5826 94.2511 55.5826Z" fill="#3F3D56"/>
<path d="M94.2688 66.7405H95.771C96.3683 66.7405 96.9412 66.9778 97.3636 67.4001C97.7859 67.8225 98.0232 68.3953 98.0232 68.9926V74.6443C98.0232 75.2417 97.7859 75.8145 97.3636 76.2368C96.9412 76.6592 96.3683 76.8965 95.771 76.8965H94.2688C93.6715 76.8965 93.0986 76.6592 92.6763 76.2368C92.2539 75.8145 92.0166 75.2417 92.0166 74.6443V68.9926C92.0166 68.3953 92.2539 67.8225 92.6763 67.4001C93.0986 66.9778 93.6715 66.7405 94.2688 66.7405Z" fill="#FF7A73"/>
<path d="M16.1819 20.4469C20.1583 20.4469 23.3819 17.2235 23.3819 13.2472C23.3819 9.271 20.1583 6.04761 16.1819 6.04761C12.2055 6.04761 8.98193 9.271 8.98193 13.2472C8.98193 17.2235 12.2055 20.4469 16.1819 20.4469Z" fill="#F0F0F0"/>
<path d="M182.069 14.3993C186.046 14.3993 189.269 11.1759 189.269 7.19964C189.269 3.22339 186.046 0 182.069 0C178.093 0 174.869 3.22339 174.869 7.19964C174.869 11.1759 178.093 14.3993 182.069 14.3993Z" fill="#F0F0F0"/>
<path d="M99.7016 32.5423C102.565 32.5423 104.886 30.2214 104.886 27.3585C104.886 24.4956 102.565 22.1748 99.7016 22.1748C96.8385 22.1748 94.5176 24.4956 94.5176 27.3585C94.5176 30.2214 96.8385 32.5423 99.7016 32.5423Z" fill="#F0F0F0"/>
</g>
<defs>
<clipPath id="clip0_49_227">
<rect width="211" height="184" fill="white"/>
</clipPath>
</defs>
</svg>
