<svg width="220" height="184" viewBox="0 0 220 184" fill="none" xmlns="http://www.w3.org/2000/svg">
<g clip-path="url(#clip0_49_357)">
<path d="M103.335 184C151.32 184 190.219 182.01 190.219 179.556C190.219 177.101 151.32 175.111 103.335 175.111C55.3494 175.111 16.4497 177.101 16.4497 179.556C16.4497 182.01 55.3494 184 103.335 184Z" fill="#F2F2F2"/>
<path d="M154.096 42.7034H153.109V15.6549C153.109 11.503 151.461 7.52109 148.526 4.58523C145.591 1.64936 141.61 4.58405e-06 137.46 0H80.1733C76.0228 -7.85831e-06 72.0422 1.64933 69.1074 4.58519C66.1725 7.52104 64.5237 11.5029 64.5237 15.6549V164.045C64.5237 168.197 66.1725 172.179 69.1073 175.114C72.0422 178.05 76.0227 179.7 80.1733 179.7H137.46C141.61 179.7 145.591 178.05 148.526 175.114C151.46 172.179 153.109 168.197 153.109 164.045V61.9569H154.096L154.096 42.7034Z" fill="#3F3D56"/>
<path d="M149.778 15.7642V163.936C149.778 167.036 148.547 170.01 146.355 172.203C144.163 174.395 141.191 175.627 138.091 175.627H80.5298C77.4301 175.627 74.4573 174.395 72.2655 172.203C70.0737 170.01 68.8423 167.036 68.8423 163.936V15.7642C68.8423 12.6635 70.0737 9.68972 72.2655 7.49716C74.4573 5.3046 77.4301 4.07281 80.5298 4.07275H87.5126C87.1695 4.91621 87.0389 5.83109 87.1321 6.73692C87.2254 7.64275 87.5398 8.51176 88.0476 9.26753C88.5554 10.0233 89.2411 10.6426 90.0444 11.0711C90.8476 11.4996 91.7438 11.724 92.6542 11.7247H125.473C126.383 11.724 127.279 11.4995 128.083 11.0711C128.886 10.6426 129.572 10.0233 130.079 9.26751C130.587 8.51175 130.902 7.64274 130.995 6.73691C131.088 5.83109 130.958 4.91621 130.614 4.07275H138.091C141.191 4.07281 144.163 5.3046 146.355 7.49716C148.547 9.68972 149.778 12.6635 149.778 15.7642Z" fill="white"/>
<path d="M131.235 79.655C130.852 79.855 130.463 80.0443 130.067 80.2229C129.707 80.3859 129.341 80.539 128.969 80.6822C128.833 80.7341 128.695 80.7859 128.557 80.8378C127.464 81.2343 126.342 81.5439 125.2 81.7637C124.635 81.8748 124.062 81.962 123.482 82.0254C123.003 82.0797 122.519 82.1184 122.031 82.1415C121.683 82.1588 121.335 82.1662 120.984 82.1662C119.596 82.1667 118.211 82.037 116.847 81.7785C116.492 81.7143 116.144 81.6378 115.796 81.5538C114.112 81.1502 112.482 80.5485 110.941 79.7612C110.802 79.6921 110.664 79.618 110.526 79.5464C110.321 79.4377 110.121 79.3242 109.921 79.2056C110.017 79.0723 110.121 78.9414 110.227 78.813C111.382 77.3812 112.826 76.2089 114.464 75.3726C116.102 74.5362 117.898 74.0546 119.735 73.9591C121.572 73.8636 123.408 74.1563 125.124 74.8182C126.84 75.4801 128.398 76.4964 129.695 77.8007C130.145 78.2526 130.562 78.7362 130.944 79.2476C131.045 79.3809 131.141 79.5168 131.235 79.655Z" fill="#FF7A73"/>
<path d="M121.477 68.8087C127.463 68.8087 132.315 63.9546 132.315 57.9668C132.315 51.9789 127.463 47.1248 121.477 47.1248C115.491 47.1248 110.638 51.9789 110.638 57.9668C110.638 63.9546 115.491 68.8087 121.477 68.8087Z" fill="#2F2E41"/>
<path d="M124.359 68.824C128.269 66.6863 129.705 61.7833 127.568 57.8729C125.431 53.9624 120.53 52.5252 116.621 54.6629C112.712 56.8005 111.275 61.7035 113.412 65.614C115.549 69.5245 120.45 70.9616 124.359 68.824Z" fill="#A0616A"/>
<path d="M128.966 56.6678C127.123 57.9387 124.935 58.6151 122.696 58.6062C123.495 59.1601 124.404 59.5342 125.361 59.7029C122.384 60.3416 119.308 60.3589 116.325 59.7537C115.661 59.6473 115.021 59.4274 114.433 59.1037C114.14 58.9399 113.884 58.7161 113.683 58.447C113.482 58.1778 113.339 57.8693 113.265 57.5416C113.067 56.4086 113.949 55.3792 114.867 54.6855C116.271 53.6396 117.89 52.919 119.607 52.5758C121.324 52.2326 123.095 52.2754 124.793 52.7012C125.902 52.9879 127.013 53.4724 127.733 54.3632C128.454 55.254 128.667 56.6274 127.981 57.5447L128.966 56.6678Z" fill="#2F2E41"/>
<path d="M120.984 37.7214C116.139 37.7207 111.427 39.3046 107.566 42.2317C103.704 45.1587 100.906 49.2685 99.5959 53.9345C98.2863 58.6005 98.5377 63.5668 100.312 68.0767C102.086 72.5865 105.285 76.3924 109.422 78.9143L109.566 78.9983C109.684 79.0699 109.802 79.139 109.921 79.2057C110.121 79.3242 110.321 79.4378 110.526 79.5464C110.664 79.6181 110.802 79.6921 110.94 79.7613C112.482 80.5485 114.112 81.1503 115.795 81.5539C116.144 81.6378 116.492 81.7144 116.847 81.7786C118.211 82.037 119.596 82.1668 120.984 82.1662C121.334 82.1662 121.682 82.1588 122.031 82.1415C122.519 82.1193 123.003 82.0806 123.482 82.0255C124.062 81.9613 124.635 81.874 125.2 81.7637C126.341 81.5439 127.464 81.2343 128.557 80.8378C128.695 80.786 128.833 80.7341 128.969 80.6823C129.342 80.539 129.708 80.386 130.067 80.223C130.462 80.0452 130.851 79.8559 131.235 79.6551C135.077 77.642 138.253 74.5568 140.377 70.7735C140.387 70.7538 140.4 70.734 140.41 70.7143C141.543 68.6801 142.347 66.4791 142.792 64.1932C143.416 60.9753 143.321 57.659 142.515 54.482C141.708 51.3049 140.209 48.3455 138.125 45.8158C136.041 43.2861 133.423 41.2486 130.46 39.8493C127.497 38.4499 124.261 37.7233 120.984 37.7214H120.984ZM140.005 70.4254C139.985 70.46 139.968 70.4945 139.948 70.5266C137.866 74.254 134.735 77.2868 130.944 79.2477C130.566 79.4452 130.182 79.6304 129.791 79.8032C129.468 79.9489 129.137 80.0872 128.804 80.2156C128.663 80.2699 128.52 80.3242 128.377 80.3736C127.432 80.7186 126.465 80.9959 125.481 81.2033C124.752 81.3586 124.014 81.4749 123.272 81.5514C122.815 81.6008 122.351 81.6354 121.885 81.6526C121.586 81.665 121.285 81.6724 120.984 81.6724C119.641 81.674 118.3 81.5491 116.98 81.2995C116.177 81.1514 115.384 80.9568 114.603 80.7168C113.414 80.3494 112.259 79.881 111.15 79.3168C111.022 79.2501 110.893 79.1835 110.767 79.1143C110.587 79.0181 110.405 78.9193 110.227 78.8131C110.094 78.739 109.96 78.66 109.83 78.581C109.753 78.5366 109.677 78.4897 109.6 78.4427C105.973 76.2144 103.079 72.9698 101.279 69.1114C99.4779 65.253 98.8492 60.9507 99.4706 56.7382C100.092 52.5257 101.936 48.5884 104.774 45.4147C107.612 42.241 111.319 39.9707 115.435 38.8853C119.551 37.8 123.895 37.9474 127.928 39.3092C131.961 40.6711 135.506 43.1875 138.122 46.5462C140.739 49.9049 142.312 53.9582 142.647 58.2032C142.981 62.4481 142.063 66.6979 140.005 70.4254H140.005Z" fill="#3F3D56"/>
<path d="M115.988 47.2743C115.871 46.0476 114.369 45.2924 113.194 45.663C112.02 46.0335 111.248 47.2168 111.015 48.4267C110.903 48.9363 110.892 49.463 110.984 49.9766C111.076 50.4903 111.268 50.9807 111.55 51.4199C112.143 52.2748 113.235 52.8083 114.252 52.5913C115.414 52.3436 116.219 51.2087 116.45 50.0429C116.68 48.8771 116.451 47.6751 116.223 46.5089L115.988 47.2743Z" fill="#2F2E41"/>
<path d="M132.521 49.0267C132.405 47.8001 130.903 47.0449 129.728 47.4154C128.553 47.786 127.782 48.9692 127.549 50.1792C127.436 50.6887 127.426 51.2154 127.518 51.7291C127.609 52.2427 127.801 52.7332 128.083 53.1724C128.677 54.0273 129.768 54.5608 130.786 54.3437C131.948 54.096 132.753 52.9611 132.983 51.7953C133.213 50.6295 132.985 49.4276 132.756 48.2614L132.521 49.0267Z" fill="#2F2E41"/>
<path d="M82.586 68.8249C82.4323 68.8248 82.2803 68.7926 82.1397 68.7303C81.9992 68.668 81.8732 68.5771 81.7698 68.4634L69.5215 55.097C69.3825 54.9457 69.2136 54.8248 69.0256 54.7421C68.8375 54.6593 68.6344 54.6164 68.4289 54.6162H3.70477C2.72254 54.6151 1.78086 54.2243 1.08632 53.5295C0.391778 52.8347 0.00110279 51.8927 0 50.9102V27.5612C0.00110214 26.5787 0.391778 25.6367 1.08632 24.9419C1.78086 24.2471 2.72254 23.8563 3.70477 23.8552H87.5598C88.542 23.8563 89.4837 24.2471 90.1782 24.9419C90.8728 25.6367 91.2634 26.5787 91.2645 27.5612V50.9102C91.2634 51.8927 90.8728 52.8348 90.1782 53.5295C89.4837 54.2243 88.542 54.6151 87.5598 54.6162H85.1824C84.7895 54.6167 84.4128 54.773 84.1349 55.051C83.857 55.329 83.7008 55.7058 83.7003 56.0989V67.7121C83.7013 67.9363 83.634 68.1555 83.5075 68.3406C83.3809 68.5256 83.2011 68.6678 82.9919 68.7481C82.8625 68.7988 82.7249 68.8248 82.586 68.8249Z" fill="white"/>
<path d="M82.586 68.8249C82.4323 68.8248 82.2803 68.7926 82.1397 68.7303C81.9992 68.668 81.8732 68.5771 81.7698 68.4634L69.5215 55.097C69.3825 54.9457 69.2136 54.8248 69.0256 54.7421C68.8375 54.6593 68.6344 54.6164 68.4289 54.6162H3.70477C2.72254 54.6151 1.78086 54.2243 1.08632 53.5295C0.391778 52.8347 0.00110279 51.8927 0 50.9102V27.5612C0.00110214 26.5787 0.391778 25.6367 1.08632 24.9419C1.78086 24.2471 2.72254 23.8563 3.70477 23.8552H87.5598C88.542 23.8563 89.4837 24.2471 90.1782 24.9419C90.8728 25.6367 91.2634 26.5787 91.2645 27.5612V50.9102C91.2634 51.8927 90.8728 52.8348 90.1782 53.5295C89.4837 54.2243 88.542 54.6151 87.5598 54.6162H85.1824C84.7895 54.6167 84.4128 54.773 84.1349 55.051C83.857 55.329 83.7008 55.7058 83.7003 56.0989V67.7121C83.7013 67.9363 83.634 68.1555 83.5075 68.3406C83.3809 68.5256 83.2011 68.6678 82.9919 68.7481C82.8625 68.7988 82.7249 68.8248 82.586 68.8249ZM3.70477 24.3491C2.85342 24.35 2.03722 24.6888 1.43523 25.2909C0.833243 25.8931 0.494625 26.7096 0.493664 27.5612V50.9102C0.494626 51.7618 0.833247 52.5783 1.43524 53.1805C2.03723 53.7827 2.85343 54.1214 3.70477 54.1224H68.4289C68.7028 54.1227 68.9736 54.1798 69.2243 54.2901C69.475 54.4004 69.7001 54.5616 69.8853 54.7633L82.1336 68.1297C82.2177 68.2214 82.3276 68.2856 82.4488 68.3139C82.57 68.3421 82.6969 68.3331 82.8129 68.288C82.9289 68.2428 83.0285 68.1637 83.0988 68.061C83.169 67.9582 83.2066 67.8366 83.2066 67.7121V56.0989C83.2072 55.5749 83.4156 55.0725 83.786 54.702C84.1564 54.3314 84.6586 54.123 85.1824 54.1224H87.5598C88.4111 54.1214 89.2273 53.7827 89.8293 53.1805C90.4313 52.5783 90.7699 51.7618 90.7709 50.9102V27.5612C90.7699 26.7096 90.4313 25.8931 89.8293 25.2909C89.2273 24.6888 88.4111 24.35 87.5598 24.3491H3.70477Z" fill="#3F3D56"/>
<path d="M9.08728 34.155C10.8777 34.155 12.3291 32.7031 12.3291 30.9121C12.3291 29.1211 10.8777 27.6692 9.08728 27.6692C7.29687 27.6692 5.84546 29.1211 5.84546 30.9121C5.84546 32.7031 7.29687 34.155 9.08728 34.155Z" fill="#FF7A73"/>
<path d="M83.7777 48.8563H7.4869C7.25967 48.8566 7.03462 48.8121 6.82462 48.7253C6.61461 48.6385 6.42376 48.5111 6.263 48.3505C6.10223 48.1899 5.97468 47.9991 5.88767 47.7891C5.80065 47.5791 5.75586 47.3541 5.75586 47.1268C5.75586 46.8995 5.80065 46.6744 5.88767 46.4644C5.97468 46.2544 6.10223 46.0637 6.263 45.9031C6.42376 45.7424 6.61461 45.6151 6.82462 45.5283C7.03462 45.4415 7.25967 45.3969 7.4869 45.3972H83.7777C84.2359 45.3978 84.6751 45.5802 84.9989 45.9045C85.3227 46.2288 85.5046 46.6684 85.5046 47.1268C85.5046 47.5851 85.3227 48.0247 84.9989 48.349C84.6751 48.6733 84.2359 48.8558 83.7777 48.8563Z" fill="#E6E6E6"/>
<path d="M58.9237 41.5057H7.4869C7.25967 41.506 7.03462 41.4615 6.82462 41.3747C6.61461 41.2879 6.42376 41.1605 6.263 40.9999C6.10223 40.8393 5.97468 40.6485 5.88767 40.4385C5.80065 40.2286 5.75586 40.0035 5.75586 39.7762C5.75586 39.5489 5.80065 39.3238 5.88767 39.1138C5.97468 38.9039 6.10223 38.7131 6.263 38.5525C6.42376 38.3918 6.61461 38.2645 6.82462 38.1777C7.03462 38.0909 7.25967 38.0464 7.4869 38.0466H58.9237C59.3823 38.0466 59.8221 38.2289 60.1463 38.5532C60.4705 38.8776 60.6527 39.3175 60.6527 39.7762C60.6527 40.2349 60.4705 40.6748 60.1463 40.9992C59.8221 41.3235 59.3823 41.5057 58.9237 41.5057Z" fill="#E6E6E6"/>
<path d="M137.008 148.008C136.799 147.928 136.619 147.785 136.492 147.6C136.366 147.415 136.299 147.196 136.3 146.972V135.359C136.299 134.966 136.143 134.589 135.865 134.311C135.587 134.033 135.21 133.876 134.817 133.876H132.44C131.458 133.875 130.516 133.484 129.822 132.789C129.127 132.095 128.736 131.153 128.735 130.17V106.821C128.736 105.838 129.127 104.896 129.822 104.202C130.516 103.507 131.458 103.116 132.44 103.115H216.295C217.277 103.116 218.219 103.507 218.914 104.202C219.608 104.896 219.999 105.838 220 106.821V130.17C219.999 131.153 219.608 132.095 218.914 132.789C218.219 133.484 217.277 133.875 216.295 133.876H151.571C151.366 133.876 151.162 133.919 150.974 134.002C150.786 134.085 150.617 134.205 150.478 134.357L138.23 147.723C138.127 147.837 138.001 147.928 137.86 147.99C137.72 148.052 137.568 148.085 137.414 148.085C137.275 148.085 137.137 148.059 137.008 148.008Z" fill="white"/>
<path d="M137.008 148.008C136.799 147.928 136.619 147.785 136.492 147.6C136.366 147.415 136.299 147.196 136.3 146.972V135.359C136.299 134.966 136.143 134.589 135.865 134.311C135.587 134.033 135.21 133.876 134.817 133.876H132.44C131.458 133.875 130.516 133.484 129.822 132.789C129.127 132.095 128.736 131.153 128.735 130.17V106.821C128.736 105.838 129.127 104.896 129.822 104.202C130.516 103.507 131.458 103.116 132.44 103.115H216.295C217.277 103.116 218.219 103.507 218.914 104.202C219.608 104.896 219.999 105.838 220 106.821V130.17C219.999 131.153 219.608 132.095 218.914 132.789C218.219 133.484 217.277 133.875 216.295 133.876H151.571C151.366 133.876 151.162 133.919 150.974 134.002C150.786 134.085 150.617 134.205 150.478 134.357L138.23 147.723C138.127 147.837 138.001 147.928 137.86 147.99C137.72 148.052 137.568 148.085 137.414 148.085C137.275 148.085 137.137 148.059 137.008 148.008ZM132.44 103.609C131.589 103.61 130.773 103.949 130.171 104.551C129.569 105.153 129.23 105.969 129.229 106.821V130.17C129.23 131.022 129.569 131.838 130.171 132.44C130.773 133.042 131.589 133.381 132.44 133.382H134.817C135.341 133.383 135.843 133.591 136.214 133.962C136.584 134.332 136.793 134.835 136.793 135.359V146.972C136.793 147.096 136.831 147.218 136.901 147.321C136.971 147.423 137.071 147.503 137.187 147.548C137.303 147.593 137.43 147.602 137.551 147.574C137.672 147.545 137.782 147.481 137.866 147.389L150.115 134.023C150.3 133.821 150.525 133.66 150.776 133.55C151.026 133.44 151.297 133.382 151.571 133.382H216.295C217.146 133.381 217.963 133.042 218.565 132.44C219.167 131.838 219.505 131.022 219.506 130.17V106.821C219.505 105.969 219.167 105.153 218.565 104.551C217.963 103.949 217.146 103.61 216.295 103.609H132.44Z" fill="#3F3D56"/>
<path d="M110.871 155.238C107.432 157.441 103.448 158.642 99.3656 158.707C95.2827 158.772 91.2625 157.698 87.7554 155.606C88.3723 154.457 89.1541 153.405 90.0757 152.483C91.4977 151.053 93.2284 149.969 95.1346 149.313C97.0409 148.658 99.0721 148.448 101.072 148.7C103.072 148.952 104.988 149.659 106.672 150.767C108.356 151.875 109.764 153.355 110.787 155.093C110.814 155.139 110.844 155.189 110.871 155.238Z" fill="#FF7A73"/>
<path d="M98.3483 143.431C104.374 143.431 109.259 138.544 109.259 132.517C109.259 126.489 104.374 121.603 98.3483 121.603C92.3227 121.603 87.438 126.489 87.438 132.517C87.438 138.544 92.3227 143.431 98.3483 143.431Z" fill="#2F2E41"/>
<path d="M106.467 140.215C108.618 136.278 107.172 131.343 103.236 129.191C99.3013 127.039 94.3674 128.486 92.2163 132.422C90.0651 136.359 91.5113 141.294 95.4465 143.446C99.3816 145.598 104.316 144.151 106.467 140.215Z" fill="#FFB8B8"/>
<path d="M90.8088 131.209C92.6644 132.489 94.8669 133.169 97.1205 133.16C96.3166 133.718 95.4015 134.095 94.4381 134.264C97.4344 134.907 100.531 134.925 103.535 134.316C104.202 134.208 104.846 133.987 105.439 133.661C105.734 133.496 105.991 133.271 106.194 133C106.396 132.729 106.54 132.419 106.614 132.089C106.814 130.948 105.925 129.912 105.002 129.214C103.589 128.161 101.959 127.435 100.231 127.09C98.5024 126.745 96.719 126.788 95.0095 127.216C93.8933 127.505 92.775 127.993 92.05 128.889C91.325 129.786 91.1102 131.169 91.801 132.092L90.8088 131.209Z" fill="#2F2E41"/>
<path d="M99.0161 158.957C93.6728 158.955 88.5092 157.026 84.4725 153.524C80.4358 150.022 77.7967 145.182 77.0393 139.891C76.2818 134.599 77.4568 129.213 80.3487 124.718C83.2406 120.223 87.6555 116.922 92.7836 115.421C97.9117 113.919 103.409 114.317 108.267 116.542C113.126 118.767 117.019 122.67 119.234 127.534C121.448 132.399 121.835 137.899 120.324 143.026C118.812 148.152 115.504 152.562 111.005 155.446C107.427 157.741 103.266 158.959 99.0161 158.957ZM99.0161 115.006C94.7194 115.006 90.5192 116.28 86.9465 118.667C83.3738 121.055 80.5892 124.449 78.9447 128.42C77.3003 132.39 76.8699 136.76 77.7081 140.975C78.5462 145.191 80.6152 149.063 83.6533 152.102C86.6915 155.142 90.5624 157.211 94.7765 158.05C98.9906 158.888 103.359 158.458 107.328 156.813C111.298 155.168 114.69 152.382 117.077 148.808C119.464 145.234 120.738 141.033 120.737 136.734C120.731 130.974 118.44 125.451 114.368 121.377C110.296 117.304 104.775 115.012 99.0161 115.006Z" fill="#3F3D56"/>
<path d="M139.168 113.168C140.958 113.168 142.41 111.716 142.41 109.925C142.41 108.134 140.958 106.682 139.168 106.682C137.377 106.682 135.926 108.134 135.926 109.925C135.926 111.716 137.377 113.168 139.168 113.168Z" fill="#FF7A73"/>
<path d="M213.858 127.869H137.567C137.34 127.87 137.115 127.825 136.905 127.738C136.695 127.651 136.504 127.524 136.343 127.363C136.183 127.203 136.055 127.012 135.968 126.802C135.881 126.592 135.836 126.367 135.836 126.14C135.836 125.912 135.881 125.687 135.968 125.477C136.055 125.267 136.183 125.077 136.343 124.916C136.504 124.755 136.695 124.628 136.905 124.541C137.115 124.454 137.34 124.41 137.567 124.41H213.858C214.317 124.41 214.756 124.592 215.081 124.917C215.405 125.241 215.587 125.681 215.587 126.14C215.587 126.598 215.405 127.038 215.081 127.363C214.756 127.687 214.317 127.869 213.858 127.869Z" fill="#E6E6E6"/>
<path d="M189.004 120.519H137.567C137.34 120.519 137.115 120.474 136.905 120.388C136.695 120.301 136.504 120.173 136.343 120.013C136.183 119.852 136.055 119.661 135.968 119.451C135.881 119.242 135.836 119.016 135.836 118.789C135.836 118.562 135.881 118.337 135.968 118.127C136.055 117.917 136.183 117.726 136.343 117.565C136.504 117.405 136.695 117.277 136.905 117.191C137.115 117.104 137.34 117.059 137.567 117.06H189.004C189.462 117.06 189.901 117.243 190.225 117.567C190.549 117.891 190.731 118.331 190.731 118.789C190.731 119.247 190.549 119.687 190.225 120.011C189.901 120.336 189.462 120.518 189.004 120.519Z" fill="#E6E6E6"/>
<path d="M136.904 150.219C140.244 150.219 142.952 149.918 142.952 149.547C142.952 149.176 140.244 148.875 136.904 148.875C133.563 148.875 130.855 149.176 130.855 149.547C130.855 149.918 133.563 150.219 136.904 150.219Z" fill="#F2F2F2"/>
<path d="M82.8474 71.2056C86.1878 71.2056 88.8958 70.9049 88.8958 70.5341C88.8958 70.1632 86.1878 69.8625 82.8474 69.8625C79.507 69.8625 76.7991 70.1632 76.7991 70.5341C76.7991 70.9049 79.507 71.2056 82.8474 71.2056Z" fill="#F2F2F2"/>
<g clip-path="url(#clip1_49_357)">
<path d="M31 152.143L53.8571 175L111 117.857L168.143 175L191 152.143L133.857 95L191 37.8571L168.143 15L111 72.1429L53.8571 15L31 37.8571L88.1429 95L31 152.143Z" fill="#FF4848"/>
</g>
</g>
<defs>
<clipPath id="clip0_49_357">
<rect width="220" height="184" fill="white"/>
</clipPath>
<clipPath id="clip1_49_357">
<rect width="160" height="160" fill="white" transform="translate(31 15)"/>
</clipPath>
</defs>
</svg>
