<?xml version="1.0" standalone="no"?>
<!DOCTYPE svg PUBLIC "-//W3C//DTD SVG 20010904//EN"
 "http://www.w3.org/TR/2001/REC-SVG-20010904/DTD/svg10.dtd">
<svg version="1.0" xmlns="http://www.w3.org/2000/svg"
 width="928.000000pt" height="928.000000pt" viewBox="0 0 928.000000 928.000000"
 preserveAspectRatio="xMidYMid meet">
<metadata>
Created by potrace 1.14, written by Peter Selinger 2001-2017
</metadata>
<g transform="translate(0.000000,928.000000) scale(0.100000,-0.100000)"
fill="#000000" stroke="none">
<path d="M4025 7903 c-147 -12 -242 -29 -348 -64 -229 -75 -449 -209 -625
-382 -187 -183 -309 -374 -412 -644 -24 -62 -48 -113 -55 -113 -7 0 -30 13
-51 28 -140 100 -415 212 -627 254 -148 29 -426 32 -592 4 -466 -76 -889 -382
-1088 -788 -56 -113 -92 -219 -109 -319 -16 -96 -16 -424 1 -509 45 -228 239
-594 423 -796 464 -512 1305 -956 2323 -1229 345 -92 923 -226 972 -224 11 0
51 41 100 102 44 56 139 169 210 250 70 82 147 176 170 210 71 103 61 105 144
-40 227 -399 530 -842 897 -1309 l97 -124 80 0 c132 0 366 33 701 99 1601 317
2626 926 2878 1711 101 313 74 647 -77 945 -224 444 -686 729 -1252 775 -289
24 -553 -29 -854 -170 -71 -33 -135 -60 -143 -60 -7 0 -25 35 -41 83 -35 101
-152 336 -211 425 -186 279 -502 512 -864 636 -72 25 -140 50 -151 55 -15 8
-27 42 -50 141 -35 147 -64 228 -121 341 -85 172 -230 344 -384 461 -92 69
-279 162 -416 207 -131 42 -336 60 -525 44z m369 -478 c50 -14 129 -46 177
-71 206 -106 299 -212 410 -466 52 -121 60 -162 32 -176 -10 -5 -52 -17 -93
-26 -216 -49 -404 -145 -551 -282 -323 -299 -464 -709 -420 -1224 23 -272 60
-452 154 -738 l54 -164 -91 -132 c-164 -237 -346 -461 -405 -498 -26 -17 -32
-16 -147 7 -387 81 -942 246 -1288 385 -820 329 -1342 724 -1580 1198 -69 137
-76 175 -76 403 0 230 8 267 86 399 129 219 370 403 619 474 277 78 545 54
823 -75 186 -86 247 -134 585 -461 132 -128 242 -227 246 -222 5 5 16 101 26
214 40 491 80 661 202 875 184 320 474 537 808 601 113 22 319 12 429 -21z
m636 -1190 c19 -23 6 -149 -30 -290 -71 -281 -162 -511 -335 -855 -111 -218
-158 -300 -175 -300 -16 0 -28 40 -68 215 -33 150 -35 172 -36 340 -1 199 11
274 66 417 82 216 275 398 498 469 68 22 65 22 80 4z m649 -71 c121 -57 204
-117 317 -229 121 -120 185 -208 250 -340 91 -187 124 -349 150 -730 8 -132
18 -250 20 -263 4 -20 23 -6 167 130 383 362 537 464 814 534 94 24 128 28
258 28 256 1 454 -57 660 -195 314 -211 464 -556 380 -874 -22 -80 -90 -223
-151 -315 -60 -92 -231 -271 -340 -356 -314 -245 -816 -478 -1368 -634 -273
-77 -1032 -240 -1117 -240 -54 0 -82 27 -235 232 -284 380 -671 992 -764 1208
l-28 64 30 61 c17 33 55 101 86 150 164 269 388 723 512 1035 46 118 97 300
151 540 23 102 47 200 55 218 16 40 17 40 153 -24z"/>
<path d="M3455 2190 c-10 -11 -46 -34 -79 -50 -75 -36 -141 -45 -504 -65 -150
-8 -308 -22 -350 -30 -120 -24 -207 -72 -289 -158 -154 -162 -191 -341 -76
-363 l32 -6 -2 108 c-1 95 1 114 20 149 64 119 205 181 476 210 77 8 143 13
144 11 2 -2 -53 -109 -123 -237 -250 -463 -315 -558 -417 -611 -33 -17 -59
-22 -128 -22 -73 0 -93 4 -141 27 -81 40 -84 45 -80 154 3 87 2 94 -15 91 -45
-8 -70 -147 -40 -221 20 -48 64 -95 111 -120 66 -35 172 -31 258 10 94 44 129
74 207 178 135 179 217 316 345 572 l85 170 123 8 c187 11 290 29 343 59 57
34 158 132 150 146 -10 16 -30 12 -50 -10z"/>
<path d="M5778 2069 c-66 -15 -200 -89 -254 -140 -83 -79 -118 -190 -94 -304
21 -101 92 -157 220 -171 36 -3 71 -10 78 -13 9 -5 -19 -35 -83 -91 -184 -161
-283 -212 -420 -218 -120 -6 -158 9 -187 74 -23 54 -20 114 8 145 21 23 13 35
-14 20 -31 -16 -61 -59 -73 -104 -15 -56 9 -115 67 -166 61 -54 113 -66 205
-46 129 27 288 127 501 318 160 142 207 181 214 174 3 -3 -9 -52 -26 -109 -25
-80 -33 -128 -37 -214 -5 -103 -4 -113 15 -132 54 -54 174 -31 254 49 64 64
90 124 96 220 5 94 -20 164 -63 175 -36 9 -41 0 -17 -31 52 -66 52 -155 1
-261 -35 -74 -99 -144 -132 -144 -55 0 -83 91 -66 221 12 97 29 148 101 300
32 70 60 139 61 154 4 55 -23 35 -88 -64 -59 -92 -85 -119 -85 -90 0 6 16 33
36 60 66 90 91 201 63 276 -35 93 -157 142 -281 112z m81 -40 c69 -15 91 -43
91 -121 0 -74 -28 -159 -88 -267 -63 -112 -97 -141 -165 -141 -99 0 -164 76
-174 204 -13 160 80 298 220 326 59 11 60 11 116 -1z"/>
<path d="M3302 1973 c-30 -11 -184 -257 -279 -447 -119 -238 -130 -336 -47
-417 29 -28 42 -34 77 -33 77 2 171 64 207 139 24 49 20 85 -10 85 -19 0 -40
-23 -93 -104 -18 -27 -44 -58 -59 -69 -54 -40 -108 7 -108 93 0 65 30 139 186
454 81 163 145 298 143 300 -2 2 -10 1 -17 -1z"/>
<path d="M2986 1848 c-46 -78 -204 -400 -259 -528 -44 -103 -53 -162 -26 -168
19 -4 81 112 207 388 113 250 154 370 124 370 -5 0 -25 -28 -46 -62z"/>
<path d="M3470 1526 c-97 -27 -150 -73 -70 -60 25 4 40 3 40 -4 0 -6 -20 -52
-45 -104 -58 -121 -65 -152 -35 -168 33 -18 87 1 146 50 83 69 131 72 121 9
-6 -41 7 -69 32 -69 43 0 144 64 221 141 44 43 80 84 80 89 0 17 -28 -2 -110
-75 -135 -120 -172 -119 -104 2 21 38 49 90 63 117 24 47 24 49 6 62 -16 12
-22 11 -42 -8 -13 -12 -36 -44 -52 -72 -56 -98 -106 -121 -127 -58 -5 17 -15
37 -22 44 -17 17 -42 -8 -42 -44 0 -32 -30 -97 -55 -118 -12 -10 -19 -10 -27
-2 -9 9 2 40 46 126 75 149 72 169 -24 142z"/>
<path d="M4346 1488 c-86 -99 -154 -278 -111 -294 9 -4 33 1 53 12 67 33 69
34 103 8 41 -30 88 -31 146 -3 45 22 153 114 153 130 0 18 -20 8 -77 -39 -70
-59 -94 -72 -127 -72 -19 0 -27 7 -32 26 -5 20 6 50 47 130 42 80 51 106 42
115 -24 24 -62 -9 -128 -110 -99 -152 -110 -148 -40 13 25 57 45 111 45 120 0
30 -28 16 -74 -36z"/>
</g>
</svg>
