<svg width="201" height="153" viewBox="0 0 201 153" fill="none" xmlns="http://www.w3.org/2000/svg">
<g clip-path="url(#clip0_36_349)">
<path d="M100.355 78.4989C97.6693 78.4989 95.0933 77.424 93.194 75.5106C91.2947 73.5973 90.2277 71.0023 90.2277 68.2965C90.2277 65.5906 91.2947 62.9956 93.194 61.0823C95.0933 59.1689 97.6693 58.0941 100.355 58.0941C100.404 58.0941 100.452 58.097 100.5 58.0977V46.1184L100.398 46.0154L100.293 46.121C98.3872 44.2234 96.117 42.7379 93.6213 41.7556C91.1256 40.7733 88.457 40.3148 85.7791 40.4084C83.1013 40.502 80.4706 41.1456 78.0485 42.2997C75.6263 43.4539 73.4637 45.0943 71.6932 47.1203C69.9227 49.1464 68.5817 51.5154 67.7524 54.0821C66.9231 56.6488 66.6229 59.3591 66.8703 62.0468C67.1178 64.7345 67.9075 67.343 69.1912 69.7123C70.4749 72.0816 72.2255 74.1618 74.3356 75.8253L98.5105 100.179C98.6658 100.335 98.8635 100.442 99.0788 100.485C99.2942 100.529 99.5174 100.507 99.7205 100.423C99.9235 100.338 100.097 100.196 100.22 100.012C100.342 99.8285 100.408 99.6125 100.409 99.3913L100.5 78.4952C100.452 78.4959 100.404 78.4989 100.355 78.4989Z" fill="#FF7A73"/>
<path d="M130.03 47.8302C129.534 47.1913 128.999 46.5837 128.429 46.0109H128.429C126.602 44.1703 124.433 42.7102 122.046 41.7141C119.658 40.7179 117.1 40.2052 114.516 40.2052C111.932 40.2052 109.373 40.7179 106.986 41.714C104.599 42.7102 102.429 44.1702 100.602 46.0109L100.602 46.0109C100.568 46.0454 100.537 46.0818 100.503 46.1166L100.5 46.114V58.0933C100.452 58.0926 100.404 58.0896 100.355 58.0896C99.9194 58.0905 99.484 58.1196 99.0517 58.1766C98.8938 57.5359 98.5892 56.9412 98.1623 56.4403C97.7354 55.9395 97.198 55.5462 96.5932 55.292C95.9883 55.0379 95.3328 54.9299 94.6791 54.9767C94.0254 55.0236 93.3917 55.2239 92.8287 55.5617C92.2656 55.8996 91.7889 56.3655 91.4366 56.9222C91.0844 57.4789 90.8664 58.111 90.8001 58.7678C90.7338 59.4246 90.8211 60.0879 91.0549 60.7046C91.2888 61.3214 91.6627 61.8744 92.1468 62.3194C91.9045 62.656 91.6828 63.0072 91.4831 63.3711C90.91 63.2725 90.3228 63.295 89.7587 63.437C89.1947 63.5789 88.666 63.8374 88.2063 64.1959C87.7465 64.5544 87.3657 65.0052 87.0879 65.5197C86.8101 66.0342 86.6413 66.6012 86.5924 67.1848C86.5434 67.7685 86.6153 68.356 86.8035 68.9101C86.9917 69.4643 87.292 69.9731 87.6856 70.4042C88.0791 70.8354 88.5572 71.1795 89.0896 71.4148C89.622 71.6501 90.1972 71.7715 90.7786 71.7712C90.7965 71.7712 90.8138 71.7687 90.8317 71.7685C91.1225 72.5757 91.5137 73.3426 91.9958 74.0508C91.661 74.5247 91.4269 75.0632 91.3081 75.6324C91.1892 76.2016 91.1882 76.7894 91.3051 77.3591C91.422 77.9287 91.6543 78.4679 91.9874 78.943C92.3206 79.4181 92.7475 79.8189 93.2414 80.1202C93.7352 80.4216 94.2855 80.6171 94.8578 80.6945C95.4301 80.7719 96.0121 80.7295 96.5674 80.57C97.1227 80.4106 97.6394 80.1374 98.0851 79.7676C98.5308 79.3979 98.8961 78.9394 99.158 78.421C99.5553 78.4691 99.9551 78.4936 100.355 78.4944C100.404 78.4944 100.452 78.4914 100.5 78.4907V99.2671C100.5 99.4887 100.565 99.7054 100.687 99.8897C100.81 100.074 100.983 100.218 101.187 100.302C101.39 100.387 101.614 100.409 101.829 100.366C102.045 100.323 102.243 100.216 102.399 100.059L126.664 75.6147C130.768 72.3799 133.428 67.6353 134.06 62.4247C134.691 57.2141 133.241 51.9643 130.03 47.8302Z" fill="#F2F2F2"/>
<path d="M167.692 147.546L164.839 147.502L163.651 136.397L167.861 136.462L167.692 147.546Z" fill="#FFB6B6"/>
<path d="M169.107 152.328L169.087 152.057L168.997 150.706L168.653 145.593L167.723 145.523L164.6 145.286L164.099 145.246L164.071 147.216L159.691 150.161C159.506 150.286 159.358 150.46 159.264 150.664C159.17 150.868 159.133 151.093 159.157 151.317C159.181 151.54 159.266 151.752 159.401 151.93C159.537 152.109 159.718 152.246 159.926 152.328C160.061 152.382 160.204 152.411 160.349 152.413L165.777 152.497L165.861 152.328L166.74 150.565L167.043 152.328L167.076 152.517L169.121 152.548L169.107 152.328Z" fill="#2F2E41"/>
<path d="M173.517 143.881L171.268 145.649L163.428 137.75L166.748 135.141L173.517 143.881Z" fill="#FFB6B6"/>
<path d="M177.744 146.874L173.05 141.751L172.28 142.284L169.703 144.073L169.289 144.361L170.49 145.912L168.997 150.706L168.913 150.974C168.857 151.156 168.843 151.348 168.873 151.536C168.903 151.724 168.977 151.903 169.087 152.057C169.095 152.071 169.107 152.083 169.115 152.097C169.183 152.186 169.264 152.264 169.356 152.328C169.566 152.484 169.82 152.568 170.081 152.568C170.343 152.569 170.597 152.485 170.807 152.328C170.815 152.323 170.821 152.317 170.829 152.311L175.106 148.948L174.655 146.835L176.131 148.141L177.744 146.874Z" fill="#2F2E41"/>
<path d="M175.717 74.3614L172.097 60.8631C171.942 60.2917 171.57 59.8046 171.061 59.5069C170.553 59.2092 169.949 59.1249 169.379 59.272V59.272C169.094 59.3457 168.826 59.4751 168.591 59.653C168.356 59.8309 168.157 60.0537 168.008 60.3088C167.858 60.5638 167.759 60.8461 167.718 61.1395C167.676 61.4329 167.692 61.7317 167.765 62.0188C167.775 62.0575 167.786 62.0958 167.798 62.1339L171.985 76.0392L174.176 84.5966C173.857 84.842 173.62 85.1805 173.499 85.5659C173.378 85.9513 173.377 86.3651 173.497 86.751C173.617 87.1369 173.852 87.4762 174.17 87.7228C174.488 87.9694 174.874 88.1114 175.275 88.1294C175.676 88.1474 176.073 88.0406 176.412 87.8236C176.75 87.6065 177.015 87.2896 177.168 86.9161C177.322 86.5425 177.358 86.1303 177.271 85.7355C177.184 85.3406 176.979 84.9824 176.682 84.7093L175.717 74.3614Z" fill="#FFB8B8"/>
<path d="M149.401 71.6238L159.063 61.5856C159.471 61.1591 159.697 60.5881 159.69 59.9957C159.684 59.4034 159.447 58.8372 159.03 58.4194V58.4194C158.822 58.2104 158.574 58.0448 158.302 57.9321C158.03 57.8194 157.739 57.7618 157.444 57.7625C157.15 57.7633 156.859 57.8224 156.588 57.9365C156.316 58.0507 156.069 58.2175 155.862 58.4277C155.834 58.4559 155.807 58.485 155.78 58.5147L146.061 69.2519L139.883 75.5255C139.51 75.3748 139.101 75.3433 138.71 75.4353C138.319 75.5273 137.965 75.7383 137.698 76.0396C137.43 76.341 137.261 76.718 137.213 77.1196C137.166 77.5211 137.242 77.9277 137.432 78.2841C137.621 78.6404 137.915 78.9293 138.274 79.1115C138.632 79.2936 139.038 79.3602 139.435 79.3022C139.832 79.2442 140.202 79.0643 140.494 78.7871C140.787 78.5099 140.987 78.1488 141.069 77.7528L149.401 71.6238Z" fill="#FFB8B8"/>
<path d="M156.545 73.675L158.449 82.1684L170.855 81.3872C169.56 77.004 169.107 76.1194 170.081 73.069L156.545 73.675Z" fill="#FFB8B8"/>
<path d="M165.906 53.6768H160.833L158.655 57.432L157.617 57.3743C155.474 57.2551 150.311 61.8378 150.311 64L153.279 67.8473L155.864 65.5038C155.864 65.5038 152.663 67.1483 155.957 69.1238C155.957 69.1238 155.37 72.846 155.957 72.8059C156.545 72.7659 157.899 72.0084 156.545 72.7659C155.192 73.5235 155.293 73.6252 155.468 73.8016L155.643 73.978L169.875 76.3855C169.875 76.3855 170.292 73.606 170.337 73.1102C170.381 72.6144 170.081 73.8265 170.381 72.6144C170.682 71.4024 171.133 71.8569 170.682 71.4024C170.231 70.9479 171.538 65.3169 170.151 63.1327L169.563 69.9304L174.474 68.3681C175.074 65.6544 174.529 62.8699 173.182 60.0358C173.182 57.9406 171.102 57.1549 169.022 57.1549H168.756L165.906 53.6768Z" fill="#E6E6E6"/>
<path d="M171.343 80.5939L171.772 85.3941C171.772 85.3941 176.592 90.2122 174.957 96.3958C173.323 102.579 170.279 119.424 170.279 119.424C170.279 119.424 171.899 134.658 168.475 141.272L163.327 140.239L160.251 119.572L158.848 96.0698L157.741 89.3946L158.449 81.6477L171.343 80.5939Z" fill="#2F2E41"/>
<path d="M161.166 86.6531L157.741 89.3946L150.339 121.344L166.831 142.538L170.013 139.575L158.966 120.184L161.55 102.739L159.624 94.5076L161.166 86.6531Z" fill="#2F2E41"/>
<path d="M156.048 46.5797C157.783 49.5906 154.516 54.6636 157.808 55.717L157.537 55.4438C155.549 52.9812 159.703 47.7689 157.716 45.3063C157.407 44.9451 157.142 44.5482 156.926 44.1239L156.048 46.5797Z" fill="#2F2E41"/>
<path d="M169.584 46.1233C169.585 47.099 169.347 48.06 168.893 48.9217C168.439 49.7834 167.781 50.5196 166.979 51.0657C166.176 51.6117 165.252 51.9509 164.289 52.0535C163.326 52.1561 162.352 52.0189 161.454 51.6539C160.556 51.289 159.76 50.7075 159.137 49.9605C158.514 49.2135 158.082 48.3238 157.88 47.3696C157.678 46.4153 157.711 45.4256 157.978 44.4874C158.244 43.5493 158.734 42.6912 159.407 41.9887L159.435 41.9601C159.482 41.91 159.53 41.8599 159.579 41.8122C159.58 41.8122 159.58 41.8122 159.58 41.8121C159.581 41.812 159.581 41.8118 159.581 41.8116C159.581 41.8114 159.581 41.8111 159.582 41.8108C159.582 41.8106 159.582 41.8103 159.582 41.8099V41.8099C159.643 41.7526 159.705 41.6954 159.769 41.6406C160.624 40.8854 161.677 40.3945 162.802 40.2266C163.927 40.0587 165.076 40.221 166.111 40.6939C167.147 41.1669 168.025 41.9306 168.641 42.8935C169.257 43.8564 169.585 44.9778 169.584 46.1233L169.584 46.1233Z" fill="#2F2E41"/>
<path d="M162.209 52.5011C164.95 52.5011 167.171 50.2631 167.171 47.5025C167.171 44.7419 164.95 42.5039 162.209 42.5039C159.469 42.5039 157.247 44.7419 157.247 47.5025C157.247 50.2631 159.469 52.5011 162.209 52.5011Z" fill="#FFB8B8"/>
<path d="M165.754 42.6965C164.986 41.9718 164.03 41.4801 162.996 41.278C161.963 41.0758 160.894 41.1715 159.912 41.5538C159.887 41.5651 159.859 41.5764 159.833 41.5877C159.735 41.6272 159.637 41.6723 159.539 41.7203L159.483 41.7457V41.7541L159.45 41.7795C159.427 41.8008 159.399 41.8163 159.369 41.8247C158.937 41.8131 158.509 41.8933 158.111 42.0601C157.713 42.2269 157.354 42.4764 157.058 42.7924C156.291 43.6332 155.926 44.9931 156.038 46.6183L156.041 46.6691L156.086 46.6973C156.1 46.7057 156.111 46.7142 156.125 46.7227C156.517 46.9681 156.89 47.1854 157.251 47.3772C157.47 47.4957 157.683 47.6029 157.895 47.7017L157.971 47.7355C158.052 47.775 158.136 47.8117 158.217 47.8484C160.268 48.7513 162.158 48.8923 163.973 48.2857L164.007 48.2744L164.617 47.2446L164.81 46.9202C164.852 47.1515 164.878 47.5155 164.906 47.933C164.937 48.5849 165.009 49.2342 165.121 49.877V49.8826C165.233 50.4526 165.407 50.9125 165.693 51.0648C165.735 51.0921 165.783 51.1103 165.833 51.1184L166.286 50.5146L167.479 48.929L167.499 48.8359C167.984 46.6324 167.283 44.1664 165.754 42.6965Z" fill="#2F2E41"/>
<path d="M185.362 51.3893C184.357 52.7323 181.724 55.0035 180.248 55.7879C180.1 55.8669 179.951 55.9402 179.8 56.0079C179.948 55.6525 179.976 55.2582 179.881 54.885C179.713 54.438 179.44 54.0383 179.086 53.7198C178.175 52.7577 177.264 51.7965 176.352 50.8363C176.965 51.6542 177.401 52.5926 177.632 53.5908C177.862 54.5891 177.882 55.6249 177.691 56.6315C176.93 56.7459 176.155 56.7229 175.403 56.5637C173.773 56.2082 172.277 55.0966 171.63 53.5476C171.078 52.2385 171.157 50.7516 171.333 49.3409C171.51 47.9302 171.781 46.5026 171.585 45.0947C171.392 43.684 170.622 42.2535 169.308 41.7287C169.373 41.7822 169.426 41.8491 169.463 41.9249C169.5 42.0007 169.521 42.0836 169.524 42.1681C169.526 42.2526 169.511 42.3367 169.479 42.4147C169.446 42.4927 169.398 42.5628 169.336 42.6203C169.138 42.792 168.881 42.8791 168.619 42.8629C168.538 42.8636 168.456 42.857 168.376 42.8432C167.331 42.6767 166.566 41.7965 165.9 40.967C165.731 40.9431 165.572 40.8732 165.441 40.7647C165.309 40.6563 165.209 40.5135 165.152 40.3519C165.089 40.1818 165.089 39.9944 165.152 39.8243C165.217 39.6937 165.314 39.5814 165.433 39.4975C165.552 39.4136 165.689 39.3606 165.834 39.3433C165.978 39.3259 166.124 39.3448 166.259 39.3982C166.394 39.4516 166.514 39.5379 166.608 39.6494C166.51 39.2475 166.499 38.8291 166.576 38.4226C166.653 38.0161 166.816 37.631 167.054 37.2936C167.292 36.9562 167.599 36.6745 167.955 36.4675C168.31 36.2606 168.706 36.1333 169.115 36.0944C170.322 35.9787 172.241 35.7953 173.039 36.7179C174.285 38.1625 176.198 39.6099 176.4 41.5143C176.599 43.4159 177.643 43.0379 178.08 44.9C178.517 46.765 180.312 47.4082 182.001 48.2857C183.889 49.2676 183.628 52.6307 185.362 51.3893Z" fill="#2F2E41"/>
<path d="M164.58 47.1794C166.314 50.1902 163.048 55.2633 166.34 56.3167L166.069 56.0435C164.081 53.5808 168.235 48.3686 166.248 45.906C165.939 45.5448 165.674 45.1478 165.458 44.7236L164.58 47.1794Z" fill="#2F2E41"/>
<path d="M167.267 48.789C166.697 47.057 165.675 45.5115 164.308 44.3146C162.94 43.1177 161.279 42.3134 159.497 41.9863C159.489 41.9839 159.466 41.9744 159.435 41.9601C159.416 41.9482 159.392 41.9362 159.369 41.9243C159.44 41.8838 159.508 41.848 159.579 41.8122C159.58 41.8122 159.58 41.8122 159.58 41.8121C159.581 41.812 159.581 41.8118 159.581 41.8116C159.581 41.8114 159.581 41.8111 159.582 41.8108C159.582 41.8106 159.582 41.8103 159.582 41.8099V41.8098C159.643 41.7526 159.705 41.6954 159.769 41.6406L159.949 41.6477C159.949 41.6477 166.271 40.6391 167.267 48.789Z" fill="#FD6584"/>
<path d="M68.3721 61.7768C68.3064 62.2484 68.0605 62.6756 67.6869 62.9674C67.3133 63.2592 66.8414 63.3926 66.3716 63.3393C66.2763 63.327 66.1821 63.3067 66.0901 63.2787L58.209 72.8998L55.6883 69.5141L64.9804 60.9351C65.1252 60.5598 65.3892 60.2433 65.7314 60.0351C66.0735 59.8268 66.4744 59.7385 66.8716 59.784C67.0973 59.812 67.3154 59.8846 67.5133 59.9975C67.7112 60.1105 67.8851 60.2616 68.025 60.4422C68.165 60.6228 68.2682 60.8295 68.3289 61.0503C68.3896 61.2712 68.4065 61.5019 68.3786 61.7293C68.3767 61.7451 68.3745 61.761 68.3721 61.7768Z" fill="#A0616A"/>
<path d="M45.054 59.896C45.054 59.896 50.3137 59.2946 51.4339 61.8339C52.5542 64.3731 55.3775 69.6605 55.3775 69.6605C55.3775 69.6605 53.9297 70.2818 55.4083 68.6676C56.0709 67.9443 54.8481 68.3855 55.6883 68.1034C56.5286 67.8212 56.8086 68.1034 56.8086 68.1034L59.6094 72.8998C59.6094 72.8998 59.3841 73.9928 57.9289 74.0283C56.4738 74.0639 58.7691 72.6176 56.8086 74.5926C55.7963 75.6124 55.1102 75.2247 55.1102 75.2247L42.7252 68.3207L45.054 59.896Z" fill="#3F3D56"/>
<path d="M21.0226 97.7929C21.3587 97.4579 21.5518 97.0041 21.5609 96.5279C21.5699 96.0518 21.3941 95.5908 21.0709 95.2432C21.0042 95.1736 20.9318 95.1097 20.8545 95.0521L24.6002 81.364L20.1191 79.389L18.326 95.556C18.1137 95.8973 18.0196 96.2997 18.0583 96.7005C18.097 97.1012 18.2663 97.4778 18.5398 97.7715C18.697 97.9371 18.8851 98.0699 19.0932 98.1623C19.3014 98.2546 19.5255 98.3048 19.7529 98.3099C19.9803 98.315 20.2065 98.2749 20.4185 98.192C20.6306 98.109 20.8243 97.9848 20.9887 97.8265V97.8265C21.0001 97.8154 21.0114 97.8042 21.0226 97.7929Z" fill="#A0616A"/>
<path d="M31.232 58.387C31.232 58.387 28.9765 55.0582 25.1217 59.3829C21.2668 63.7077 20.0649 74.9867 20.2458 75.6954C20.4266 76.4041 21.4432 75.9975 20.2347 77.1883C19.0262 78.3791 18.186 77.5327 19.0262 78.3791C19.8664 79.2255 19.5955 80.4926 18.1585 80.7997C16.7216 81.1068 24.3358 82.3266 24.3358 82.3266C24.3358 82.3266 25.1504 82.0268 25.1848 80.0498C25.2041 78.9394 24.6439 78.3752 25.4842 78.093C26.3244 77.8109 25.2912 75.9268 25.3795 75.6011C25.4679 75.2755 29.1089 69.3506 29.1089 69.3506L31.232 58.387Z" fill="#3F3D56"/>
<path d="M81.9651 140.016C82.0821 139.205 81.2394 138.411 80.0827 138.241C78.926 138.072 77.8934 138.591 77.7763 139.402C77.6593 140.213 78.502 141.007 79.6587 141.177C80.8154 141.346 81.848 140.827 81.9651 140.016Z" fill="#F2F2F2"/>
<path d="M95.7367 138.662C95.8537 137.852 95.011 137.057 93.8543 136.888C92.6976 136.718 91.665 137.238 91.5479 138.048C91.4309 138.859 92.2736 139.654 93.4303 139.823C94.587 139.993 95.6196 139.473 95.7367 138.662Z" fill="#F2F2F2"/>
<path d="M78.194 128.785C78.3111 127.974 77.4683 127.179 76.3116 127.01C75.1549 126.84 74.1223 127.36 74.0053 128.171C73.8882 128.981 74.731 129.776 75.8876 129.945C77.0443 130.115 78.0769 129.595 78.194 128.785Z" fill="#F2F2F2"/>
<path d="M72.2099 124.184C72.2154 123.44 71.8034 122.833 71.2895 122.829C70.7756 122.825 70.3545 123.426 70.3489 124.17C70.3433 124.914 70.7554 125.52 71.2693 125.524C71.7832 125.528 72.2043 124.928 72.2099 124.184Z" fill="#F2F2F2"/>
<path d="M70.1805 115.615C70.1861 114.871 69.7741 114.264 69.2602 114.26C68.7463 114.256 68.3252 114.856 68.3196 115.601C68.314 116.345 68.7261 116.951 69.24 116.955C69.7538 116.959 70.175 116.359 70.1805 115.615Z" fill="#F2F2F2"/>
<path d="M85.9613 130.696C85.9669 129.952 85.5548 129.345 85.0409 129.341C84.5271 129.337 84.1059 129.937 84.1004 130.682C84.0948 131.426 84.5068 132.032 85.0207 132.036C85.5346 132.04 85.9557 131.44 85.9613 130.696Z" fill="#F2F2F2"/>
<path d="M79.3063 134.043C79.3118 133.299 78.8998 132.693 78.3859 132.689C77.872 132.685 77.4509 133.285 77.4453 134.029C77.4397 134.773 77.8518 135.38 78.3657 135.383C78.8796 135.387 79.3007 134.787 79.3063 134.043Z" fill="#F2F2F2"/>
<path d="M88.5703 140.23C88.5759 139.486 88.1638 138.879 87.6499 138.875C87.1361 138.871 86.7149 139.472 86.7094 140.216C86.7038 140.96 87.1158 141.566 87.6297 141.57C88.1436 141.574 88.5647 140.974 88.5703 140.23Z" fill="#F2F2F2"/>
<path d="M135.739 40.7022C135.856 39.8916 135.013 39.097 133.857 38.9275C132.7 38.758 131.667 39.2777 131.55 40.0883C131.433 40.8989 132.276 41.6934 133.433 41.8629C134.589 42.0325 135.622 41.5128 135.739 40.7022Z" fill="#F2F2F2"/>
<path d="M149.511 39.3485C149.628 38.5379 148.785 37.7433 147.628 37.5738C146.472 37.4042 145.439 37.9239 145.322 38.7345C145.205 39.5451 146.048 40.3396 147.204 40.5092C148.361 40.6787 149.394 40.159 149.511 39.3485Z" fill="#F2F2F2"/>
<path d="M131.968 29.4706C132.085 28.66 131.242 27.8655 130.086 27.6959C128.929 27.5264 127.896 28.0461 127.779 28.8567C127.662 29.6673 128.505 30.4618 129.662 30.6314C130.818 30.8009 131.851 30.2812 131.968 29.4706Z" fill="#F2F2F2"/>
<path d="M125.984 24.8701C125.989 24.1259 125.577 23.5195 125.064 23.5156C124.55 23.5116 124.129 24.1117 124.123 24.8559C124.117 25.6 124.529 26.2065 125.043 26.2104C125.557 26.2143 125.978 25.6142 125.984 24.8701Z" fill="#F2F2F2"/>
<path d="M123.955 16.301C123.96 15.5568 123.548 14.9504 123.034 14.9465C122.52 14.9426 122.099 15.5426 122.094 16.2868C122.088 17.031 122.5 17.6374 123.014 17.6413C123.528 17.6452 123.949 17.0451 123.955 16.301Z" fill="#F2F2F2"/>
<path d="M139.735 31.382C139.741 30.6378 139.329 30.0314 138.815 30.0275C138.301 30.0235 137.88 30.6236 137.874 31.3678C137.869 32.112 138.281 32.7184 138.795 32.7223C139.309 32.7262 139.73 32.1261 139.735 31.382Z" fill="#F2F2F2"/>
<path d="M133.08 34.7293C133.086 33.9851 132.674 33.3787 132.16 33.3748C131.646 33.3708 131.225 33.9709 131.219 34.7151C131.214 35.4592 131.626 36.0657 132.14 36.0696C132.654 36.0735 133.075 35.4734 133.08 34.7293Z" fill="#F2F2F2"/>
<path d="M142.344 40.916C142.35 40.1719 141.938 39.5654 141.424 39.5615C140.91 39.5576 140.489 40.1577 140.483 40.9018C140.478 41.646 140.89 42.2524 141.404 42.2564C141.918 42.2603 142.339 41.6602 142.344 40.916Z" fill="#F2F2F2"/>
<path d="M129.207 0H71.7925C70.6412 0 69.537 0.460745 68.7229 1.28088C67.9087 2.10101 67.4514 3.21335 67.4514 4.3732C67.4514 5.53304 67.9087 6.64537 68.7229 7.46551C69.537 8.28564 70.6412 8.74639 71.7925 8.74639H129.207C130.359 8.74639 131.463 8.28564 132.277 7.46551C133.091 6.64537 133.549 5.53304 133.549 4.3732C133.549 3.21335 133.091 2.10101 132.277 1.28088C131.463 0.460745 130.359 0 129.207 0Z" fill="#E6E6E6"/>
<path d="M179.5 15.7392H21.4998C21.3195 15.7352 21.148 15.6602 21.0219 15.5304C20.8959 15.4006 20.8253 15.2262 20.8253 15.0445C20.8253 14.8629 20.8959 14.6885 21.0219 14.5587C21.148 14.4288 21.3195 14.3539 21.4998 14.3499H179.5C179.68 14.3539 179.852 14.4288 179.978 14.5587C180.104 14.6885 180.175 14.8629 180.175 15.0445C180.175 15.2262 180.104 15.4006 179.978 15.5304C179.852 15.6602 179.68 15.7352 179.5 15.7392Z" fill="#E6E6E6"/>
<path d="M29.3903 6.853C30.6983 6.853 31.7587 5.76096 31.7587 4.41387C31.7587 3.06677 30.6983 1.97473 29.3903 1.97473C28.0822 1.97473 27.0218 3.06677 27.0218 4.41387C27.0218 5.76096 28.0822 6.853 29.3903 6.853Z" fill="#E6E6E6"/>
<path d="M37.5723 6.853C38.8803 6.853 39.9407 5.76096 39.9407 4.41387C39.9407 3.06677 38.8803 1.97473 37.5723 1.97473C36.2642 1.97473 35.2038 3.06677 35.2038 4.41387C35.2038 5.76096 36.2642 6.853 37.5723 6.853Z" fill="#E6E6E6"/>
<path d="M45.7542 6.853C47.0623 6.853 48.1227 5.76096 48.1227 4.41387C48.1227 3.06677 47.0623 1.97473 45.7542 1.97473C44.4462 1.97473 43.3858 3.06677 43.3858 4.41387C43.3858 5.76096 44.4462 6.853 45.7542 6.853Z" fill="#E6E6E6"/>
<path d="M55.0839 6.34169C55.0466 6.34174 55.0096 6.33426 54.9752 6.31968C54.9409 6.3051 54.9097 6.28373 54.8837 6.25682L53.2856 4.61109C53.2343 4.55839 53.2057 4.48757 53.2057 4.41382C53.2057 4.34006 53.2343 4.26924 53.2856 4.21653L54.8837 2.57094C54.9091 2.54406 54.9395 2.5225 54.9733 2.5075C55.007 2.49251 55.0433 2.48436 55.0802 2.48353C55.117 2.4827 55.1537 2.48921 55.188 2.50268C55.2223 2.51615 55.2537 2.53632 55.2803 2.56203C55.3069 2.58773 55.3282 2.61848 55.343 2.6525C55.3578 2.68651 55.3657 2.72314 55.3664 2.76026C55.3671 2.79738 55.3605 2.83428 55.3471 2.86884C55.3336 2.9034 55.3134 2.93493 55.2878 2.96163L55.2841 2.9655L53.8776 4.41382L55.2841 5.86227C55.3226 5.90197 55.3487 5.95225 55.359 6.0068C55.3693 6.06136 55.3634 6.11777 55.342 6.16896C55.3206 6.22015 55.2847 6.26384 55.2388 6.29457C55.1929 6.3253 55.139 6.34169 55.0839 6.34169V6.34169Z" fill="#E6E6E6"/>
<path d="M57.7693 6.3417C57.7142 6.34169 57.6603 6.3253 57.6144 6.29457C57.5684 6.26385 57.5325 6.22015 57.5112 6.16896C57.4898 6.11777 57.4839 6.06137 57.4942 6.00681C57.5045 5.95226 57.5306 5.90198 57.5691 5.86228L58.9755 4.41383L57.5691 2.96551C57.518 2.91186 57.4899 2.84004 57.4911 2.76568C57.4923 2.69132 57.5225 2.62043 57.5753 2.56842C57.6281 2.51642 57.6991 2.48751 57.7729 2.48798C57.8467 2.48845 57.9174 2.51827 57.9695 2.57095L59.5675 4.21654C59.6187 4.26925 59.6474 4.34007 59.6474 4.41383C59.6474 4.48758 59.6187 4.5584 59.5675 4.6111L57.9695 6.25683C57.9435 6.28374 57.9123 6.30511 57.8779 6.31969C57.8436 6.33426 57.8066 6.34175 57.7693 6.3417V6.3417Z" fill="#E6E6E6"/>
<path d="M166.02 2.25714H163.049C162.968 2.25712 162.888 2.27307 162.814 2.30409C162.74 2.33511 162.672 2.38059 162.615 2.43793C162.558 2.49527 162.513 2.56335 162.482 2.63829C162.451 2.71322 162.435 2.79354 162.435 2.87466V5.87137C162.435 6.0352 162.5 6.19233 162.615 6.30821C162.73 6.42409 162.886 6.48921 163.048 6.48926H166.02C166.183 6.48942 166.34 6.42446 166.455 6.30863C166.571 6.1928 166.636 6.03555 166.636 5.87137V2.87503C166.636 2.71085 166.571 2.5536 166.455 2.43777C166.34 2.32194 166.183 2.25698 166.02 2.25714V2.25714Z" fill="#E6E6E6"/>
<path d="M158.738 2.25714H155.767C155.686 2.25712 155.607 2.27307 155.532 2.30409C155.458 2.33511 155.39 2.38059 155.333 2.43793C155.276 2.49527 155.231 2.56335 155.2 2.63829C155.169 2.71322 155.153 2.79354 155.153 2.87466V5.87137C155.153 6.0352 155.218 6.19233 155.333 6.30821C155.448 6.42409 155.604 6.48921 155.766 6.48926H158.738C158.901 6.48942 159.058 6.42446 159.173 6.30863C159.289 6.1928 159.354 6.03555 159.355 5.87137V2.87503C159.354 2.71085 159.289 2.5536 159.173 2.43777C159.058 2.32194 158.901 2.25698 158.738 2.25714V2.25714Z" fill="#E6E6E6"/>
<path d="M172.882 2.39819H169.91C169.83 2.39817 169.75 2.41412 169.676 2.44514C169.601 2.47616 169.534 2.52164 169.477 2.57898C169.42 2.63633 169.375 2.70441 169.344 2.77934C169.313 2.85427 169.297 2.9346 169.297 3.01571V6.01242C169.297 6.17625 169.362 6.33338 169.477 6.44926C169.592 6.56514 169.748 6.63026 169.91 6.63031H172.882C173.045 6.63047 173.201 6.56551 173.317 6.44968C173.432 6.33385 173.498 6.17661 173.498 6.01242V3.01608C173.498 2.8519 173.432 2.69465 173.317 2.57882C173.201 2.46299 173.045 2.39803 172.882 2.39819V2.39819Z" fill="#E6E6E6"/>
<path d="M97.2652 3.53803H73.5122C73.414 3.53791 73.3167 3.55728 73.2259 3.59503C73.1352 3.63277 73.0527 3.68816 72.9831 3.75803C72.9136 3.8279 72.8584 3.91088 72.8208 4.00223C72.7831 4.09358 72.7636 4.19152 72.7635 4.29044C72.7634 4.38937 72.7826 4.48735 72.8201 4.57879C72.8575 4.67024 72.9125 4.75334 72.9819 4.82338C73.0512 4.89342 73.1336 4.94901 73.2243 4.98698C73.315 5.02494 73.4122 5.04455 73.5104 5.04466H97.2652C97.4635 5.04466 97.6537 4.9653 97.7939 4.82402C97.9342 4.68275 98.013 4.49114 98.013 4.29135C98.013 4.09155 97.9342 3.89994 97.7939 3.75867C97.6537 3.61739 97.4635 3.53803 97.2652 3.53803V3.53803Z" fill="white"/>
<path d="M36.5943 149.682L39.3673 149.682L40.6865 138.907L36.5938 138.907L36.5943 149.682Z" fill="#A0616A"/>
<path d="M36.4967 152.596L45.024 152.596V152.487C45.024 151.6 44.6743 150.75 44.0518 150.123C43.4294 149.496 42.5852 149.144 41.7049 149.144H41.7047L40.1471 147.953L37.2409 149.144L36.4965 149.144L36.4967 152.596Z" fill="#2F2E41"/>
<path d="M24.5512 149.682L27.3242 149.682L28.6433 138.907L24.5506 138.907L24.5512 149.682Z" fill="#A0616A"/>
<path d="M24.4535 152.596L32.9809 152.596V152.487C32.9808 151.6 32.6311 150.75 32.0087 150.123C31.3862 149.496 30.542 149.144 29.6618 149.144H29.6616L28.104 147.953L25.1978 149.144L24.4534 149.144L24.4535 152.596Z" fill="#2F2E41"/>
<path d="M44.8092 91.2007C44.8092 91.2007 47.9657 95.6336 45.6873 103.292C43.4088 110.951 46.3684 117.798 45.7288 119.171C45.0893 120.543 43.8018 121.847 44.8657 122.888C45.9295 123.929 46.4896 124.776 45.6494 125.058C44.8092 125.34 40.328 145.09 40.328 145.09L35.5668 145.372C35.5668 145.372 33.842 136.198 35.6846 128.794C35.6846 128.794 35.2801 123.419 36.1236 121.84C36.9672 120.261 36.8018 121.685 36.7444 119.704C36.7127 118.271 36.5053 116.847 36.1269 115.465C35.8469 114.336 35.6846 102.962 35.6846 102.962L32.8558 118.141C32.6698 118.661 32.6001 119.216 32.6514 119.766C32.7661 120.543 32.7671 121.705 32.6265 122.112C32.486 122.518 32.3295 122.604 32.4077 123.408C32.486 124.211 29.1251 144.396 29.1251 144.396H23.8037L21.2831 123.083C21.7365 122.577 22.114 122.006 22.4034 121.39C22.9635 120.261 22.9853 120.199 22.6943 119.384C22.4034 118.568 22.4034 116.98 22.4034 116.505C22.4034 116.029 22.1124 94.4462 25.7588 91.2717C29.4052 88.0972 44.8092 91.2007 44.8092 91.2007Z" fill="#2F2E41"/>
<path d="M28.4679 57.3196L33.7839 55.9319L36.2653 52.4841L42.1584 53.2139L43.4129 57.9167L47.6083 60.37C47.6083 60.37 45.2894 85.0776 45.841 86.4342C46.3926 87.7909 45.0541 88.9258 43.3651 90.6747C41.6761 92.4235 44.7685 90.4722 45.1604 92.3762C45.5524 94.2802 48.4095 96.2951 45.1604 96.2751C41.9114 96.2552 24.0401 97.164 24.6002 94.9068C25.1604 92.6497 23.4178 92.0319 24.2624 90.6168C25.1071 89.2016 25.6755 89.9924 25.3913 87.9042C25.1071 85.8159 25.3872 84.4052 25.3872 83.2766C25.3872 82.1481 26.3255 71.8926 26.3255 71.8926L28.4679 57.3196Z" fill="#E6E6E6"/>
<path d="M40.0965 51.894C43.6627 51.894 46.5538 48.9817 46.5538 45.3891C46.5538 41.7965 43.6627 38.8841 40.0965 38.8841C36.5302 38.8841 33.6392 41.7965 33.6392 45.3891C33.6392 48.9817 36.5302 51.894 40.0965 51.894Z" fill="#A0616A"/>
<path d="M35.8469 50.4432C37.3733 49.2412 35.2867 43.9539 37.8074 45.0825C37.8074 45.0825 40.8882 43.1075 41.5071 44.4053C42.2238 45.9081 44.7728 45.2264 46.3384 44.6959C46.2153 44.4078 46.1279 44.1055 46.0779 43.7959C46.367 44.0253 46.6732 44.2319 46.9938 44.4138C47.2088 44.298 47.3991 44.1408 47.5539 43.9511C47.7066 43.7749 47.8022 43.5558 47.8277 43.3233C47.8533 43.0908 47.8076 42.856 47.6967 42.6504C47.4363 42.2469 46.8985 42.1228 46.5821 41.7645C46.5455 41.7141 46.5216 41.6555 46.5124 41.5938C46.5033 41.5321 46.5091 41.469 46.5295 41.4101C46.5672 41.2659 46.5729 41.1151 46.5462 40.9685C46.5194 40.8218 46.4609 40.6829 46.3748 40.5617C46.2887 40.4404 46.1771 40.3398 46.048 40.267C45.9188 40.1941 45.7753 40.1509 45.6277 40.1403C45.5683 40.1421 45.5094 40.1292 45.4562 40.1027C45.1905 39.9389 44.9451 39.7437 44.7252 39.5215C45.0932 39.5394 45.4621 39.529 45.8287 39.4904C45.9043 39.482 45.9799 39.4735 46.0555 39.4622C45.9155 39.1311 45.7061 38.8344 45.4417 38.5924C45.1772 38.3504 44.8641 38.1688 44.5235 38.06C43.8046 37.841 43.0563 37.7354 42.3053 37.7468C41.8712 37.7327 41.4371 37.7186 41.0058 37.7045C40.091 37.6389 39.1719 37.671 38.2639 37.8004C37.2939 37.9787 36.375 38.3705 35.5727 38.948C34.7705 39.5255 34.1048 40.2743 33.6231 41.141C32.6736 42.8761 31.6458 48.4682 35.8469 50.4432Z" fill="#2F2E41"/>
<path d="M47.5662 96.3175C48.5801 98.1402 42.8694 98.6762 36.6826 98.4308C36.5629 97.9693 36.3649 97.5321 36.0972 97.1386C35.4138 96.1398 36.2401 89.3825 35.243 88.6997C35.6939 89.8001 33.8706 97.1132 33.4897 98.2389C27.8939 97.7875 22.7937 96.7633 22.8554 95.5445C22.8722 95.189 24.0401 88.4176 24.6058 87.9041C25.1688 87.3906 24.6002 77.6962 24.6058 75.6168C24.6086 73.5346 27.681 58.2284 27.681 57.6641C27.681 57.0999 34.9629 54.2784 34.9629 54.2784L38.0437 72.0534L42.7266 55.3393C43.1844 55.9664 43.7137 56.5374 44.3034 57.0406C45.2416 57.8278 48.9666 61.0498 48.9666 61.0498L45.7765 84.8287C45.7765 84.8287 47.2861 88.4176 47.2077 89.8424C47.1773 90.973 46.9567 92.0901 46.5551 93.1463C46.1014 94.4864 46.149 93.767 47.5662 96.3175Z" fill="#3F3D56"/>
<path d="M100.5 71.7712C102.82 71.7712 104.701 69.8764 104.701 67.5391C104.701 65.2017 102.82 63.3069 100.5 63.3069C98.1798 63.3069 96.2989 65.2017 96.2989 67.5391C96.2989 69.8764 98.1798 71.7712 100.5 71.7712Z" fill="white"/>
<path d="M1.67506e-05 152.664C-0.000114012 152.708 0.00835295 152.752 0.0249317 152.792C0.0415104 152.833 0.065878 152.87 0.0966423 152.901C0.127407 152.932 0.163963 152.957 0.20423 152.974C0.244496 152.991 0.28768 153 0.331317 153H200.667C200.755 153 200.84 152.965 200.902 152.902C200.965 152.839 201 152.753 201 152.664C201 152.575 200.965 152.49 200.902 152.427C200.84 152.364 200.755 152.328 200.667 152.328H0.333304C0.289665 152.328 0.246425 152.337 0.206059 152.354C0.165692 152.37 0.128988 152.395 0.0980397 152.426C0.0670911 152.457 0.0425069 152.494 0.0256881 152.534C0.00886928 152.575 0.00014529 152.618 1.67506e-05 152.662V152.664Z" fill="#CCCCCC"/>
<path d="M102.32 66.9748H101.06V65.7052C101.06 65.5555 101.001 65.412 100.896 65.3061C100.791 65.2003 100.649 65.1409 100.5 65.1409C100.351 65.1409 100.209 65.2003 100.104 65.3061C99.9989 65.412 99.9399 65.5555 99.9399 65.7052V66.9748H98.6795C98.531 66.9748 98.3885 67.0342 98.2835 67.1401C98.1784 67.2459 98.1194 67.3894 98.1194 67.5391C98.1194 67.6887 98.1784 67.8323 98.2835 67.9381C98.3885 68.0439 98.531 68.1034 98.6795 68.1034H99.9399V69.373C99.9399 69.5227 99.9989 69.6662 100.104 69.772C100.209 69.8778 100.351 69.9373 100.5 69.9373C100.649 69.9373 100.791 69.8778 100.896 69.772C101.001 69.6662 101.06 69.5227 101.06 69.373V68.1034H102.32C102.469 68.1034 102.612 68.0439 102.717 67.9381C102.822 67.8323 102.881 67.6887 102.881 67.5391C102.881 67.3894 102.822 67.2459 102.717 67.1401C102.612 67.0342 102.469 66.9748 102.32 66.9748Z" fill="#3F3D56"/>
<path d="M169.978 79.9474C169.482 79.3085 168.947 78.7009 168.376 78.1281H168.376C166.549 76.2875 164.38 74.8274 161.993 73.8313C159.606 72.8352 157.047 72.3225 154.463 72.3224C151.879 72.3224 149.321 72.8351 146.933 73.8313C144.546 74.8274 142.377 76.2875 140.55 78.1281L140.55 78.1281C140.515 78.1627 140.484 78.199 140.45 78.2338L140.447 78.2312V90.2105C140.399 90.2098 140.351 90.2069 140.303 90.2069C139.867 90.2078 139.431 90.2368 138.999 90.2938C138.841 89.6531 138.537 89.0585 138.11 88.5576C137.683 88.0567 137.145 87.6634 136.541 87.4093C135.936 87.1551 135.28 87.0472 134.627 87.094C133.973 87.1408 133.339 87.3412 132.776 87.679C132.213 88.0168 131.736 88.4827 131.384 89.0394C131.032 89.5962 130.814 90.2282 130.748 90.885C130.681 91.5418 130.769 92.2051 131.002 92.8219C131.236 93.4386 131.61 93.9916 132.094 94.4367C131.852 94.7733 131.63 95.1245 131.43 95.4883C130.857 95.3898 130.27 95.4122 129.706 95.5542C129.142 95.6962 128.613 95.9546 128.154 96.3131C127.694 96.6717 127.313 97.1224 127.035 97.637C126.757 98.1515 126.589 98.7185 126.54 99.3021C126.491 99.8857 126.563 100.473 126.751 101.027C126.939 101.582 127.239 102.09 127.633 102.521C128.027 102.953 128.505 103.297 129.037 103.532C129.569 103.767 130.145 103.889 130.726 103.888C130.744 103.888 130.761 103.886 130.779 103.886C131.07 104.693 131.461 105.46 131.943 106.168C131.608 106.642 131.374 107.18 131.255 107.75C131.137 108.319 131.136 108.907 131.253 109.476C131.369 110.046 131.602 110.585 131.935 111.06C132.268 111.535 132.695 111.936 133.189 112.237C133.683 112.539 134.233 112.734 134.805 112.812C135.377 112.889 135.959 112.847 136.515 112.687C137.07 112.528 137.587 112.255 138.032 111.885C138.478 111.515 138.843 111.057 139.105 110.538C139.503 110.586 139.903 110.611 140.303 110.612C140.351 110.612 140.399 110.609 140.447 110.608V131.384C140.447 131.606 140.513 131.823 140.635 132.007C140.757 132.191 140.931 132.335 141.134 132.42C141.337 132.504 141.561 132.527 141.777 132.483C141.993 132.44 142.191 132.333 142.346 132.177L166.612 107.732C170.716 104.497 173.376 99.7526 174.007 94.542C174.638 89.3314 173.189 84.0815 169.978 79.9474V79.9474Z" fill="#FF7A73"/>
<path d="M140.764 104.712C143.084 104.712 144.965 102.818 144.965 100.48C144.965 98.143 143.084 96.2482 140.764 96.2482C138.444 96.2482 136.563 98.143 136.563 100.48C136.563 102.818 138.444 104.712 140.764 104.712Z" fill="#3F3D56"/>
<path d="M142.584 99.9161H141.324V98.6464C141.324 98.4968 141.265 98.3533 141.16 98.2474C141.055 98.1416 140.913 98.0822 140.764 98.0822C140.615 98.0822 140.473 98.1416 140.368 98.2474C140.263 98.3533 140.204 98.4968 140.204 98.6464V99.9161H138.944C138.795 99.9161 138.653 99.9755 138.547 100.081C138.442 100.187 138.383 100.331 138.383 100.48C138.383 100.63 138.442 100.774 138.547 100.879C138.653 100.985 138.795 101.045 138.944 101.045H140.204V102.314C140.204 102.464 140.263 102.607 140.368 102.713C140.473 102.819 140.615 102.879 140.764 102.879C140.913 102.879 141.055 102.819 141.16 102.713C141.265 102.607 141.324 102.464 141.324 102.314V101.045H142.584C142.733 101.045 142.876 100.985 142.981 100.879C143.086 100.774 143.145 100.63 143.145 100.48C143.145 100.331 143.086 100.187 142.981 100.081C142.876 99.9755 142.733 99.9161 142.584 99.9161Z" fill="#FF7A73"/>
</g>
<defs>
<clipPath id="clip0_36_349">
<rect width="201" height="153" fill="white"/>
</clipPath>
</defs>
</svg>
