<svg width="203" height="162" viewBox="0 0 203 162" fill="none" xmlns="http://www.w3.org/2000/svg">
<g clip-path="url(#clip0_36_780)">
<path d="M9.16247 151.903C12.8223 154.047 14.2318 158.306 14.2318 158.306C14.2318 158.306 9.70757 159.088 6.04779 156.944C2.38801 154.8 0.9785 150.541 0.9785 150.541C0.9785 150.541 5.50268 149.759 9.16247 151.903Z" fill="#FF7A73"/>
<path d="M127.677 15.6296H125.513V146.426H127.677V15.6296Z" fill="#D0CDE1"/>
<path d="M96.2676 23.181C98.6581 23.181 100.596 21.294 100.596 18.9663C100.596 16.6385 98.6581 14.7515 96.2676 14.7515C93.877 14.7515 91.9391 16.6385 91.9391 18.9663C91.9391 21.294 93.877 23.181 96.2676 23.181Z" fill="#FF7A73"/>
<path d="M96.6283 17.9126C103.302 17.9126 108.712 17.0477 108.712 15.9808C108.712 14.9139 103.302 14.0491 96.6283 14.0491C89.9547 14.0491 84.5447 14.9139 84.5447 15.9808C84.5447 17.0477 89.9547 17.9126 96.6283 17.9126Z" fill="#D0CDE1"/>
<path d="M127.649 15.6296H125.485C125.485 12.0433 124.021 8.60384 121.417 6.06793C118.813 3.53201 115.281 2.10735 111.597 2.10735C107.914 2.10735 104.382 3.53201 101.778 6.06793C99.1735 8.60384 97.7104 12.0433 97.7104 15.6296H95.5462C95.5494 11.4864 97.2419 7.51399 100.252 4.58542C103.262 1.65685 107.342 0.0117798 111.597 0.0117798C115.852 0.0117798 119.933 1.65685 122.943 4.58542C125.953 7.51399 127.646 11.4864 127.649 15.6296Z" fill="#D0CDE1"/>
<path d="M156.866 23.181C159.256 23.181 161.194 21.294 161.194 18.9663C161.194 16.6385 159.256 14.7515 156.866 14.7515C154.475 14.7515 152.537 16.6385 152.537 18.9663C152.537 21.294 154.475 23.181 156.866 23.181Z" fill="#FF7A73"/>
<path d="M156.505 17.9126C163.179 17.9126 168.589 17.0477 168.589 15.9808C168.589 14.9139 163.179 14.0491 156.505 14.0491C149.831 14.0491 144.421 14.9139 144.421 15.9808C144.421 17.0477 149.831 17.9126 156.505 17.9126Z" fill="#D0CDE1"/>
<path d="M125.484 15.6296H127.649C127.649 13.8538 128.008 12.0955 128.706 10.4549C129.404 8.81427 130.427 7.32358 131.716 6.06793C133.006 4.81227 134.537 3.81623 136.221 3.13667C137.906 2.45711 139.712 2.10735 141.536 2.10735C143.359 2.10735 145.165 2.45711 146.85 3.13667C148.535 3.81623 150.066 4.81227 151.355 6.06793C152.645 7.32358 153.668 8.81427 154.366 10.4549C155.064 12.0955 155.423 13.8538 155.423 15.6296H157.587C157.584 11.4864 155.891 7.51399 152.881 4.58542C149.872 1.65685 145.791 0.0117798 141.536 0.0117798C137.281 0.0117798 133.2 1.65685 130.19 4.58542C127.18 7.51399 125.488 11.4864 125.485 15.6296H125.484Z" fill="#D0CDE1"/>
<path d="M130.569 136.803H122.565V146.637H130.569V136.803Z" fill="#D0CDE1"/>
<path d="M59.6297 159.985C92.5622 159.985 119.259 159.523 119.259 158.952C119.259 158.381 92.5622 157.919 59.6297 157.919C26.6971 157.919 0 158.381 0 158.952C0 159.523 26.6971 159.985 59.6297 159.985Z" fill="#3F3D56"/>
<path d="M154.278 147.737C181.186 147.737 203 147.274 203 146.703C203 146.133 181.186 145.67 154.278 145.67C127.37 145.67 105.556 146.133 105.556 146.703C105.556 147.274 127.37 147.737 154.278 147.737Z" fill="#3F3D56"/>
<path d="M68.3592 80.8842C71.9395 80.8842 74.8418 78.0581 74.8418 74.5719C74.8418 71.0857 71.9395 68.2595 68.3592 68.2595C64.7789 68.2595 61.8766 71.0857 61.8766 74.5719C61.8766 78.0581 64.7789 80.8842 68.3592 80.8842Z" fill="#2F2E41"/>
<path d="M77.5738 112.809L78.5567 114.723C78.5567 114.723 81.7018 119.7 79.5395 120.274C77.3773 120.848 76.6893 116.542 76.6893 116.542L76.2962 114.245L77.5738 112.809Z" fill="#A0616A"/>
<path d="M73.6424 103.048L76.0996 109.364L78.5566 113.766L75.5099 115.68L73.0527 111.469L70.1043 104.866L73.6424 103.048Z" fill="#D0CDE1"/>
<path d="M66.6643 132.619L61.7501 137.692L53.1011 151.951L49.3663 150.803L53.7891 142.285C53.7891 142.285 56.3445 135.778 57.6222 134.916C58.8999 134.055 61.0621 128.409 61.0621 128.409L63.421 126.59L66.6643 132.619Z" fill="#A0616A"/>
<path d="M76.7876 135.395L77.1807 137.022C77.1807 137.022 78.4584 142.094 80.4241 144.391L85.1417 152.334L88.6799 151.186L81.7018 135.108L76.7876 135.395Z" fill="#A0616A"/>
<path d="M69.4654 81.9453C72.3966 81.9453 74.7727 79.6315 74.7727 76.7773C74.7727 73.9232 72.3966 71.6094 69.4654 71.6094C66.5343 71.6094 64.1581 73.9232 64.1581 76.7773C64.1581 79.6315 66.5343 81.9453 69.4654 81.9453Z" fill="#A0616A"/>
<path d="M65.2884 79.3134L64.6004 84.8641L69.0231 86.9696C69.0231 86.9696 69.0231 82.1845 70.2025 80.9404L65.2884 79.3134Z" fill="#A0616A"/>
<path d="M51.4303 115.106L50.9389 116.733C50.9389 116.733 47.6955 122.954 50.4475 122.954C53.1994 122.954 53.6908 117.211 53.6908 117.211L53.9857 115.776L51.4303 115.106Z" fill="#A0616A"/>
<path d="M74.0356 108.598L73.3476 113.288L81.7018 130.418L82.1932 135.395L66.566 137.309L63.1261 128.026L57.6222 134.916L60.7673 127.834C60.7673 127.834 61.7501 123.049 61.4553 121.805C61.1604 120.561 61.6519 114.34 62.5364 112.809C63.421 111.278 74.0356 108.598 74.0356 108.598Z" fill="#2F2E41"/>
<path d="M53.6908 151.951L48.9732 150.42L47.4989 152.717C47.4989 152.717 44.6487 153.483 44.747 155.492C44.8453 157.502 44.2556 160.947 44.2556 160.947L46.3195 161.139L47.1058 157.215L51.1354 161.904C51.1354 161.904 58.3102 162.287 58.605 161.139C58.8999 159.99 53.4943 158.746 53.4943 158.746L52.6097 154.631L53.6908 151.951Z" fill="#2F2E41"/>
<path d="M88.9748 150.611L84.6503 151.951V152.908C84.6503 152.908 83.3726 154.822 83.5692 156.449C83.7657 158.076 84.6503 162 84.6503 162H86.9108L86.8125 158.363L91.3336 162C91.3336 162 99.3929 161.426 99.3929 160.182C99.3929 158.938 93.201 158.076 93.201 158.076L88.9748 150.611Z" fill="#2F2E41"/>
<path d="M69.318 85.8212C69.318 85.8212 65.2884 81.8974 63.421 82.8544V84.5771C63.421 84.5771 60.669 85.8212 60.5707 87.7352C60.4724 89.6493 57.6222 107.067 57.6222 107.067L50.9389 129.748C50.9389 129.748 53.0029 132.907 60.5707 129.366L65.2884 113.766C65.2884 113.766 60.2759 131.375 62.733 131.088C65.1901 130.801 74.8219 108.981 74.8219 108.981L74.1339 98.6453C74.1339 98.6453 75.7065 94.1473 72.5614 91.0848L69.318 85.8212Z" fill="#D0CDE1"/>
<path d="M62.4381 86.3954C62.4381 86.3954 60.7673 86.9696 59.5879 89.4579C58.4085 91.9461 52.5114 109.46 52.5114 109.46L50.9389 115.68L55.3617 116.733L57.5239 110.321L65.5832 95.7742C65.5832 95.7742 66.8609 88.118 62.4381 86.3954Z" fill="#D0CDE1"/>
<path d="M62.8265 72.6545C62.9259 71.4732 63.5067 70.2623 64.5809 69.7048C64.0415 68.6499 63.5595 67.4458 63.915 66.3194C64.0593 65.8823 64.3205 65.4906 64.6718 65.1845C65.0231 64.8784 65.4519 64.6689 65.9139 64.5777C66.4297 64.5086 66.9532 64.5152 67.4669 64.5973L69.8887 64.8648C70.6744 64.9515 71.4904 65.0484 72.1586 65.46C72.5065 65.6742 72.7978 65.965 73.0092 66.3089C73.2205 66.6528 73.346 67.0402 73.3756 67.4399C73.4051 67.8397 73.3379 68.2406 73.1793 68.6104C73.0206 68.9802 72.7751 69.3086 72.4623 69.5691C74.1567 70.8889 75.2891 71.8907 76.0601 73.8656C74.6472 72.7581 73.2951 72.3659 71.484 72.2704C70.3502 72.2107 69.2372 72.5838 68.3814 73.3105C67.5256 74.0372 66.9946 75.0601 66.9012 76.162C66.8545 76.7131 66.9169 77.2806 66.7522 77.8098C66.5875 78.339 66.0913 78.8348 65.529 78.7575C65.607 78.7682 66.0871 77.3644 65.7491 76.7165L65.7438 76.706C65.6694 76.5721 65.5469 76.4697 65.3996 76.4185C65.2683 76.3694 65.1277 76.3482 64.9873 76.3561C64.8469 76.364 64.7098 76.401 64.5852 76.4645C64.4606 76.528 64.3513 76.6166 64.2645 76.7244C64.1778 76.8322 64.1156 76.9567 64.0821 77.0897C63.894 77.7928 63.5932 78.6899 63.3304 78.4518C62.9863 78.1399 63.1311 75.3901 63.0382 74.9639C62.8529 74.2082 62.7816 73.4302 62.8265 72.6545Z" fill="#2F2E41"/>
<path d="M64.6076 69.686C64.6076 69.686 69.9342 70.0243 72.4818 69.5732L64.6076 69.686Z" fill="#D0CDE1"/>
<path d="M64.9097 68.9919C64.3702 67.937 63.8882 66.7329 64.2438 65.6065C64.4098 65.0986 64.7347 64.654 65.1729 64.3347C64.8382 64.4846 64.539 64.7005 64.2945 64.9689C64.0499 65.2372 63.8653 65.5521 63.7523 65.8936C63.3968 67.02 63.8788 68.2241 64.4182 69.279C64.8461 69.2168 63.8355 69.5494 64.9097 68.9919Z" fill="#2F2E41"/>
<path opacity="0.2" d="M66.6152 95.822L58.949 109.029L56.0006 116.207L60.1284 109.316L66.6152 95.822Z" fill="black"/>
<path d="M174.732 138.502L175.436 143.298L178.954 142.956L178.602 137.988L174.732 138.502Z" fill="#FFB8B8"/>
<path d="M158.021 138.502L157.317 143.298L153.799 142.956L154.151 137.988L158.021 138.502Z" fill="#FFB8B8"/>
<path d="M152.92 88.8288C152.92 88.8288 149.753 92.4259 150.457 98.0784C151.161 103.731 152.392 116.577 152.392 116.577L153.271 139.359L158.901 139.016L159.78 119.661L162.595 104.073L170.159 122.23C170.159 122.23 173.853 139.187 174.029 139.187C174.205 139.187 179.306 138.673 179.306 138.673L176.843 118.633C176.843 118.633 172.973 89.514 170.686 89.0001C168.4 88.4863 152.92 88.8288 152.92 88.8288Z" fill="#2F2E41"/>
<path d="M179.306 142.271C179.306 142.271 176.14 140.215 174.908 142.613C173.677 145.011 174.732 146.724 174.732 146.724C174.732 146.724 175.788 147.409 175.26 148.094C174.732 148.78 174.556 153.233 179.13 152.548C183.704 151.863 181.417 147.238 181.417 147.238L179.306 142.271Z" fill="#2F2E41"/>
<path d="M153.447 142.271C153.447 142.271 156.614 140.215 157.845 142.613C159.076 145.011 158.021 146.724 158.021 146.724C158.021 146.724 156.966 147.409 157.493 148.094C158.021 148.78 158.197 153.233 153.623 152.548C149.05 151.863 151.336 147.238 151.336 147.238L153.447 142.271Z" fill="#2F2E41"/>
<path d="M157.229 55.5134C157.229 55.5134 158.813 59.7956 157.581 62.1936C156.35 64.5917 159.516 67.3323 159.516 67.3323C159.516 67.3323 167.784 63.2214 166.728 61.1659C165.673 59.1105 163.914 56.3699 164.266 54.657L157.229 55.5134Z" fill="#FFB8B8"/>
<path d="M160.308 57.1407C163.417 57.1407 165.937 54.6867 165.937 51.6595C165.937 48.6323 163.417 46.1783 160.308 46.1783C157.199 46.1783 154.679 48.6323 154.679 51.6595C154.679 54.6867 157.199 57.1407 160.308 57.1407Z" fill="#FFB8B8"/>
<path d="M156.262 61.9367C156.262 61.9367 161.91 66.5132 166.122 60.0284L170.511 62.4506L172.797 88.4863C172.797 88.4863 159.956 95.6804 153.799 89.514L154.679 65.3625L156.262 61.9367Z" fill="#FF7A73"/>
<path d="M158.036 59.373L150.105 64.5061L152.92 77.1812L149.225 96.8792L155.206 88.1437L158.036 59.373Z" fill="#575A89"/>
<path d="M165.045 57.9443L166.992 59.1961L174.908 61.9367L173.677 83.1764L177.019 96.8794L172.27 99.2774C172.27 99.2774 171.39 92.7685 165.937 89.514C160.484 86.2595 163.8 58.9192 165.045 57.9443Z" fill="#575A89"/>
<path d="M151.864 91.2269L154.151 92.7685C154.151 92.7685 151.249 95.766 150.721 95.2522C150.568 95.1094 150.449 94.9356 150.373 94.7432C150.297 94.5508 150.266 94.3444 150.281 94.1388L149.753 92.9398L151.864 91.2269Z" fill="#FFB8B8"/>
<path d="M167.066 90.8937L166.289 92.0833C166.289 92.0833 164.002 93.1111 164.53 93.7962C165.057 94.4814 169.455 96.023 170.335 94.4814L171.214 92.9398L167.066 90.8937Z" fill="#FFB8B8"/>
<path d="M151.161 64.3347L149.929 64.506L147.906 77.2669C147.906 77.2669 147.115 79.5793 147.994 85.0605C148.874 90.5417 149.745 94.1109 149.745 94.1109L153.623 91.3981L151.864 86.9447L154.151 70.6724L151.161 64.3347Z" fill="#575A89"/>
<path d="M172.094 61.5941L174.908 61.9367C174.908 61.9367 178.075 65.1912 178.602 68.6169C179.13 72.0427 178.954 81.806 178.954 81.806L170.862 94.31L166.465 91.2269L172.621 80.607L169.631 67.9318L172.094 61.5941Z" fill="#575A89"/>
<path d="M165.676 46.702C164.825 45.3561 163.492 44.3642 161.935 43.9174L160.791 44.8084L161.236 43.7692C160.862 43.7137 160.484 43.6924 160.106 43.7056L159.077 44.9939L159.502 43.7497C158.609 43.8578 157.749 44.1448 156.976 44.5927C156.203 45.0406 155.533 45.6397 155.009 46.3522C153.7 48.191 153.479 50.7483 154.767 52.6016C155.12 51.5434 155.55 50.5505 155.903 49.4924C156.181 49.5293 156.463 49.5306 156.741 49.4963L157.171 48.5189L157.291 49.455C158.625 49.3419 160.603 49.0935 161.867 48.866L161.744 48.1478L162.479 48.7446C162.867 48.6578 163.097 48.579 163.078 48.5189C164.018 49.9948 164.949 50.9374 165.89 52.4133C166.246 50.3315 166.877 48.6011 165.676 46.702Z" fill="#2F2E41"/>
<path d="M165.364 52.2294C165.574 52.2294 165.745 51.8971 165.745 51.4873C165.745 51.0774 165.574 50.7452 165.364 50.7452C165.154 50.7452 164.983 51.0774 164.983 51.4873C164.983 51.8971 165.154 52.2294 165.364 52.2294Z" fill="#FFB8B8"/>
</g>
<defs>
<clipPath id="clip0_36_780">
<rect width="203" height="162" fill="white"/>
</clipPath>
</defs>
</svg>
