<svg width="211" height="156" viewBox="0 0 211 156" fill="none" xmlns="http://www.w3.org/2000/svg">
<g clip-path="url(#clip0_36_825)">
<path d="M43.221 152.37L46.4786 152.37L48.0282 139.811L43.2203 139.812L43.221 152.37Z" fill="#9E616A"/>
<path d="M42.3901 151.307L43.307 151.307L46.8866 149.852L48.8052 151.307H48.8054C49.8897 151.307 50.9295 151.738 51.6961 152.504C52.4628 153.27 52.8935 154.31 52.8936 155.393V155.526L42.3903 155.526L42.3901 151.307Z" fill="#2F2E41"/>
<path d="M58.3544 152.37L61.612 152.37L63.1617 139.811L58.3538 139.812L58.3544 152.37Z" fill="#9E616A"/>
<path d="M57.5235 151.307L58.4404 151.307L62.02 149.852L63.9386 151.307H63.9388C65.0231 151.307 66.0629 151.738 66.8295 152.504C67.5962 153.27 68.027 154.31 68.027 155.393V155.526L57.5237 155.526L57.5235 151.307Z" fill="#2F2E41"/>
<path d="M60.9583 83.642L35.3649 84.3093L35.81 96.7667C35.81 96.7667 35.3649 100.103 36.2551 100.993C37.1453 101.883 37.5904 101.883 37.1453 103.44C36.7002 104.997 39.0519 107.541 38.7663 107.826C38.4806 108.112 37.813 109.669 37.813 109.669L40.0385 122.349C40.0385 122.349 41.5964 144.372 42.0415 144.816C42.4866 145.261 42.9317 144.816 42.4866 145.929C42.0414 147.041 41.5963 146.596 42.0415 147.041C42.4357 147.466 42.8072 147.911 43.1542 148.376H48.5348C48.5348 148.376 48.9405 146.151 48.9405 145.929C48.9405 145.706 49.3856 144.372 49.3856 144.149C49.3856 143.927 48.9922 143.533 48.9922 143.533C48.8563 143.081 48.7644 142.617 48.718 142.147C48.718 141.702 47.3827 124.573 47.3827 124.573L50.0533 102.328L56.5072 124.128C56.5072 124.128 56.5072 143.259 56.9523 143.704C57.3974 144.149 57.3975 143.927 57.1749 144.816C56.9524 145.706 56.0622 145.484 56.7298 146.151C57.3975 146.819 57.62 145.706 57.3975 146.819L57.1749 147.931L63.8514 148.026C63.8514 148.026 64.7416 146.151 64.2965 145.484C63.8514 144.816 63.8781 144.999 64.4212 143.906C64.9642 142.814 65.1867 142.592 64.9642 142.369C64.7416 142.147 64.7416 140.964 64.7416 140.964L63.6289 119.679C63.6289 119.679 63.4063 97.2116 63.4063 96.5442C63.3895 96.2008 63.4528 95.8582 63.5912 95.5435V94.6376L62.7387 91.4278L60.9583 83.642Z" fill="#2F2E41"/>
<path d="M89.922 35.1245C89.799 35.4662 89.6026 35.7768 89.3465 36.0344C89.0904 36.2921 88.781 36.4904 88.4399 36.6156C88.0988 36.7407 87.7345 36.7896 87.3725 36.7587C87.0105 36.7279 86.6596 36.6181 86.3447 36.437L75.2352 45.7402L74.6314 41.1928L85.4975 32.8784C85.8368 32.3697 86.351 32.0031 86.9427 31.848C87.5344 31.693 88.1624 31.7602 88.7078 32.0371C89.2532 32.314 89.678 32.7812 89.9018 33.3502C90.1256 33.9192 90.1328 34.5505 89.922 35.1245Z" fill="#9E616A"/>
<path d="M40.9351 38.9641C44.7454 38.9641 47.8342 35.8766 47.8342 32.068C47.8342 28.2595 44.7454 25.172 40.9351 25.172C37.1249 25.172 34.0361 28.2595 34.0361 32.068C34.0361 35.8766 37.1249 38.9641 40.9351 38.9641Z" fill="#9E616A"/>
<path d="M46.5282 25.205C45.8859 23.6748 43.1333 22.7663 38.7777 22.9031C34.4221 23.04 33.6593 28.2318 33.6593 28.2318C31.2602 30.4669 35.1335 37.4454 35.8055 36.4833C36.4774 35.5211 37.6057 36.4306 37.6057 36.4306L36.5305 30.3855C37.6659 30.8222 38.887 31.1153 39.955 30.6066L38.1855 29.6609C39.6521 29.8433 41.1186 30.0257 42.5851 30.2081L40.7707 28.8129C40.8147 28.7984 40.8587 28.7833 40.9027 28.7685C41.6303 29.0821 42.4096 29.2589 43.2014 29.2901C44.1264 29.2832 45.1094 28.85 45.4971 28.0104C45.6001 27.7799 45.656 27.531 45.6612 27.2786C46.9367 27.6925 47.6064 29.186 47.6064 29.186C47.3642 27.83 47.0035 26.4979 46.5282 25.205Z" fill="#2F2E41"/>
<path d="M46.4576 39.2725C44.9169 39.2725 43.9247 39.485 41.5274 39.8885C37.1026 40.6339 39.7525 44.8364 39.7525 44.8364C39.7525 44.8364 39.9528 44.7347 39.4105 44.8364C38.8682 44.938 37.0194 46.5365 37.0194 46.5365L33.7131 49.4718C28.7305 53.3803 29.846 59.4787 29.846 59.4787L37.1118 66.7875L33.9288 81.4514C33.9288 81.4514 35.2815 83.629 34.582 84.6053C33.8825 85.5817 40.7447 85.3014 40.7447 85.3014C45.4808 87.4112 62.1663 85.6279 62.1663 85.6279C61.9352 85.0242 59.7012 80.3457 59.7012 80.3457C60.6719 78.6702 59.7474 76.2493 59.7474 76.2493C59.7474 76.2493 58.783 64.7978 58.1667 63.2147C57.5504 61.6316 59.7444 53.0538 61.1864 53.1462C62.6285 53.2386 71.9435 48.4893 71.9435 48.4893C71.9435 48.4893 71.7093 48.1166 74.7845 46.8599C76.5508 46.1662 78.1702 45.1453 79.5575 43.8508L80.8208 41.3283C80.2138 41.5623 78.1647 37.7 78.1647 37.7L77.2711 38.0405L76.7534 37.891C76.7534 37.891 72.7138 39.0398 71.888 39.8776C71.0622 40.7153 70.7848 40.4813 70.0392 40.6691C69.2935 40.857 69.201 41.3806 68.9668 41.3221C68.7327 41.2636 68.3167 41.972 67.9901 41.8796C67.6634 41.7872 66.964 42.1599 66.4987 42.2523C66.0334 42.3447 62.7271 43.743 62.7271 43.743C60.6811 42.7081 55.1346 43.127 55.1346 43.127C55.1346 43.127 53.3197 42.0582 52.8051 43.127C52.6667 43.4306 52.4444 43.6884 52.1643 43.8701C51.8843 44.0518 51.5582 44.1498 51.2244 44.1526L49.012 43.2071C48.8834 43.6762 46.4702 38.7862 46.4576 39.2725Z" fill="#FF7A73"/>
<path d="M35.8949 96.6632C35.6532 96.392 35.474 96.0711 35.3699 95.7232C35.2657 95.3753 35.2391 95.0088 35.292 94.6495C35.3449 94.2902 35.4759 93.9469 35.6759 93.6437C35.8759 93.3405 36.14 93.0848 36.4495 92.8947L33.315 80.5782L37.6005 82.2197L39.9821 93.8501C40.2672 94.3911 40.3439 95.0178 40.1977 95.6114C40.0514 96.2051 39.6923 96.7245 39.1885 97.0713C38.6847 97.418 38.0711 97.568 37.4641 97.4928C36.8571 97.4176 36.2987 97.1224 35.8949 96.6632Z" fill="#9E616A"/>
<path d="M30.1264 57.1365L29.7393 62.0548C29.7393 62.0548 29.2581 67.4582 29.3841 68.4573C29.5101 69.4565 29.7447 75.5583 29.7447 75.5583L33.824 83.6245L38.446 82.3925L38.1694 78.6086L38.446 82.0845L39.0623 79.0045L37.5216 73.7685L38.446 71.9205L37.9799 65.7171L30.1264 57.1365Z" fill="#FF7A73"/>
<path d="M139.558 45.6417L141.084 45.9686C141.094 45.3306 141.174 44.6956 141.321 44.0748C141.46 44.835 141.752 45.559 142.18 46.2025L150.932 48.0707L159.335 39.2074C159.347 34.7757 156.885 31.4079 152.471 31.4079C152.205 31.4079 151.929 31.4207 151.65 31.4464C149.265 31.0474 146.818 31.5889 144.825 32.957C142.831 34.3251 141.447 36.413 140.962 38.7812C137.833 41.8606 138.968 43.671 139.558 45.6417Z" fill="#2F2E41"/>
<path d="M135.255 149.295H132.081L130.571 137.055H135.256L135.255 149.295Z" fill="#FFB6B6"/>
<path d="M136.675 155.32H134.423L134.021 153.194L132.991 155.32H127.016C126.73 155.32 126.451 155.228 126.22 155.059C125.99 154.889 125.819 154.65 125.734 154.377C125.649 154.104 125.653 153.81 125.747 153.54C125.84 153.269 126.018 153.035 126.253 152.873L131.024 149.579V147.43L136.043 147.729L136.675 155.32Z" fill="#2F2E41"/>
<path d="M172.447 145.841L169.686 147.407L162.33 137.506L166.405 135.195L172.447 145.841Z" fill="#FFB6B6"/>
<path d="M176.657 150.381L174.698 151.492L173.298 149.841L173.452 152.198L168.256 155.145C168.007 155.287 167.719 155.345 167.435 155.311C167.15 155.277 166.884 155.153 166.675 154.958C166.466 154.762 166.325 154.505 166.273 154.223C166.22 153.942 166.259 153.651 166.384 153.393L168.907 148.175L167.846 146.306L172.359 144.091L176.657 150.381Z" fill="#2F2E41"/>
<path d="M123.521 47.7861C123.928 47.8449 124.317 47.9921 124.66 48.2175C125.004 48.4428 125.294 48.7407 125.51 49.0902C125.726 49.4397 125.863 49.8323 125.911 50.2404C125.959 50.6484 125.916 51.062 125.787 51.4519L130.645 55.6547L128.81 59.2284L122.033 53.197C121.392 52.9363 120.869 52.4497 120.563 51.8293C120.257 51.2089 120.189 50.4978 120.373 49.8309C120.556 49.1639 120.978 48.5874 121.558 48.2105C122.138 47.8336 122.837 47.6826 123.521 47.7861Z" fill="#FFB6B6"/>
<path d="M127.72 60.8666L124.471 55.6999L128.084 52.008L130.649 55.1286L133.828 56.546L138.19 59.2025C139.057 58.1821 145.74 50.5075 148.723 52.7173C149.081 52.9613 149.382 53.2798 149.605 53.6511C149.828 54.0224 149.968 54.4375 150.016 54.868C150.226 56.9226 148.384 59.0124 148.314 59.0898L144.375 64.4017C144.252 64.7353 142.949 68.1751 140.915 69.1005C140.626 69.2387 140.311 69.3155 139.991 69.326C139.671 69.3364 139.352 69.2803 139.055 69.1612C133.665 67.0609 130.033 64.6917 128.413 62.2386C128.126 61.8116 127.894 61.3507 127.72 60.8666Z" fill="#2F2E41"/>
<path d="M139.743 71.6503C139.743 71.6503 130.408 86.512 132.099 88.2023C133.79 89.8927 136.422 90.3365 136.422 90.3365L142.246 82.7932L139.743 71.6503Z" fill="#2F2E41"/>
<path d="M147.996 51.353L143.596 54.3276C141.551 55.7103 140.014 57.7217 139.216 60.0569C138.418 62.392 138.404 64.9236 139.175 67.2676L140.414 71.0304L147.996 51.353Z" fill="#2F2E41"/>
<path d="M155.775 91.9211L156.363 93.9686L158.37 118.661L168.396 137.34L163.611 140.756L149.938 122.989L144.53 105.348L136.037 144.401L129.656 143.945L134.088 89.7986L142.497 74.5579L155.775 91.9211Z" fill="#2F2E41"/>
<path d="M148.744 52.101L142.621 57.1028C141.277 58.2005 140.309 59.69 139.853 61.3636C139.645 62.1235 139.547 62.909 139.56 63.6966L139.743 74.5577L134.129 89.5546C134.129 89.5546 149.348 95.3018 151.378 90.2308C153.407 85.1598 148.744 52.101 148.744 52.101Z" fill="#FF7A73"/>
<path d="M140.217 85.1598L139.202 81.103L139.45 71.0089C139.469 70.4224 142.597 61.2939 146.539 51.5976L149.93 48.2082L151.758 47.019L155.782 50.7319C155.782 50.7319 155.271 60.8949 155.436 71.299C155.482 74.1775 154.976 77.5393 154.76 80.0887L156.609 88.3007V92.8717L156.489 92.896C156.368 92.9203 154.516 92.8631 146.912 92.8631C140.613 92.8631 144.807 88.3985 140.217 85.1598Z" fill="#2F2E41"/>
<path opacity="0.2" d="M154.076 59.7954L155.001 65.5621L148.744 68.1422L154.076 59.7954Z" fill="black"/>
<path d="M147.773 45.9372C151.157 45.9372 153.9 43.1956 153.9 39.8136C153.9 36.4316 151.157 33.6899 147.773 33.6899C144.39 33.6899 141.647 36.4316 141.647 39.8136C141.647 43.1956 144.39 45.9372 147.773 45.9372Z" fill="#FFB6B6"/>
<path opacity="0.2" d="M158.038 70.8842C156.408 72.7713 154.196 74.0634 151.751 74.5575C149.306 75.0515 146.766 74.7194 144.53 73.6134L143.197 72.9538L158.038 70.8842Z" fill="black"/>
<path d="M136.72 69.4746C136.994 69.1677 137.331 68.9244 137.708 68.7619C138.086 68.5994 138.494 68.5216 138.905 68.534C139.316 68.5464 139.719 68.6487 140.086 68.8337C140.453 69.0187 140.775 69.2819 141.029 69.6047L147.215 67.8689L149.187 71.369L140.417 73.6975C139.846 74.0885 139.152 74.2567 138.465 74.17C137.779 74.0834 137.148 73.748 136.692 73.2275C136.236 72.7069 135.988 72.0374 135.993 71.3457C135.998 70.654 136.257 69.9882 136.72 69.4746V69.4746Z" fill="#FFB6B6"/>
<path d="M149.954 73.1805L143.85 73.0433L142.759 67.9955L146.778 67.5753L149.713 65.7054L154.334 63.5311C153.961 62.2454 151.237 52.4414 154.725 51.1718C155.126 51.0076 155.558 50.9322 155.991 50.9506C156.424 50.969 156.847 51.0809 157.233 51.2786C159.064 52.2351 159.794 54.9233 159.82 55.0242L162.083 61.2374C162.294 61.5233 164.448 64.5063 164.099 66.7127C164.055 67.0299 163.946 67.3345 163.779 67.6072C163.611 67.88 163.388 68.115 163.125 68.2973C158.401 71.6355 154.422 73.3591 151.481 73.3588C150.967 73.3626 150.454 73.3027 149.954 73.1805Z" fill="#2F2E41"/>
<path d="M140.427 35.7851C140.917 36.4228 142.607 36.9868 144.614 37.4418C144.61 37.4001 144.61 37.3585 144.61 37.3168C144.62 36.6788 144.7 36.0438 144.848 35.423C144.986 36.1832 145.279 36.9072 145.707 37.5507C145.739 37.5988 145.771 37.6469 145.806 37.6949C147.528 38.0346 149.348 38.2974 150.775 38.4736C149.794 42.0048 146.034 44.9016 146.441 47.0485L157.459 49.298C157.391 48.4058 157.463 47.5086 157.671 46.6383C157.881 47.7868 158.439 48.8435 159.267 49.6665L160.203 49.8587L160.482 48.4841C162.899 42.6809 159.53 36.74 154.01 33.667C153.025 32.1922 151.497 31.1669 149.759 30.8151L148.384 30.5331C147.516 30.3557 146.622 30.3509 145.753 30.5188C144.883 30.6867 144.056 31.0242 143.317 31.5119C142.578 31.9996 141.943 32.628 141.447 33.3612C140.951 34.0944 140.604 34.918 140.427 35.7851Z" fill="#2F2E41"/>
<path d="M5.26611 147.867L5.11768 144.531C3.57025 143.704 1.8443 143.268 0.0896912 143.259C2.50455 145.232 2.20276 149.036 3.83997 151.69C4.35695 152.514 5.05276 153.211 5.87584 153.73C6.69892 154.248 7.62818 154.575 8.59474 154.685L10.6156 155.922C10.8929 154.377 10.8317 152.79 10.4364 151.271C10.041 149.751 9.32086 148.336 8.32549 147.122C7.76034 146.446 7.11231 145.844 6.39669 145.33C5.9127 146.606 5.26611 147.867 5.26611 147.867Z" fill="#F2F2F2"/>
<path d="M0.366864 156H210.633C210.73 156 210.823 155.961 210.892 155.892C210.96 155.824 210.999 155.73 210.999 155.633C210.999 155.536 210.96 155.443 210.892 155.374C210.823 155.306 210.73 155.267 210.633 155.267H0.366864C0.269742 155.267 0.176701 155.306 0.108125 155.374C0.0395491 155.443 0.0010376 155.536 0.0010376 155.633C0.0010376 155.73 0.0395491 155.824 0.108125 155.892C0.176701 155.961 0.269742 156 0.366864 156Z" fill="#CACACA"/>
<path d="M114.436 20.9606C115.198 24.3085 115.56 28.104 113.527 31.1C112.663 32.3852 111.394 33.3457 109.922 33.8294C108.433 34.2709 106.862 34.3674 105.329 34.1114C101.861 33.6311 98.7786 31.8254 95.3677 31.1243C93.8625 30.8149 92.265 30.7127 90.816 31.3081C89.7303 31.7542 88.5868 32.6512 88.5816 33.9306C88.5762 35.2445 89.7179 36.1165 90.8532 36.5205C92.3682 37.0595 93.9427 36.8509 95.5141 36.783C97.2065 36.7098 98.9322 36.8628 100.338 37.8988C101.547 38.8422 102.475 40.0989 103.019 41.5323C103.726 43.2467 104.013 45.0898 104.465 46.8785C104.869 48.4867 105.44 50.0481 106.17 51.5372C107.601 54.4559 109.607 57.0556 112.068 59.1801C113.282 60.2243 114.757 61.288 116.415 61.3838C117.693 61.4576 119.248 60.9205 119.741 59.626C119.924 59.0671 119.906 58.4618 119.69 57.9147C119.474 57.3676 119.074 56.913 118.558 56.6294C117.463 56.0767 116.269 56.8652 115.915 57.9473C115.823 58.1968 115.79 58.4647 115.821 58.7291C115.851 58.9934 115.944 59.2469 116.091 59.4686C116.423 59.9638 115.623 60.4269 115.293 59.9349C114.527 58.7928 114.927 57.2567 115.866 56.3419C116.324 55.8753 116.936 55.5912 117.588 55.5426C118.24 55.4941 118.887 55.6843 119.409 56.0779C119.951 56.4906 120.361 57.0526 120.589 57.6949C120.816 58.3372 120.851 59.0319 120.689 59.6937C120.295 61.1156 118.897 62.02 117.501 62.2441C115.777 62.5208 114.118 61.8436 112.727 60.8653C111.331 59.8581 110.061 58.6861 108.946 57.3748C106.679 54.7687 104.975 51.7227 103.94 48.4277C102.923 45.1687 102.849 40.8634 99.8253 38.6624C98.2695 37.5299 96.3633 37.6555 94.5392 37.7595C92.9291 37.8512 91.3583 37.8345 89.8812 37.1059C88.6614 36.5043 87.6773 35.3938 87.657 33.979C87.6364 32.5507 88.6509 31.4023 89.8462 30.7516C93.004 29.0326 96.796 30.4189 99.8982 31.5674C103.018 32.7223 106.58 34.0778 109.895 32.8625C111.425 32.2681 112.657 31.0915 113.321 29.5906C114.124 27.8888 114.238 25.9579 114.053 24.111C113.943 23.1332 113.773 22.1631 113.544 21.2063C113.412 20.6273 114.303 20.3801 114.436 20.9606V20.9606Z" fill="#3F3D56"/>
<path d="M108.77 11.569C109.684 14.6198 111.062 17.5118 112.855 20.1438C113.299 20.7906 113.765 21.4209 114.254 22.0349C114.634 21.3446 115.095 20.7015 115.626 20.1191C117.49 18.0709 119.989 16.7311 122.414 15.3882C124.839 14.0454 127.301 12.6039 129.014 10.4264C129.783 9.44613 130.333 8.31309 130.629 7.10304C131.017 5.4614 130.869 3.74892 129.911 2.37832C128.518 0.385563 125.742 -0.316678 123.381 0.259282C121.018 0.835242 119.04 2.47688 117.505 4.36184C118.007 2.04568 115.564 -0.190399 113.201 0.012881C110.837 0.219241 108.942 2.28284 108.314 4.5682C107.682 6.85048 108.092 9.296 108.77 11.569Z" fill="#FF7A73"/>
<g opacity="0.2">
<path d="M112.855 20.1437C113.299 20.7905 113.765 21.4209 114.254 22.0349C114.634 21.3446 115.095 20.7015 115.626 20.1191C117.49 18.0709 119.989 16.7311 122.414 15.3882C124.839 14.0453 127.301 12.6039 129.014 10.4263C129.783 9.44612 130.333 8.31307 130.629 7.10303C125.177 7.85845 120.168 10.5147 116.485 14.6028C115.011 16.2625 113.788 18.1293 112.855 20.1437Z" fill="black"/>
</g>
</g>
<defs>
<clipPath id="clip0_36_825">
<rect width="211" height="156" fill="white"/>
</clipPath>
</defs>
</svg>
