<svg width="202" height="169" viewBox="0 0 202 169" fill="none" xmlns="http://www.w3.org/2000/svg">
<g clip-path="url(#clip0_36_861)">
<path d="M131.496 167.11L93.6553 99.0535C93.6446 98.887 93.5929 98.7257 93.5048 98.5838C93.4168 98.4419 93.295 98.3239 93.1503 98.2401C92.9843 98.1453 92.7947 98.0996 92.6036 98.1084C92.5975 98.1079 92.5914 98.1083 92.5852 98.1079C92.579 98.1083 92.5728 98.1079 92.5668 98.1084C92.3079 98.0963 92.0543 98.1845 91.8592 98.3546C91.664 98.5247 91.5423 98.7635 91.5196 99.021L51.4142 167.11C51.3473 167.226 51.3039 167.353 51.2864 167.485C51.2689 167.617 51.2777 167.752 51.3122 167.88C51.3468 168.009 51.4064 168.13 51.4877 168.236C51.5691 168.341 51.6705 168.43 51.7862 168.497C51.9019 168.563 52.0297 168.607 52.1621 168.624C52.2946 168.641 52.4292 168.633 52.5583 168.598C52.6873 168.563 52.8083 168.504 52.9143 168.423C53.0202 168.342 53.1091 168.24 53.1759 168.125L92.5581 101.263L129.734 168.125C129.801 168.24 129.89 168.342 129.996 168.423C130.102 168.504 130.223 168.563 130.352 168.598C130.481 168.633 130.615 168.641 130.748 168.624C130.88 168.607 131.008 168.563 131.124 168.497C131.24 168.43 131.341 168.341 131.422 168.236C131.504 168.13 131.563 168.009 131.598 167.88C131.632 167.752 131.641 167.617 131.624 167.485C131.606 167.353 131.563 167.226 131.496 167.11Z" fill="#3F3D56"/>
<path d="M86.3149 155.434L90.5921 154.455L88.8424 137.532L82.5298 138.977L86.3149 155.434Z" fill="#FFB6B6"/>
<path d="M89.6218 147.259L83.5349 148.651L81.5887 144.857L81.4785 144.723C80.6151 143.666 80.1359 142.348 80.1189 140.985L75.0597 127.635L74.646 127.439C74.326 127.287 74.0421 127.069 73.8134 126.799C73.5846 126.529 73.4163 126.213 73.3195 125.873C73.2227 125.533 73.1998 125.176 73.2523 124.827C73.3047 124.477 73.4314 124.143 73.6237 123.846L73.0881 122.433L57.9752 122.46L57.9601 122.456L39.4016 117.263L41.3503 105.676L46.5707 108.951C48.2909 108.84 77.7586 107.035 80.4809 113.623C82.9051 119.489 86.3984 129.511 88.902 136.886C89.0269 137.217 89.1821 137.536 89.3656 137.839C89.7551 138.437 89.9837 139.125 90.0294 139.837C90.059 140.147 90.1182 140.453 90.2063 140.752C91.2469 143.855 89.6616 147.177 89.6455 147.21L89.6218 147.259Z" fill="#2F2E41"/>
<path d="M84.87 154.019L86.2606 153.7L91.1834 150.255L94.5997 151.792L94.6001 151.792C96.2446 151.415 97.9715 151.706 99.4011 152.6C100.831 153.494 101.846 154.918 102.223 156.558L102.269 156.759L86.3389 160.405L84.87 154.019Z" fill="#2F2E41"/>
<path d="M21.7183 154.399C22.1531 149.677 24.9257 144.95 29.3726 143.275C27.7553 148.173 27.9267 153.483 29.8564 158.266C30.6074 160.108 31.6349 162.079 31.0455 163.979C30.6788 165.161 29.7184 166.087 28.6307 166.682C27.543 167.277 26.3244 167.582 25.121 167.883L24.8888 168.087C22.8255 163.815 21.2834 159.12 21.7183 154.399Z" fill="#F0F0F0"/>
<path d="M29.4201 143.363C26.896 146.373 25.3869 150.101 25.1073 154.015C25.0321 154.857 25.0904 155.705 25.28 156.529C25.4907 157.325 25.9113 158.051 26.4981 158.63C27.0344 159.181 27.6469 159.683 28.0396 160.354C28.2354 160.701 28.3556 161.085 28.3922 161.482C28.4288 161.878 28.381 162.278 28.252 162.654C27.9549 163.601 27.3345 164.385 26.7011 165.13C25.9979 165.958 25.2543 166.806 24.9786 167.883C24.9453 168.013 24.7444 167.954 24.7777 167.824C25.2572 165.951 27.0286 164.839 27.8358 163.141C28.2124 162.348 28.3519 161.438 27.9488 160.627C27.5963 159.918 26.9651 159.4 26.4172 158.846C25.8364 158.289 25.4012 157.599 25.1494 156.836C24.9184 156.025 24.8275 155.18 24.8805 154.338C24.9696 152.441 25.3572 150.57 26.029 148.793C26.7844 146.761 27.8828 144.873 29.2765 143.211C29.3628 143.108 29.5059 143.261 29.4201 143.363L29.4201 143.363Z" fill="white"/>
<path d="M25.1229 152.749C24.4709 152.614 23.8885 152.251 23.4798 151.726C23.0711 151.201 22.8627 150.549 22.8918 149.885C22.8933 149.858 22.9052 149.832 22.9251 149.814C22.945 149.795 22.9712 149.785 22.9984 149.786C23.0256 149.786 23.0515 149.797 23.0707 149.816C23.0899 149.836 23.1009 149.861 23.1014 149.889C23.0731 150.507 23.2673 151.115 23.6489 151.602C24.0304 152.09 24.5743 152.426 25.1822 152.549C25.3143 152.576 25.2543 152.776 25.1229 152.749H25.1229Z" fill="white"/>
<path d="M26.1893 158.386C27.3355 157.653 28.1624 156.515 28.5052 155.201C28.539 155.07 28.7399 155.13 28.7061 155.26C28.3469 156.627 27.4839 157.809 26.2895 158.57C26.1756 158.642 26.076 158.458 26.1893 158.386H26.1893Z" fill="white"/>
<path d="M26.9851 146.953C27.2264 147.058 27.4901 147.102 27.7525 147.08C28.0148 147.058 28.2677 146.972 28.4883 146.829C28.6013 146.755 28.7007 146.939 28.5885 147.012C28.344 147.169 28.0646 147.264 27.7748 147.289C27.485 147.314 27.1935 147.267 26.9258 147.153C26.8997 147.145 26.8778 147.127 26.8647 147.103C26.8515 147.078 26.8481 147.05 26.855 147.024C26.863 146.997 26.8811 146.975 26.9055 146.962C26.9298 146.948 26.9585 146.945 26.9851 146.953H26.9851Z" fill="white"/>
<path d="M43.3481 151.236C43.279 151.284 43.2098 151.332 43.1405 151.382C42.2136 152.034 41.3413 152.759 40.5322 153.551C40.4687 153.612 40.4052 153.674 40.3435 153.736C38.4146 155.666 36.8615 157.936 35.7634 160.431C35.3273 161.424 34.9676 162.449 34.6875 163.497C34.3006 164.944 33.9966 166.544 33.1773 167.744C33.0932 167.87 33.0014 167.991 32.9023 168.105L25.1568 168.354C25.1389 168.345 25.121 168.339 25.103 168.331L24.7942 168.355C24.8049 168.3 24.8171 168.243 24.8278 168.188C24.8338 168.156 24.8416 168.124 24.8477 168.092C24.8522 168.07 24.8569 168.049 24.8598 168.03C24.8613 168.022 24.8629 168.015 24.8645 168.01C24.8674 167.99 24.8721 167.973 24.8751 167.955C24.9427 167.637 25.0127 167.319 25.085 167.001C25.0849 166.999 25.0849 166.999 25.0866 166.997C25.6143 164.567 26.429 162.208 27.5138 159.97C27.5471 159.904 27.5802 159.836 27.617 159.769C28.1208 158.778 28.705 157.829 29.3637 156.932C29.726 156.442 30.1129 155.971 30.5229 155.52C31.5847 154.358 32.8231 153.369 34.193 152.59C36.9239 151.038 40.122 150.374 43.1197 151.173C43.1964 151.193 43.2714 151.214 43.3481 151.236Z" fill="#F0F0F0"/>
<path d="M43.3339 151.335C39.5016 152.222 36.047 154.292 33.461 157.25C32.8929 157.877 32.4275 158.589 32.0818 159.36C31.7694 160.123 31.6673 160.955 31.7862 161.77C31.8818 162.532 32.068 163.3 31.9762 164.072C31.9233 164.467 31.7874 164.846 31.5774 165.184C31.3675 165.523 31.0881 165.813 30.7578 166.036C29.9492 166.614 28.9808 166.867 28.0251 167.082C26.9641 167.32 25.8582 167.551 24.9885 168.245C24.8832 168.329 24.7586 168.161 24.8638 168.077C26.3768 166.87 28.4621 167.046 30.1317 166.175C30.9108 165.768 31.5718 165.125 31.7394 164.235C31.8859 163.457 31.6946 162.665 31.5912 161.894C31.4635 161.1 31.5325 160.288 31.7922 159.527C32.0974 158.741 32.5345 158.012 33.0849 157.372C34.301 155.911 35.7397 154.649 37.3485 153.634C39.1782 152.465 41.1948 151.617 43.3111 151.127C43.4421 151.096 43.4641 151.304 43.3339 151.335V151.335Z" fill="white"/>
<path d="M34.2375 156.249C33.7989 155.748 33.5529 155.109 33.5433 154.445C33.5337 153.78 33.7611 153.134 34.1851 152.621C34.2712 152.518 34.4364 152.647 34.3501 152.75C33.9545 153.227 33.7426 153.829 33.7528 154.447C33.763 155.066 33.9946 155.661 34.4058 156.124C34.495 156.225 34.3262 156.349 34.2375 156.249V156.249Z" fill="white"/>
<path d="M31.6867 161.39C33.0446 161.492 34.3913 161.081 35.4585 160.237C35.5642 160.153 35.6888 160.321 35.5833 160.405C34.4711 161.281 33.0687 161.706 31.6559 161.596C31.5213 161.586 31.5528 161.379 31.6867 161.39V161.39Z" fill="white"/>
<path d="M39.2227 152.739C39.352 152.968 39.5362 153.161 39.7588 153.301C39.9814 153.441 40.2355 153.524 40.4981 153.542C40.6329 153.551 40.6012 153.758 40.4674 153.749C40.1773 153.728 39.8968 153.636 39.6505 153.481C39.4042 153.327 39.1995 153.115 39.0544 152.863C39.0388 152.841 39.0323 152.813 39.0363 152.786C39.0404 152.759 39.0546 152.734 39.0762 152.717C39.0986 152.701 39.1265 152.694 39.1539 152.698C39.1814 152.702 39.2061 152.717 39.2227 152.739H39.2227Z" fill="white"/>
<path d="M148.443 154.399C148.008 149.677 145.236 144.95 140.789 143.275C142.406 148.173 142.235 153.483 140.305 158.266C139.554 160.108 138.526 162.079 139.116 163.979C139.482 165.161 140.443 166.087 141.531 166.682C142.618 167.277 143.837 167.582 145.04 167.883L145.272 168.087C147.336 163.815 148.878 159.12 148.443 154.399Z" fill="#F0F0F0"/>
<path d="M140.741 143.363C143.265 146.373 144.774 150.101 145.054 154.015C145.129 154.857 145.071 155.705 144.881 156.529C144.671 157.325 144.25 158.051 143.663 158.63C143.127 159.181 142.514 159.683 142.122 160.354C141.926 160.701 141.806 161.085 141.769 161.482C141.732 161.878 141.78 162.278 141.909 162.654C142.206 163.601 142.827 164.385 143.46 165.13C144.163 165.958 144.907 166.806 145.183 167.883C145.216 168.013 145.417 167.954 145.384 167.824C144.904 165.951 143.133 164.839 142.325 163.141C141.949 162.348 141.809 161.438 142.212 160.627C142.565 159.918 143.196 159.4 143.744 158.846C144.325 158.289 144.76 157.599 145.012 156.836C145.243 156.025 145.334 155.18 145.281 154.338C145.192 152.441 144.804 150.57 144.132 148.793C143.377 146.761 142.278 144.873 140.885 143.211C140.798 143.108 140.655 143.261 140.741 143.363L140.741 143.363Z" fill="white"/>
<path d="M145.038 152.749C145.69 152.613 146.273 152.251 146.681 151.726C147.09 151.201 147.298 150.549 147.269 149.885C147.268 149.858 147.256 149.832 147.236 149.814C147.216 149.795 147.19 149.785 147.163 149.786C147.136 149.786 147.11 149.797 147.09 149.816C147.071 149.835 147.06 149.861 147.06 149.888C147.088 150.507 146.894 151.114 146.512 151.602C146.131 152.09 145.587 152.426 144.979 152.549C144.847 152.576 144.907 152.776 145.038 152.749Z" fill="white"/>
<path d="M143.972 158.386C142.826 157.653 141.999 156.515 141.656 155.201C141.622 155.07 141.421 155.13 141.455 155.26C141.814 156.627 142.677 157.809 143.872 158.57C143.986 158.642 144.085 158.458 143.972 158.386H143.972Z" fill="white"/>
<path d="M143.176 146.953C142.935 147.058 142.671 147.102 142.409 147.08C142.146 147.058 141.894 146.972 141.673 146.829C141.56 146.755 141.461 146.939 141.573 147.012C141.817 147.169 142.097 147.264 142.386 147.289C142.676 147.314 142.968 147.267 143.235 147.153C143.262 147.145 143.283 147.127 143.297 147.103C143.31 147.078 143.313 147.05 143.306 147.024C143.298 146.997 143.28 146.975 143.256 146.962C143.231 146.948 143.203 146.945 143.176 146.953H143.176Z" fill="white"/>
<path d="M126.813 151.236C126.882 151.284 126.951 151.332 127.021 151.382C127.948 152.034 128.82 152.759 129.629 153.551C129.693 153.612 129.756 153.674 129.818 153.736C131.747 155.666 133.3 157.936 134.398 160.431C134.834 161.424 135.194 162.449 135.474 163.497C135.861 164.944 136.165 166.544 136.984 167.744C137.068 167.87 137.16 167.991 137.259 168.105L145.004 168.354C145.022 168.345 145.04 168.339 145.058 168.331L145.367 168.355C145.356 168.3 145.344 168.243 145.333 168.188C145.327 168.156 145.32 168.124 145.314 168.092C145.309 168.07 145.304 168.049 145.301 168.03C145.3 168.022 145.298 168.015 145.297 168.01C145.294 167.99 145.289 167.973 145.286 167.955C145.218 167.637 145.149 167.319 145.076 167.001C145.076 166.999 145.076 166.999 145.075 166.997C144.547 164.567 143.732 162.208 142.647 159.97C142.614 159.904 142.581 159.836 142.544 159.769C142.04 158.778 141.456 157.829 140.798 156.932C140.435 156.442 140.048 155.971 139.638 155.52C138.577 154.358 137.338 153.369 135.968 152.59C133.237 151.038 130.039 150.374 127.041 151.173C126.965 151.193 126.89 151.214 126.813 151.236Z" fill="#F0F0F0"/>
<path d="M126.827 151.335C130.66 152.222 134.114 154.292 136.7 157.25C137.268 157.877 137.734 158.589 138.079 159.36C138.392 160.123 138.494 160.955 138.375 161.77C138.279 162.532 138.093 163.3 138.185 164.072C138.238 164.467 138.374 164.846 138.584 165.184C138.794 165.523 139.073 165.813 139.403 166.036C140.212 166.614 141.18 166.867 142.136 167.082C143.197 167.32 144.303 167.551 145.173 168.245C145.278 168.329 145.403 168.161 145.297 168.077C143.784 166.87 141.699 167.046 140.029 166.175C139.25 165.768 138.589 165.125 138.422 164.235C138.275 163.457 138.467 162.665 138.57 161.894C138.698 161.1 138.629 160.288 138.369 159.527C138.064 158.741 137.627 158.012 137.076 157.372C135.86 155.911 134.421 154.649 132.813 153.634C130.983 152.465 128.966 151.617 126.85 151.127C126.719 151.096 126.697 151.304 126.827 151.335V151.335Z" fill="white"/>
<path d="M135.924 156.249C136.362 155.748 136.608 155.109 136.618 154.445C136.628 153.78 136.4 153.134 135.976 152.621C135.89 152.518 135.725 152.647 135.811 152.75C136.207 153.227 136.419 153.829 136.408 154.447C136.398 155.066 136.167 155.661 135.755 156.124C135.666 156.225 135.835 156.349 135.924 156.249V156.249Z" fill="white"/>
<path d="M138.474 161.39C137.117 161.492 135.77 161.081 134.703 160.237C134.597 160.153 134.472 160.321 134.578 160.405C135.69 161.281 137.092 161.706 138.505 161.596C138.64 161.586 138.608 161.379 138.474 161.39V161.39Z" fill="white"/>
<path d="M130.938 152.739C130.809 152.968 130.625 153.161 130.402 153.301C130.18 153.441 129.926 153.524 129.663 153.542C129.528 153.551 129.56 153.758 129.694 153.749C129.984 153.728 130.264 153.636 130.511 153.481C130.757 153.327 130.962 153.115 131.107 152.863C131.122 152.841 131.129 152.813 131.125 152.786C131.121 152.759 131.107 152.734 131.085 152.717C131.063 152.701 131.035 152.694 131.007 152.698C130.98 152.702 130.955 152.717 130.938 152.739H130.938Z" fill="white"/>
<path d="M202 168.732C202 168.803 201.971 168.871 201.921 168.921C201.871 168.972 201.802 169 201.731 169H0.2691C0.197763 169 0.129347 168.972 0.0789034 168.921C0.0284603 168.871 0.00012207 168.803 0.00012207 168.732C0.00012207 168.661 0.0284603 168.592 0.0789034 168.542C0.129347 168.492 0.197763 168.463 0.2691 168.463H201.731C201.802 168.464 201.871 168.492 201.921 168.542C201.971 168.592 202 168.661 202 168.732Z" fill="#3F3D56"/>
<path d="M129.767 64.9367C130.329 64.9367 130.785 64.4824 130.785 63.922C130.785 63.3617 130.329 62.9074 129.767 62.9074C129.206 62.9074 128.75 63.3617 128.75 63.922C128.75 64.4824 129.206 64.9367 129.767 64.9367Z" fill="#3F3D56"/>
<path d="M117.031 71.7375L130.743 63.1437C130.867 63.0659 131.006 63.014 131.151 62.9912C131.295 62.9684 131.443 62.975 131.585 63.0107C131.727 63.0465 131.861 63.1106 131.977 63.1992C132.094 63.2877 132.191 63.3989 132.263 63.5261C132.336 63.6532 132.381 63.7937 132.398 63.9389C132.414 64.0841 132.4 64.2311 132.358 64.3711C132.316 64.511 132.246 64.641 132.152 64.7531C132.058 64.8652 131.942 64.9571 131.811 65.0233L117.375 72.3434C117.295 72.384 117.202 72.3922 117.116 72.3664C117.03 72.3405 116.957 72.2825 116.913 72.2045C116.868 72.1265 116.856 72.0344 116.878 71.9474C116.9 71.8604 116.955 71.7852 117.031 71.7375V71.7375Z" fill="#E4E4E4"/>
<path d="M89.5204 90.2421C89.4124 90.0819 89.356 89.8926 89.3588 89.6996C89.3616 89.5065 89.4234 89.319 89.5361 89.162C89.7682 88.852 90.0771 88.6076 90.4325 88.4528C91.1663 88.0803 91.9566 87.8312 92.7717 87.7155C93.391 87.6277 94.0671 87.5998 94.5476 87.2001C95.0249 86.803 95.291 86.0606 95.9094 85.9986C96.5073 85.9387 96.9669 86.5915 97.5665 86.632C98.3054 86.682 98.7892 85.8192 99.5083 85.6423C99.9897 85.5238 100.485 85.7329 100.936 85.9372L103.646 87.1633L105.034 87.7919C105.519 88.0114 106.067 88.307 106.158 88.8305C106.284 89.5497 105.482 90.0572 104.796 90.3126C99.9005 92.115 94.5205 92.1157 89.6241 90.3145" fill="#FF7A73"/>
<path d="M93.6023 103.493C113.264 103.493 129.202 101.221 129.202 98.4196C129.202 95.6178 113.264 93.3464 93.6023 93.3464C73.941 93.3464 58.0023 95.6178 58.0023 98.4196C58.0023 101.221 73.941 103.493 93.6023 103.493Z" fill="#3F3D56"/>
<path d="M165.819 129.873H141.408C140.285 129.873 139.374 130.782 139.374 131.903C139.374 133.023 140.285 133.932 141.408 133.932H165.819C166.943 133.932 167.854 133.023 167.854 131.903C167.854 130.782 166.943 129.873 165.819 129.873Z" fill="#3F3D56"/>
<path d="M177.65 93.6937L169.587 131.9L171.687 141.679L175.652 160.134V168.43C175.652 168.441 175.651 168.452 175.65 168.463C175.648 168.647 175.614 168.828 175.55 169H172.363C172.299 168.828 172.265 168.647 172.264 168.463C172.262 168.452 172.261 168.441 172.261 168.43V160.491L168.663 143.74L167.935 140.358L166.527 133.803L166.12 131.905V131.903L166.522 130L166.832 128.532L174.332 92.9993C174.377 92.7818 174.465 92.5754 174.591 92.3918C174.716 92.2083 174.877 92.0512 175.064 91.9296C175.25 91.808 175.459 91.7243 175.677 91.6831C175.896 91.642 176.121 91.6443 176.339 91.69C176.557 91.7356 176.764 91.8236 176.948 91.949C177.132 92.0745 177.289 92.2348 177.411 92.4209C177.533 92.607 177.616 92.8152 177.657 93.0336C177.698 93.252 177.696 93.4763 177.65 93.6937L177.65 93.6937Z" fill="#3F3D56"/>
<path d="M143.103 131.903V168.429C143.104 168.441 143.103 168.452 143.101 168.463C143.1 168.647 143.066 168.828 143.002 169H139.815C139.75 168.828 139.716 168.647 139.715 168.463C139.713 168.452 139.712 168.441 139.713 168.429V131.903C139.713 131.454 139.891 131.024 140.209 130.707C140.527 130.39 140.958 130.212 141.408 130.212C141.858 130.212 142.289 130.39 142.607 130.707C142.925 131.024 143.103 131.454 143.103 131.903Z" fill="#3F3D56"/>
<path d="M145.477 125.815H161.751C163.369 125.815 164.922 126.456 166.066 127.598C167.211 128.74 167.854 130.288 167.854 131.903H139.374C139.374 130.288 140.017 128.74 141.161 127.598C142.306 126.456 143.858 125.815 145.477 125.815Z" fill="#3F3D56"/>
<path d="M169.888 143.74H141.408C140.958 143.74 140.527 143.562 140.209 143.245C139.891 142.928 139.713 142.497 139.713 142.049C139.713 141.6 139.891 141.17 140.209 140.853C140.527 140.536 140.958 140.358 141.408 140.358H169.888C170.338 140.358 170.769 140.536 171.087 140.853C171.405 141.17 171.583 141.6 171.583 142.049C171.583 142.497 171.405 142.928 171.087 143.245C170.769 143.562 170.338 143.74 169.888 143.74Z" fill="#3F3D56"/>
<path d="M37.4129 133.993H66.1395C67.263 133.993 68.1738 133.085 68.1738 131.964V131.349C68.1738 130.228 67.263 129.32 66.1395 129.32H37.4129C36.2894 129.32 35.3786 130.228 35.3786 131.349V131.964C35.3786 133.085 36.2894 133.993 37.4129 133.993Z" fill="#3F3D56"/>
<path d="M37.1171 131.684L36.5971 133.821L34.6894 141.65L33.8667 145.032L30.0467 160.721V167.528C30.0477 167.861 29.9485 168.187 29.762 168.463C29.6153 168.687 29.4158 168.871 29.1811 169H27.522C27.2872 168.871 27.0878 168.687 26.9411 168.463C26.7545 168.187 26.6553 167.861 26.6562 167.528V160.315L30.9012 142.886L33.6407 131.63L24.3508 87.6059C24.3048 87.3886 24.3022 87.1644 24.3432 86.9462C24.3841 86.7279 24.4678 86.5198 24.5894 86.3338C24.711 86.1478 24.8682 85.9875 25.0519 85.8621C25.2357 85.7367 25.4424 85.6487 25.6603 85.6031C25.8781 85.5574 26.1029 85.5551 26.3217 85.5962C26.5405 85.6372 26.749 85.7209 26.9353 85.8424C27.1217 85.964 27.2822 86.1209 27.4076 86.3044C27.5331 86.4878 27.6211 86.6941 27.6667 86.9115L36.2537 127.594L36.6492 129.47L37.1102 131.657L37.1171 131.684Z" fill="#3F3D56"/>
<path d="M67.5273 131.657V167.528C67.5283 167.861 67.4291 168.187 67.2425 168.463C67.0958 168.687 66.8963 168.871 66.6616 169H65.0002C64.7666 168.871 64.5681 168.686 64.4216 168.463C64.235 168.187 64.1358 167.861 64.1368 167.528V131.657C64.1368 131.208 64.3155 130.778 64.6334 130.461C64.9513 130.144 65.3825 129.966 65.8321 129.966C66.2817 129.966 66.7129 130.144 67.0308 130.461C67.3487 130.778 67.5273 131.208 67.5273 131.657Z" fill="#3F3D56"/>
<path d="M68.1737 131.657H35.3786V130.734C35.3786 129.935 35.5365 129.143 35.8432 128.405C36.1499 127.666 36.5994 126.995 37.1661 126.43C37.7328 125.864 38.4056 125.416 39.146 125.11C39.8864 124.804 40.68 124.647 41.4815 124.647H62.0709C63.6895 124.647 65.2418 125.288 66.3863 126.43C67.5308 127.571 68.1738 129.12 68.1738 130.734V131.657H68.1737Z" fill="#3F3D56"/>
<path d="M65.8313 145.031H33.0361C32.5865 145.031 32.1553 144.853 31.8374 144.536C31.5195 144.219 31.3409 143.789 31.3409 143.34C31.3409 142.892 31.5195 142.462 31.8374 142.145C32.1553 141.827 32.5865 141.649 33.0361 141.649H65.8313C66.2809 141.649 66.7121 141.827 67.03 142.145C67.3479 142.462 67.5265 142.892 67.5265 143.34C67.5265 143.789 67.3479 144.219 67.03 144.536C66.7121 144.853 66.2809 145.031 65.8313 145.031Z" fill="#3F3D56"/>
<path d="M107.978 159.783L104.415 158.083L109.31 143.227L114.568 145.735L107.978 159.783Z" fill="#9E616A"/>
<path d="M132.125 158.437L128.294 159.38L122.743 144.759L128.398 143.367L132.125 158.437Z" fill="#9E616A"/>
<path d="M117.44 95.2105C117.949 96.0338 118.759 96.6263 119.699 96.8616C120.64 97.0969 121.635 96.9563 122.472 96.4698C122.641 96.3681 122.8 96.2526 122.95 96.1246L134.214 102.573L133.725 95.9535L123.103 90.8448C122.525 90.2656 121.771 89.8942 120.958 89.7886C120.146 89.6831 119.322 89.8494 118.614 90.2615C118.207 90.5055 117.853 90.8283 117.572 91.2109C117.292 91.5935 117.091 92.0281 116.982 92.4893C116.872 92.9505 116.857 93.4288 116.935 93.8961C117.014 94.3635 117.186 94.8104 117.44 95.2105Z" fill="#9E616A"/>
<path d="M129.371 100.145L131.363 101.355L140.305 106.795C140.893 107.162 141.547 107.409 142.23 107.524C142.913 107.638 143.613 107.617 144.288 107.461C144.963 107.306 145.601 107.019 146.165 106.618C146.729 106.216 147.208 105.708 147.575 105.121C148.237 104.033 148.471 102.739 148.233 101.488L144.258 81.6799C144.111 80.9022 143.798 80.1654 143.339 79.5198C142.88 78.8741 142.288 78.3348 141.601 77.9388C140.914 77.5428 140.15 77.2994 139.36 77.2251C138.57 77.1509 137.774 77.2477 137.025 77.5089C135.766 77.9501 134.723 78.853 134.108 80.034C133.494 81.215 133.353 82.5853 133.715 83.8662L137.871 97.9239L131.5 94.961L129.371 100.145Z" fill="#E6E6E6"/>
<path d="M124.663 154.34L118.533 142.074L118.533 142.046L119.139 119.549C119.146 119.349 119.162 119.148 119.187 118.95C119.294 118.048 119.58 117.176 120.028 116.386C120.476 115.595 121.077 114.901 121.797 114.345C122.486 113.807 123.276 113.411 124.12 113.181C124.965 112.95 125.846 112.89 126.714 113.003L144.245 115.266L144.853 112.787L144.966 112.745L161.764 106.604L161.861 106.762C164.061 110.332 165.598 117.465 166.017 119.566L166.023 119.596C166.032 119.64 166.038 119.667 166.039 119.675C166.904 123.26 163.331 129.199 159.772 130.092C152.274 131.998 145.569 130.511 137.805 128.789C135.021 128.172 132.143 127.533 128.974 126.981L129.068 128.842C129.145 130.274 129.444 131.686 129.952 133.027C130.517 134.678 130.964 135.982 130.02 138.701L129.563 140.017C129.8 140.67 129.882 141.369 129.801 142.059C129.721 142.748 129.482 143.41 129.101 143.992L129.009 144.132L133.052 154.337L124.663 154.34Z" fill="#2F2E41"/>
<path d="M114.59 148.915L107.279 148.238L109.869 139.975C110.404 134.579 111.751 129.295 113.864 124.3L117.397 115.948C117.405 115.762 117.421 115.575 117.444 115.392C117.551 114.49 117.837 113.618 118.285 112.827C118.733 112.037 119.334 111.343 120.054 110.787C120.743 110.249 121.533 109.853 122.377 109.623C123.222 109.393 124.103 109.332 124.971 109.445L142.476 111.705L143.239 105.322L160.04 103.079L160.117 103.204C163.054 107.97 164.919 111.702 165.985 114.947C166.039 115.113 166.086 115.282 166.127 115.45C166.997 119.059 164.824 122.719 161.282 123.607C152.255 125.903 141.401 125.839 127.129 123.406L120.223 139.802C119.562 141.368 118.745 142.864 117.783 144.266L114.59 148.915Z" fill="#2F2E41"/>
<path d="M140.092 66.1405C144.769 66.1405 148.561 62.274 148.561 57.5043C148.561 52.7347 144.769 48.8681 140.092 48.8681C135.415 48.8681 131.623 52.7347 131.623 57.5043C131.623 62.274 135.415 66.1405 140.092 66.1405Z" fill="#9E616A"/>
<path d="M142.537 112.007L141.322 107.664L141.023 105.522L139.277 105.58L135.849 97.6879L134.518 95.6068C134.246 95.3216 134 95.0474 133.78 94.7841C132.393 93.22 131.28 91.4334 130.49 89.4996C129.936 88.1101 129.611 86.6406 129.527 85.1477C129.278 80.738 131.142 76.0725 135.224 70.8855C135.157 70.7019 135.113 70.5109 135.091 70.3167C135.018 69.6866 135.198 69.0532 135.59 68.5544C135.983 68.0555 136.557 67.7316 137.188 67.653L141.126 67.2119C141.432 67.1773 141.742 67.2038 142.038 67.2899C142.334 67.3759 142.609 67.5198 142.849 67.7131C143.099 67.9131 143.307 68.1607 143.46 68.4416C143.613 68.7224 143.709 69.0309 143.741 69.349C143.794 69.841 143.697 70.3375 143.463 70.7738C145.47 71.028 147.36 71.8543 148.908 73.1536C150.456 74.4529 151.596 76.1701 152.19 78.0992C154.546 82.4865 156.424 87.1131 157.791 91.8996C158.061 92.8372 157.941 93.8032 157.824 94.7373C157.717 95.6003 157.606 96.4926 157.793 97.3819C157.982 98.2865 158.439 99.1939 158.922 100.155C159.475 101.255 160.047 102.393 160.202 103.552L160.212 103.634L142.537 112.007Z" fill="#E4E4E4"/>
<path opacity="0.2" d="M130.595 89.4568C131.382 91.3794 132.488 93.1559 133.867 94.7116C134.103 94.9929 134.352 95.2693 134.613 95.5461L135.953 97.643C140.891 93.9505 144.892 79.4116 144.892 79.4116L139.321 78.3304L130.595 89.4568Z" fill="black"/>
<path d="M127.221 66.9474C127.709 67.7834 127.851 68.7764 127.616 69.715C127.381 70.6536 126.789 71.4638 125.964 71.9731C125.795 72.074 125.618 72.1608 125.434 72.2325L125.828 85.1826L120.206 81.6523L120.694 69.8959C120.455 69.1136 120.482 68.2743 120.771 67.5089C121.06 66.7436 121.595 66.0953 122.293 65.6653C122.699 65.4202 123.151 65.2587 123.62 65.1905C124.09 65.1224 124.569 65.1488 125.028 65.2683C125.488 65.3878 125.919 65.598 126.295 65.8864C126.672 66.1748 126.987 66.5355 127.221 66.9474Z" fill="#9E616A"/>
<path d="M126.323 80.2943L120.14 81.1712L120.406 93.9425C120.421 94.8536 120.67 95.7456 121.128 96.5338C121.587 97.3219 122.24 97.9801 123.025 98.4457C123.984 99.0087 125.101 99.2454 126.207 99.1202C127.312 98.9949 128.348 98.5145 129.156 97.7514L143.752 83.7466C144.779 82.7748 145.393 81.4474 145.469 80.0374C145.545 78.6273 145.076 77.2419 144.16 76.1661C143.706 75.6304 143.149 75.191 142.522 74.8742C141.895 74.5573 141.21 74.3693 140.509 74.3214C139.808 74.2735 139.104 74.3667 138.439 74.5953C137.775 74.8239 137.163 75.1834 136.64 75.6524C136.496 75.7811 136.359 75.9174 136.229 76.0608L126.591 87.1208L126.323 80.2943Z" fill="#E6E6E6"/>
<path d="M74.614 163.597L79.0021 163.597L81.0898 146.713L74.6133 146.713L74.614 163.597Z" fill="#FFB6B6"/>
<path d="M49.7407 66.3912C54.5778 66.3912 58.4991 62.4796 58.4991 57.6545C58.4991 52.8293 54.5778 48.9177 49.7407 48.9177C44.9036 48.9177 40.9824 52.8293 40.9824 57.6545C40.9824 62.4796 44.9036 66.3912 49.7407 66.3912Z" fill="#FFB6B6"/>
<path d="M80.4343 158.396H74.2202L72.636 156.278L72.2072 154.282L71.8381 153.926C71.3374 153.446 71.0137 152.812 70.9194 152.126C70.8251 151.44 70.9658 150.743 71.3187 150.147L66.815 129.186C65.6356 129.083 52.3334 127.896 43.0866 126.264C40.7201 125.846 38.8725 124.698 37.595 122.853C34.456 118.319 35.8007 110.982 35.8146 110.908L35.8301 110.826L35.913 110.817L57.5114 108.399L57.5405 108.413C58.2572 108.751 75.1261 116.74 77.8827 119.49C79.1275 120.731 81.9047 128.109 82.5264 135.952C82.6378 137.357 82.237 138.788 81.8494 140.172C81.4867 141.467 81.1118 142.806 81.1858 144.072C81.3002 146.025 81.4085 148.073 81.5079 150.161C81.5237 150.493 81.775 150.838 82.0179 151.17C82.2717 151.518 82.5114 151.847 82.5267 152.19C82.6743 155.524 80.4903 158.325 80.4682 158.353L80.4343 158.396Z" fill="#2F2E41"/>
<path d="M81.8493 80.9248C81.3788 80.7965 80.8858 80.7727 80.4051 80.855C79.9243 80.9373 79.4675 81.1237 79.0669 81.4012C78.6662 81.6786 78.3313 82.0404 78.086 82.4609C77.8406 82.8814 77.6906 83.3504 77.6466 83.835L70.3694 86.1039L70.673 90.8516L80.9047 87.5035C81.7257 87.5233 82.5254 87.242 83.1523 86.7129C83.7792 86.1838 84.1898 85.4436 84.3063 84.6327C84.4227 83.8218 84.2369 82.9965 83.7841 82.3131C83.3312 81.6297 82.6428 81.1357 81.8493 80.9248V80.9248Z" fill="#FFB6B6"/>
<path d="M77.1012 88.7814L71.6623 90.8348L71.5233 91.1039C71.1898 91.7492 70.6131 92.2359 69.9199 92.457C69.2267 92.6781 68.4739 92.6154 67.827 92.2828L55.6022 96.8983C55.6022 96.8983 50.1429 91.4485 46.256 86.5849L47.5807 78.457C47.8876 76.5712 48.5397 74.7578 49.5045 73.1074C57.4758 74.8511 62.0515 85.9667 62.0515 85.9667L76.4177 83.2323L77.1012 88.7814Z" fill="#FF7A73"/>
<path d="M48.4961 65.9243C46.3035 66.515 43.8862 65.7296 42.175 64.2398C40.4639 62.7501 39.3935 60.6391 38.7767 58.4586C38.325 56.8617 38.1108 55.089 38.8236 53.5898C39.5364 52.0906 41.4548 51.0791 42.9349 51.8364C42.0219 50.7753 42.478 49.0202 43.5443 48.1124C44.6107 47.2047 46.0749 46.9444 47.4695 46.8022C49.4934 46.5957 51.584 46.5726 53.51 47.2267C55.4359 47.8807 57.1858 49.3107 57.7885 51.2491C58.4041 51.535 59.0974 51.6092 59.7598 51.46C60.4222 51.3108 61.0163 50.9467 61.449 50.4246C61.5606 51.0242 61.471 51.6437 61.1941 52.1874C60.9171 52.731 60.4683 53.1685 59.9171 53.432L62.8679 52.4777C63.3754 53.5492 62.4862 54.8754 61.349 55.2186C60.2119 55.5617 58.9844 55.1866 57.9053 54.6909C56.8262 54.1951 55.7804 53.5684 54.6083 53.375C53.4362 53.1817 52.0594 53.5574 51.5172 54.6119C51.2332 55.1642 51.2184 55.8111 51.0536 56.4096C50.8887 57.0081 50.471 57.6287 49.8507 57.6777C49.4588 57.7086 49.0751 57.5004 48.6843 57.5429C48.1998 57.5957 47.8289 58.0335 47.6999 58.5024C47.6026 58.9802 47.6014 59.4725 47.6964 59.9507L48.446 65.6661" fill="#2F2E41"/>
<path d="M37.6454 123.897C37.6437 123.897 37.6421 123.897 37.6404 123.897L37.5712 123.885L37.5511 123.818C37.2993 122.973 36.9789 122.108 36.669 121.272C36.2127 120.113 35.8273 118.928 35.5152 117.724C35.2695 116.572 35.0991 115.405 35.0052 114.231C34.9187 113.378 34.8293 112.497 34.6773 111.629C34.6098 111.244 34.8656 110.879 35.113 110.526C35.3423 110.199 35.559 109.89 35.5135 109.598C35.467 109.299 35.1347 108.971 34.8133 108.653C34.4611 108.305 34.0968 107.945 34.0452 107.567C33.3432 102.399 33.0164 97.1869 33.0674 91.972C33.14 84.7567 33.4669 79.8386 34.039 77.3542C35.5773 70.6741 42.6844 69.455 43.7969 69.3045C43.9154 68.9897 44.0975 68.7026 44.3321 68.461C44.5666 68.2195 44.8484 68.0287 45.1601 67.9005C45.4717 67.7723 45.8065 67.7094 46.1435 67.7158C46.4805 67.7223 46.8126 67.7978 47.1191 67.9378L52.1689 70.2437C53.1932 70.7131 54.1098 71.3876 54.8617 72.2253C55.6137 73.0631 56.1849 74.0461 56.5398 75.1133L57.29 77.3946L57.6658 92.7087L55.5835 103.493L59.652 109.581C37.968 121.456 37.7152 123.897 37.6454 123.897Z" fill="#FF7A73"/>
<path d="M72.2526 161.896L73.6793 161.896L79.2496 159.636L82.2351 161.895H82.2355C83.9227 161.895 85.5407 162.564 86.7337 163.754C87.9267 164.944 88.597 166.558 88.5972 168.241V168.447L72.2529 168.448L72.2526 161.896Z" fill="#2F2E41"/>
<path d="M83.6714 91.8531C83.2507 91.6068 82.7811 91.4555 82.2955 91.4098C81.8099 91.3642 81.3201 91.4253 80.8607 91.5889C80.4014 91.7524 79.9835 92.0145 79.6367 92.3566C79.2898 92.6986 79.0223 93.1124 78.8531 93.5688L71.2346 93.8651L70.2081 97.4051L81.0389 97.9582C81.8263 98.1909 82.6719 98.1275 83.4155 97.7798C84.1591 97.4322 84.749 96.8246 85.0735 96.072C85.398 95.3195 85.4345 94.4744 85.1761 93.6968C84.9176 92.9193 84.3823 92.2633 83.6714 91.8531Z" fill="#FFB6B6"/>
<path d="M77.4133 98.3399L69.5875 98.2426L68.5969 98.2292L52.675 98.0291C52.675 98.0291 48.3513 93.9143 44.5864 89.6779L45.1141 85.8705C45.6289 82.1339 47.487 78.7112 50.3428 76.2392C55.735 79.8334 58.862 86.9476 58.862 86.9476L64.1052 89.288C67.7951 89.4526 71.3907 90.5031 74.5867 92.35L76.3109 93.3465L77.4133 98.3399Z" fill="#FF7A73"/>
<path d="M134.921 165.639L132.317 166.28L131.245 163.942L130.662 166.688L123.755 168.388C123.424 168.469 123.076 168.443 122.761 168.313C122.446 168.183 122.181 167.956 122.004 167.665C121.828 167.374 121.749 167.034 121.78 166.695C121.81 166.357 121.949 166.037 122.175 165.782L126.75 160.625L126.137 158.146L132.023 157.063L134.921 165.639Z" fill="#2F2E41"/>
<path d="M107.335 166.441L104.852 165.43L105.366 162.911L103.274 164.787L96.688 162.105C96.3723 161.977 96.1061 161.751 95.9281 161.461C95.7502 161.171 95.6699 160.831 95.699 160.493C95.7281 160.154 95.865 159.833 96.0897 159.577C96.3145 159.321 96.6153 159.144 96.9483 159.071L103.69 157.589L104.658 155.225L110.055 157.806L107.335 166.441Z" fill="#2F2E41"/>
<path d="M98.688 97.5177H96.6537C94.4664 97.5153 92.3694 96.6474 90.8227 95.1045C89.276 93.5617 88.406 91.4698 88.4036 89.2879V89.1752H106.938V89.2879C106.936 91.4698 106.066 93.5617 104.519 95.1045C102.972 96.6474 100.875 97.5153 98.688 97.5177Z" fill="#E4E4E4"/>
<path d="M96.6538 86.2441C96.6538 86.8044 95.6366 87.2587 95.6366 87.2587C95.6366 87.2587 94.6195 86.8044 94.6195 86.2441C94.6195 85.6837 95.6366 85.2294 95.6366 85.2294C95.6366 85.2294 96.6538 85.6837 96.6538 86.2441Z" fill="#3F3D56"/>
<path d="M102.757 86.2441C102.757 86.8044 101.739 87.2587 101.739 87.2587C101.739 87.2587 100.722 86.8044 100.722 86.2441C100.722 85.6837 101.739 85.2294 101.739 85.2294C101.739 85.2294 102.757 85.6837 102.757 86.2441Z" fill="#3F3D56"/>
<path d="M98.688 88.2733C98.688 88.8337 97.6709 89.2879 97.6709 89.2879C97.6709 89.2879 96.6537 88.8337 96.6537 88.2733C96.6537 87.7129 97.6709 87.2587 97.6709 87.2587C97.6709 87.2587 98.688 87.7129 98.688 88.2733Z" fill="#3F3D56"/>
<path d="M91.568 84.102C92.1298 84.102 92.5852 83.6478 92.5852 83.0874C92.5852 82.527 92.1298 82.0728 91.568 82.0728C91.0063 82.0728 90.5509 82.527 90.5509 83.0874C90.5509 83.6478 91.0063 84.102 91.568 84.102Z" fill="#3F3D56"/>
<path d="M76.7752 80.9069L92.8173 83.117C92.9624 83.137 93.102 83.1861 93.2276 83.2614C93.3531 83.3367 93.4621 83.4365 93.5479 83.555C93.6337 83.6735 93.6945 83.8081 93.7267 83.9506C93.7589 84.0932 93.7617 84.2408 93.7351 84.3845C93.7085 84.5282 93.653 84.6651 93.5719 84.7868C93.4908 84.9085 93.3858 85.0126 93.2633 85.0927C93.1408 85.1728 93.0032 85.2273 92.859 85.2529C92.7148 85.2785 92.5668 85.2746 92.4241 85.2416L76.6485 81.5917C76.5609 81.5715 76.4845 81.5183 76.4352 81.4433C76.3859 81.3682 76.3675 81.2771 76.3838 81.1889C76.4001 81.1007 76.4499 81.0221 76.5228 80.9696C76.5958 80.9171 76.6862 80.8946 76.7752 80.9069Z" fill="#E4E4E4"/>
<path d="M96.2692 30.4871V0H94.2349V30.4871C91.4554 30.7401 88.8711 32.0202 86.9892 34.0763C85.1073 36.1324 84.0638 38.8159 84.0635 41.6V44.644H91.1835C91.1835 45.7204 91.6121 46.7527 92.3751 47.5138C93.1381 48.2749 94.173 48.7025 95.252 48.7025C96.3311 48.7025 97.3659 48.2749 98.129 47.5138C98.892 46.7527 99.3206 45.7204 99.3206 44.644H106.441V41.6001C106.44 38.8159 105.397 36.1324 103.515 34.0763C101.633 32.0202 99.0487 30.7401 96.2692 30.4871Z" fill="#F0F0F0"/>
<path d="M122.461 22.8653V0H120.935V22.8653C118.85 23.055 116.912 24.0152 115.501 25.5572C114.089 27.0993 113.307 29.1119 113.306 31.2V33.483H118.646C118.646 34.2903 118.968 35.0645 119.54 35.6353C120.112 36.2062 120.888 36.5269 121.698 36.5269C122.507 36.5269 123.283 36.2062 123.855 35.6353C124.428 35.0645 124.749 34.2903 124.749 33.483H130.089V31.2C130.089 29.1119 129.306 27.0993 127.895 25.5572C126.483 24.0152 124.545 23.055 122.461 22.8653Z" fill="#F0F0F0"/>
<path d="M70.9254 22.8653V0H69.3997V22.8653C67.3151 23.055 65.3768 24.0152 63.9654 25.5572C62.554 27.0993 61.7714 29.1119 61.7711 31.2V33.483H67.1111C67.1111 34.2903 67.4326 35.0645 68.0049 35.6353C68.5771 36.2062 69.3533 36.5269 70.1625 36.5269C70.9718 36.5269 71.748 36.2062 72.3202 35.6353C72.8925 35.0645 73.214 34.2903 73.214 33.483H78.554V31.2C78.5537 29.1119 77.7711 27.0993 76.3597 25.5572C74.9483 24.0152 73.01 23.055 70.9254 22.8653Z" fill="#F0F0F0"/>
<path d="M162.754 53.7588C161.314 52.0843 160.63 49.8625 159.479 47.961C158.328 46.0594 156.326 44.3575 154.21 44.8C152.752 45.105 151.625 46.3888 151.054 47.82C150.483 49.2512 150.376 50.8295 150.276 52.3758C150.312 49.1982 148.213 46.1177 145.322 45.1038C142.431 44.0899 138.972 45.2209 137.155 47.7737C136.363 47.0408 135.328 46.6234 134.247 46.6008C133.167 46.5782 132.115 46.9518 131.292 47.6509C129.668 49.0995 129.308 51.8568 130.503 53.7045C131.698 55.5523 134.286 56.2406 136.185 55.2159L136.856 55.8319C136.478 57.1504 137.211 58.7078 138.443 59.2041C139.442 59.6066 140.852 59.5396 141.226 60.5853C141.487 61.316 140.999 62.0959 140.48 62.6574C139.96 63.2189 139.344 63.7987 139.281 64.5757C139.187 65.748 140.401 66.5693 141.506 66.8166C144.168 67.413 147.121 66.1833 148.656 63.8398C148.685 63.7946 148.717 63.7494 148.752 63.7041C149.613 62.6059 150.24 61.3442 150.596 59.9961C150.951 58.6479 151.028 57.2416 150.82 55.8631C150.734 55.3215 150.82 54.9186 151.195 54.7903C152.813 54.2359 157.346 55.3996 158.718 56.4512C160.09 57.5029 161.189 58.8948 162.511 60.0143C163.832 61.1339 165.516 61.9975 167.194 61.6926C168.538 61.4485 169.682 60.4752 170.451 59.3012C171.22 58.1272 171.662 56.7588 172.059 55.3989C169.087 57.1114 165.02 56.3945 162.754 53.7588Z" fill="#2F2E41"/>
</g>
<defs>
<clipPath id="clip0_36_861">
<rect width="202" height="169" fill="white"/>
</clipPath>
</defs>
</svg>
