<svg width="193" height="148" viewBox="0 0 193 148" fill="none" xmlns="http://www.w3.org/2000/svg">
<g clip-path="url(#clip0_36_1019)">
<path d="M105.062 1.63179C95.799 4.03648 87.6285 10.4565 79.5074 18.8788C82.18 21.3132 83.7945 24.6951 84.0062 28.3027C84.2179 31.9103 83.0099 35.4577 80.6403 38.1875C78.2707 40.9173 74.927 42.6133 71.3233 42.9133C67.7195 43.2134 64.1412 42.0937 61.3522 39.7935C51.8128 51.1814 41.3968 63.2203 28.684 73.1703C-3.68487 98.5048 62.8796 144.709 105.062 144.709C147.244 144.709 181.44 112.68 181.44 73.1703C181.44 33.6607 145.712 -8.92106 105.062 1.63179Z" fill="#F2F2F2"/>
<path d="M69.8094 38.4386C75.2645 38.4386 79.6867 34.0194 79.6867 28.568C79.6867 23.1166 75.2645 18.6974 69.8094 18.6974C64.3543 18.6974 59.932 23.1166 59.932 28.568C59.932 34.0194 64.3543 38.4386 69.8094 38.4386Z" fill="#FF6584"/>
<path d="M164.284 132.735C178.789 132.735 190.548 131.21 190.548 129.329C190.548 127.448 178.789 125.923 164.284 125.923C149.78 125.923 138.021 127.448 138.021 129.329C138.021 131.21 149.78 132.735 164.284 132.735Z" fill="#3F3D56"/>
<path d="M71.3578 148C85.8626 148 97.6211 146.475 97.6211 144.594C97.6211 142.713 85.8626 141.188 71.3578 141.188C56.853 141.188 45.0945 142.713 45.0945 144.594C45.0945 146.475 56.853 148 71.3578 148Z" fill="#3F3D56"/>
<path d="M165.733 117.47C165.733 117.47 167.144 122.328 168.085 123.581C169.026 124.835 169.81 126.872 169.339 127.185C168.869 127.499 167.928 131.259 169.183 131.416C170.437 131.573 173.26 127.342 173.416 125.932C173.573 124.522 174.2 119.507 174.2 119.507C174.2 119.507 175.298 115.12 173.573 114.806C171.848 114.493 169.183 114.336 169.183 114.336L165.733 117.47Z" fill="#2F2E41"/>
<path d="M159.147 122.641C159.147 122.641 157.109 127.969 156.638 128.282C156.168 128.596 154.443 131.416 157.893 131.416C161.342 131.416 163.224 130.476 163.224 130.476L164.322 129.223C164.322 129.223 164.322 125.932 164.008 125.462C163.695 124.992 164.008 122.641 164.008 122.641H159.147Z" fill="#2F2E41"/>
<path d="M145.192 73.9084C145.192 73.9084 142.683 90.8317 144.878 96.3161C147.073 101.8 149.269 103.367 149.269 103.367L165.89 118.88C165.89 118.88 171.064 116.217 170.594 114.493C170.594 114.493 169.496 113.866 169.339 113.396C169.183 112.926 167.144 112.769 167.144 112.769C167.144 112.769 166.203 111.672 166.203 111.046C166.203 110.419 158.05 99.2933 155.384 98.5098C155.384 98.5098 153.973 96.7862 154.13 96.4728C154.286 96.1594 153.659 95.0625 153.659 95.0625L155.227 88.9513L165.106 87.3843C165.106 87.3843 169.183 72.9682 165.733 71.8713C162.283 70.7744 145.192 73.9084 145.192 73.9084Z" fill="#2F2E41"/>
<path d="M164.792 84.8772L165.106 87.3844C165.106 87.3844 165.106 93.9656 164.792 94.5924C164.479 95.2192 164.322 96.1594 164.792 96.7862C165.263 97.413 166.047 98.98 165.733 99.6067C165.419 100.234 166.36 117.94 165.106 119.194C163.851 120.447 164.322 122.014 164.479 122.171C164.635 122.328 164.322 122.955 164.322 122.955C164.322 122.955 157.893 124.052 158.363 122.955C158.834 121.858 158.834 121.231 159.147 120.918C159.461 120.604 159.147 120.134 159.147 120.134C159.147 120.134 159.618 115.12 159.147 114.806C158.677 114.493 157.266 99.45 157.266 99.2933C157.266 99.1367 156.795 98.8233 156.795 98.1965C156.795 97.5697 156.795 95.5326 156.011 95.2192C155.227 94.9058 155.384 87.2277 155.384 87.2277L164.792 84.8772Z" fill="#2F2E41"/>
<path d="M153.659 28.9362C153.659 28.9362 154.286 33.6371 156.168 34.5773C158.05 35.5174 159.304 35.9875 159.304 35.9875L157.736 41.4719L157.109 46.1729H149.896L145.976 43.0389L147.23 37.8679L147.857 36.9277C147.857 36.9277 148.641 33.4804 148.014 32.3835C147.387 31.2866 153.659 28.9362 153.659 28.9362Z" fill="#FFB9B9"/>
<path d="M150.523 40.3751L151.621 42.4121C151.621 42.4121 152.405 39.5916 153.502 39.1215C154.6 38.6514 157.266 37.8679 157.266 37.2411C157.266 36.6143 157.109 35.0474 157.736 35.0474C158.363 35.0474 164.479 36.9277 165.419 37.5545C166.36 38.1813 166.517 38.8081 166.517 38.8081L164.792 56.8283C164.792 56.8283 167.301 65.2899 166.517 68.5806C165.733 71.8712 165.106 72.3413 163.224 72.8114C161.342 73.2815 162.44 71.7145 156.952 73.2815C151.464 74.8485 148.014 74.3784 146.76 74.3784C145.505 74.3784 144.721 75.0052 144.408 75.1619C144.094 75.3186 144.251 74.3784 145.349 72.9681C146.446 71.5578 145.976 69.2074 145.976 69.2074C145.976 69.2074 144.721 65.1332 145.505 63.5663C146.289 61.9993 147.387 59.9622 146.446 59.3354C145.505 58.7087 144.251 54.0077 144.251 54.0077L140.801 41.7853L147.857 36.9277C147.857 36.9277 147.544 39.1215 148.641 39.5916C149.739 40.0617 150.523 40.3751 150.523 40.3751Z" fill="#575A89"/>
<path d="M141.742 41.6287H140.801C140.801 41.6287 139.233 44.2925 139.233 46.1729C139.233 48.0532 140.017 58.7087 140.017 58.7087L144.564 63.4096L145.662 59.8055L145.976 51.814L141.742 41.6287Z" fill="#575A89"/>
<path d="M144.251 58.2386C144.251 58.2386 139.076 56.8283 139.233 59.0221C139.39 61.2158 140.174 63.8797 142.683 64.5065C145.192 65.1333 145.976 61.6859 145.976 61.6859C145.976 61.6859 146.289 58.552 144.251 58.2386Z" fill="#575A89"/>
<path d="M163.695 65.4467C163.695 65.4467 163.381 72.6547 161.499 73.4382L166.047 74.5351C166.047 74.5351 168.242 67.0136 167.928 66.7002C167.615 66.3868 163.695 65.4467 163.695 65.4467Z" fill="#FFB9B9"/>
<path d="M136.799 50.7745L139.492 49.5989C139.542 49.5772 139.596 49.5655 139.65 49.5644C139.704 49.5634 139.758 49.5731 139.809 49.5929C139.86 49.6127 139.906 49.6423 139.945 49.6799C139.984 49.7176 140.015 49.7626 140.037 49.8123L143.031 56.6608C143.085 56.7835 143.087 56.9226 143.038 57.0473C142.989 57.172 142.893 57.2722 142.77 57.3258L140.245 58.4281C140.122 58.4817 139.983 58.4844 139.858 58.4355C139.734 58.3866 139.633 58.2902 139.58 58.1674L136.586 51.319C136.542 51.2185 136.54 51.1047 136.58 51.0026C136.62 50.9005 136.699 50.8184 136.799 50.7745Z" fill="#2F2E41"/>
<path opacity="0.1" d="M136.799 50.7745L139.492 49.5989C139.542 49.5772 139.596 49.5655 139.65 49.5644C139.704 49.5634 139.758 49.5731 139.809 49.5929C139.86 49.6127 139.906 49.6423 139.945 49.6799C139.984 49.7176 140.015 49.7626 140.037 49.8123L143.031 56.6608C143.085 56.7835 143.087 56.9226 143.038 57.0473C142.989 57.172 142.893 57.2722 142.77 57.3258L140.245 58.4281C140.122 58.4817 139.983 58.4844 139.858 58.4355C139.734 58.3866 139.633 58.2902 139.58 58.1674L136.586 51.319C136.542 51.2185 136.54 51.1047 136.58 51.0026C136.62 50.9005 136.699 50.8184 136.799 50.7745Z" fill="black"/>
<path d="M136.952 51.1241L139.3 50.0992C139.401 50.0553 139.514 50.0531 139.617 50.0931C139.719 50.1332 139.801 50.2121 139.845 50.3126L142.686 56.8115C142.739 56.9342 142.742 57.0733 142.693 57.198C142.644 57.3227 142.548 57.4229 142.425 57.4766L140.245 58.4282C140.122 58.4818 139.983 58.4844 139.858 58.4356C139.734 58.3867 139.633 58.2902 139.58 58.1675L136.739 51.6686C136.695 51.5681 136.693 51.4543 136.733 51.3522C136.773 51.2501 136.852 51.168 136.952 51.1241Z" fill="#2F2E41"/>
<path d="M139.111 53.8963C139.493 53.7299 139.665 53.282 139.496 52.8959C139.327 52.5098 138.881 52.3317 138.5 52.4981C138.119 52.6645 137.947 53.1124 138.115 53.4986C138.284 53.8847 138.73 54.0628 139.111 53.8963Z" fill="#F2F2F2"/>
<path opacity="0.1" d="M164.871 40.9236L165.89 39.4349C165.89 39.4349 169.653 45.2327 169.339 49.1502C169.026 53.0676 168.712 53.2243 168.712 53.8511C168.712 54.4779 167.928 54.4779 168.712 55.2614C169.496 56.0449 170.594 57.1417 169.967 57.7685C169.339 58.3953 168.869 58.3953 169.026 59.1788C169.126 59.748 169.179 60.3245 169.183 60.9025C169.183 60.9025 167.85 63.488 167.379 63.488C166.909 63.488 162.44 67.6404 162.44 67.1704C162.44 66.7003 162.911 63.4096 162.911 62.9395C162.911 62.4694 163.067 60.9025 163.381 60.4324C163.695 59.9623 163.695 60.119 163.381 59.6489C163.067 59.1788 163.067 59.6489 163.067 59.1788C163.067 58.7087 163.224 58.0819 162.754 57.9252C162.283 57.7685 161.813 57.9252 162.127 57.1417C162.44 56.3582 162.127 55.7315 161.97 55.7315C161.813 55.7315 161.029 55.5748 161.499 55.1047C161.97 54.6346 160.558 45.5461 160.558 45.5461C160.558 45.5461 160.794 43.274 164.871 40.9236Z" fill="black"/>
<path d="M164.008 37.5546L166.674 38.8081C166.674 38.8081 170.437 44.6059 170.123 48.5234C169.81 52.4408 169.496 52.5975 169.496 53.2243C169.496 53.8511 168.712 53.8511 169.496 54.6346C170.28 55.4181 171.378 56.5149 170.751 57.1417C170.123 57.7685 169.653 57.7685 169.81 58.552C169.91 59.1212 169.963 59.6978 169.967 60.2757C169.967 60.2757 168.555 67.7971 168.085 67.7971C167.615 67.7971 163.224 67.0137 163.224 66.5436C163.224 66.0735 163.695 62.7828 163.695 62.3127C163.695 61.8426 163.851 60.2757 164.165 59.8056C164.479 59.3355 164.479 59.4922 164.165 59.0221C163.851 58.552 163.851 59.0221 163.851 58.552C163.851 58.0819 164.008 57.4551 163.538 57.2984C163.067 57.1417 162.597 57.2984 162.911 56.5149C163.224 55.7314 162.911 55.1047 162.754 55.1047C162.597 55.1047 161.813 54.948 162.283 54.4779C162.754 54.0078 161.343 44.9193 161.343 44.9193C161.343 44.9193 159.931 39.905 164.008 37.5546Z" fill="#575A89"/>
<path d="M140.215 59.3577C140.069 59.3964 139.914 59.3836 139.776 59.3215C139.639 59.2594 139.526 59.1518 139.459 59.0168C138.738 57.5771 136.786 53.3542 138.606 53.2243C140.285 53.1044 141.781 56.3763 142.391 57.9216C142.43 58.0198 142.448 58.1251 142.443 58.2305C142.438 58.336 142.411 58.4392 142.363 58.5334C142.315 58.6276 142.248 58.7105 142.166 58.7769C142.084 58.8432 141.988 58.8914 141.886 58.9182L140.215 59.3577Z" fill="#FFB9B9"/>
<path d="M149.269 33.3237C152.473 33.3237 155.07 30.728 155.07 27.5259C155.07 24.3239 152.473 21.7281 149.269 21.7281C146.064 21.7281 143.467 24.3239 143.467 27.5259C143.467 30.728 146.064 33.3237 149.269 33.3237Z" fill="#FFB9B9"/>
<path d="M147.137 24.1869C146.413 24.4365 145.666 24.6128 144.906 24.713C144.335 24.8021 143.666 24.8478 143.265 24.4319C142.871 24.0238 142.934 23.343 143.203 22.8435C143.472 22.344 143.903 21.9524 144.226 21.4861C144.734 20.7527 145.034 19.7804 145.846 19.411C146.183 19.2822 146.54 19.2155 146.9 19.2142C149.009 19.0798 151.203 18.9588 153.155 19.765C153.889 20.0443 154.539 20.5064 155.043 21.1074C155.374 21.55 155.629 22.0441 155.798 22.5697C156.32 24.1165 156.436 25.7711 156.135 27.3755C155.834 28.9798 155.127 30.4803 154.08 31.7334C153.368 31.0927 153.678 29.6125 152.778 29.286C152.482 29.1789 152.148 29.2535 151.846 29.1687C150.895 28.9022 150.943 27.4338 150.151 26.8438C149.978 26.7508 149.825 26.6251 149.7 26.4736C149.631 26.3284 149.601 26.1674 149.613 26.0068C149.607 25.4567 149.866 24.0593 149.34 23.6822C148.806 23.2984 147.65 24.0015 147.137 24.1869Z" fill="#2F2E41"/>
<path d="M90.8925 10.722H138.72V35.8006H135.264V45.0688L125.99 35.8006H90.8925V10.722Z" fill="#FF7A73"/>
<path d="M114.806 28.6293L113.962 27.8685C110.965 25.1189 108.987 23.3342 108.987 21.1111C108.979 20.6882 109.057 20.268 109.215 19.8755C109.373 19.483 109.608 19.1262 109.907 18.8262C110.205 18.5261 110.561 18.289 110.952 18.1287C111.344 17.9685 111.764 17.8884 112.187 17.8933C112.687 17.8959 113.18 18.0072 113.632 18.2194C114.084 18.4316 114.485 18.7395 114.806 19.122C115.127 18.7395 115.528 18.4315 115.98 18.2194C116.432 18.0072 116.925 17.8959 117.425 17.8933C117.848 17.8884 118.268 17.9685 118.66 18.1287C119.052 18.289 119.407 18.5261 119.706 18.8262C120.004 19.1262 120.239 19.483 120.397 19.8755C120.555 20.268 120.633 20.6882 120.625 21.1111C120.625 23.3343 118.647 25.1189 115.65 27.8685L114.806 28.6293Z" fill="white"/>
<path d="M0 72.2412L46.0075 59.1832L52.8639 83.3077L49.5402 84.2511L52.0741 93.1667L40.6185 86.7833L6.85638 96.3657L0 72.2412Z" fill="#FF7A73"/>
<path d="M27.8995 82.9383L26.8797 82.4369C23.2452 80.6101 20.854 79.4335 20.2462 77.295C20.1235 76.8902 20.0832 76.4648 20.1279 76.0441C20.1725 75.6234 20.3012 75.216 20.5062 74.8459C20.7113 74.4758 20.9886 74.1506 21.3216 73.8894C21.6547 73.6283 22.0368 73.4367 22.4453 73.3257C22.9266 73.1919 23.4313 73.1644 23.9243 73.245C24.4173 73.3256 24.8868 73.5125 25.3003 73.7927C25.5046 73.3372 25.8058 72.9315 26.1828 72.604C26.5598 72.2764 27.0036 72.0348 27.4834 71.8958C27.8893 71.7756 28.3152 71.7379 28.7359 71.7851C29.1566 71.8323 29.5635 71.9633 29.9326 72.1705C30.3017 72.3776 30.6255 72.6567 30.8847 72.9911C31.144 73.3255 31.3335 73.7085 31.442 74.1174C32.0498 76.256 30.6345 78.5129 28.5034 81.9761L27.8995 82.9383Z" fill="white"/>
<path d="M52.8165 57.6286C52.8165 57.6286 51.2614 62.2908 52.1253 63.3268C52.9893 64.3628 46.9417 60.2187 46.9417 60.2187L50.2246 56.4199L52.8165 57.6286Z" fill="#A0616A"/>
<path d="M49.2701 57.621C53.5547 57.621 57.028 54.1501 57.028 49.8684C57.028 45.5867 53.5547 42.1157 49.2701 42.1157C44.9855 42.1157 41.5122 45.5867 41.5122 49.8684C41.5122 54.1501 44.9855 57.621 49.2701 57.621Z" fill="#2F2E41"/>
<path d="M79.426 110.121L75.452 113.229L73.2057 109.603L77.1797 106.84L79.426 110.121Z" fill="#A0616A"/>
<path d="M73.8104 133.518L74.8471 138.526L77.7846 142.497C77.7846 142.497 85.7329 144.914 80.3764 146.123C75.0199 147.332 73.8104 145.26 73.8104 145.26L70.0091 141.979V146.468H67.59L67.0716 140.08C67.0716 140.08 66.726 138.18 68.2812 136.108L68.6267 133L73.8104 133.518Z" fill="#2F2E41"/>
<path d="M53.7668 71.5288L55.1492 79.4717C55.1492 79.4717 69.8362 77.9177 70.873 80.8531C71.9097 83.7885 72.2553 84.6519 72.2553 84.6519L69.3179 85.6879L67.9356 83.0978C67.5145 82.9488 67.0675 82.8873 66.6218 82.917C66.1762 82.9467 65.7412 83.067 65.3437 83.2705C63.9614 83.9612 51.8662 85.6879 51.0022 83.4432C50.1383 81.1984 47.7192 72.9102 47.7192 72.9102L51.3478 69.9747L53.7668 71.5288Z" fill="#A0616A"/>
<path opacity="0.1" d="M53.7668 71.5288L55.1492 79.4717C55.1492 79.4717 69.8362 77.9177 70.873 80.8531C71.9097 83.7885 72.2553 84.6519 72.2553 84.6519L69.3179 85.6879L67.9356 83.0978C67.5145 82.9488 67.0675 82.8873 66.6218 82.917C66.1762 82.9467 65.7412 83.067 65.3437 83.2705C63.9614 83.9612 51.8662 85.6879 51.0022 83.4432C50.1383 81.1984 47.7192 72.9102 47.7192 72.9102L51.3478 69.9747L53.7668 71.5288Z" fill="black"/>
<path d="M61.8879 94.4941L63.0975 98.6383L66.2077 114.524C66.2077 114.524 66.5533 126.266 67.0716 127.647C67.59 129.029 67.59 129.201 67.0716 129.719C66.5533 130.237 65.5165 131.964 67.0716 133C68.6267 134.036 74.156 135.245 74.3288 134.036C74.5016 132.827 74.5016 130.928 74.3288 130.065C74.156 129.201 74.8471 115.733 74.8471 115.733L72.7737 95.1848L65.6893 91.9041L61.8879 94.4941Z" fill="#2F2E41"/>
<path opacity="0.1" d="M61.8879 94.4941L63.0975 98.6383L66.2077 114.524C66.2077 114.524 66.5533 126.266 67.0716 127.647C67.59 129.029 67.59 129.201 67.0716 129.719C66.5533 130.237 65.5165 131.964 67.0716 133C68.6267 134.036 74.156 135.245 74.3288 134.036C74.5016 132.827 74.5016 130.928 74.3288 130.065C74.156 129.201 74.8471 115.733 74.8471 115.733L72.7737 95.1848L65.6893 91.9041L61.8879 94.4941Z" fill="black"/>
<path d="M69.3179 78.2629L73.1192 85.5152C73.1192 85.5152 94.8907 95.1848 92.99 99.1563C91.0893 103.128 80.5492 110.553 80.5492 110.553C80.5492 110.553 80.0308 113.488 78.4757 112.625C76.9206 111.761 73.1192 107.272 73.4648 106.754C73.8104 106.236 75.0199 105.027 75.5383 105.2C76.0567 105.372 82.1043 100.71 82.1043 100.71L71.7369 98.1202C71.7369 98.1202 59.2961 97.7749 58.6049 91.904C57.9138 86.0332 58.6049 84.9972 58.6049 84.9972L57.741 83.0978L64.8254 78.781L69.3179 78.2629Z" fill="#2F2E41"/>
<path d="M74.6744 106.927L71.0458 110.207C71.0458 110.207 67.9356 108.826 66.0349 109.344C64.1342 109.862 60.8512 110.207 60.8512 110.207L61.3696 113.143L65.7781 112.33L62.2335 117.287C62.2335 117.287 62.2335 125.057 64.4798 125.057C66.726 125.057 66.0349 120.395 66.0349 120.395L72.9465 115.042C72.9465 115.042 76.4022 113.661 76.7478 113.661C77.0934 113.661 74.6744 106.927 74.6744 106.927Z" fill="#2F2E41"/>
<path d="M52.1253 59.01C55.3699 59.01 58.0002 56.3815 58.0002 53.1392C58.0002 49.8968 55.3699 47.2683 52.1253 47.2683C48.8808 47.2683 46.2505 49.8968 46.2505 53.1392C46.2505 56.3815 48.8808 59.01 52.1253 59.01Z" fill="#A0616A"/>
<path d="M46.3369 57.7151C46.3369 57.7151 49.1015 57.0244 49.9655 57.7151C50.8294 58.4057 51.0022 59.9598 52.2117 60.1325C53.4213 60.3051 54.458 60.3051 54.6308 60.4778C54.8036 60.6505 58.7777 65.4853 58.7777 65.4853C58.7777 65.4853 61.1968 66.8667 61.7152 68.7661C62.2335 70.6655 67.4172 77.0543 68.1084 77.745C68.7995 78.4357 63.6158 81.8891 61.8879 83.0979C60.16 84.3066 55.1492 84.8246 53.594 82.0618C52.0389 79.2991 43.5723 61.3412 46.3369 57.7151Z" fill="#575A89"/>
<path d="M52.9029 68.9387L54.2852 76.8816C54.2852 76.8816 68.9723 75.3276 70.009 78.263C71.0458 81.1984 71.3913 82.0618 71.3913 82.0618L68.4539 83.0978L67.0716 80.5077C66.6506 80.3587 66.2035 80.2972 65.7579 80.3269C65.3122 80.3566 64.8773 80.4769 64.4798 80.6804C63.0975 81.3711 51.0022 83.0978 50.1383 80.8531C49.2743 78.6083 46.8553 70.3201 46.8553 70.3201L50.4838 67.3846L52.9029 68.9387Z" fill="#A0616A"/>
<path d="M49.6009 58.4415C49.6009 58.4415 53.7668 67.212 53.4213 69.6294C53.0757 72.0468 51.8662 70.3201 51.8662 70.3201C51.8662 70.3201 50.3111 67.9026 49.6199 69.284C48.9287 70.6654 48.0648 72.5648 47.3736 72.3921C46.6825 72.2194 42.8811 59.4417 44.9546 58.233C47.0281 57.0243 49.6009 58.4415 49.6009 58.4415Z" fill="#575A89"/>
<path d="M40.8657 47.4134C45.1503 47.4134 48.6236 43.9424 48.6236 39.6607C48.6236 35.3791 45.1503 31.9081 40.8657 31.9081C36.5811 31.9081 33.1078 35.3791 33.1078 39.6607C33.1078 43.9424 36.5811 47.4134 40.8657 47.4134Z" fill="#2F2E41"/>
<path d="M34.1741 46.0804C35.1782 46.8057 36.3415 47.28 37.5667 47.4639C38.7919 47.6477 40.0434 47.5357 41.2163 47.1371C42.3893 46.7385 43.4497 46.0651 44.3088 45.173C45.1679 44.2809 45.8008 43.1962 46.1544 42.0096C46.0206 43.073 45.6676 44.0971 45.1177 45.0173C44.5679 45.9374 43.8331 46.7337 42.9598 47.3558C42.0864 47.9778 41.0935 48.4122 40.0437 48.6314C38.994 48.8507 37.9101 48.85 36.8605 48.6295C35.811 48.4091 34.8186 47.9735 33.946 47.3504C33.0734 46.7273 32.3396 45.9302 31.7908 45.0094C31.2421 44.0885 30.8903 43.064 30.7578 42.0005C30.6252 40.937 30.7148 39.8575 31.0208 38.8303C30.847 40.2104 31.048 41.6117 31.6029 42.8873C32.1577 44.163 33.0458 45.2659 34.1741 46.0804Z" fill="#2F2E41"/>
<path d="M47.2014 56.8458C50.3434 56.8458 52.8905 54.3004 52.8905 51.1605C52.8905 48.0206 50.3434 45.4752 47.2014 45.4752C44.0593 45.4752 41.5122 48.0206 41.5122 51.1605C41.5122 54.3004 44.0593 56.8458 47.2014 56.8458Z" fill="#2F2E41"/>
<path d="M51.9854 52.9695C54.7704 52.9695 57.028 51.2051 57.028 49.0286C57.028 46.8521 54.7704 45.0876 51.9854 45.0876C49.2004 45.0876 46.9427 46.8521 46.9427 49.0286C46.9427 51.2051 49.2004 52.9695 51.9854 52.9695Z" fill="#2F2E41"/>
<path d="M52.2117 55.7293C52.832 55.7293 53.3349 54.8402 53.3349 53.7435C53.3349 52.6469 52.832 51.7578 52.2117 51.7578C51.5914 51.7578 51.0886 52.6469 51.0886 53.7435C51.0886 54.8402 51.5914 55.7293 52.2117 55.7293Z" fill="#A0616A"/>
<path d="M67.6288 83.0223C67.6288 83.0223 70.6876 81.2686 71.2555 81.7083C71.8233 82.1481 72.0756 83.5242 72.0756 83.5242L68.5403 84.9108L67.5036 83.0114L67.6288 83.0223Z" fill="#2F2E41"/>
<path d="M53.0522 142.868V121.771" stroke="#3F3D56" stroke-width="2" stroke-miterlimit="10"/>
<path d="M53.0522 124.754C54.7011 124.754 56.0378 123.418 56.0378 121.77C56.0378 120.123 54.7011 118.787 53.0522 118.787C51.4034 118.787 50.0667 120.123 50.0667 121.77C50.0667 123.418 51.4034 124.754 53.0522 124.754Z" fill="#3F3D56"/>
<path d="M53.0522 134.773C53.0522 134.773 52.6257 125.606 43.8824 126.672L53.0522 134.773Z" fill="#3F3D56"/>
<path d="M143.978 127.239V106.142" stroke="#3F3D56" stroke-width="2" stroke-miterlimit="10"/>
<path d="M143.978 109.125C145.627 109.125 146.964 107.79 146.964 106.142C146.964 104.494 145.627 103.158 143.978 103.158C142.33 103.158 140.993 104.494 140.993 106.142C140.993 107.79 142.33 109.125 143.978 109.125Z" fill="#3F3D56"/>
<path d="M143.978 119.145C143.978 119.145 143.552 109.978 134.809 111.043L143.978 119.145Z" fill="#3F3D56"/>
<path d="M180.845 127.722V85.5266" stroke="#3F3D56" stroke-width="2" stroke-miterlimit="10"/>
<path d="M180.845 88.5102C182.494 88.5102 183.83 87.1744 183.83 85.5267C183.83 83.879 182.494 82.5432 180.845 82.5432C179.196 82.5432 177.859 83.879 177.859 85.5267C177.859 87.1744 179.196 88.5102 180.845 88.5102Z" fill="#3F3D56"/>
<path d="M180.845 97.6771C180.845 97.6771 181.271 88.5102 190.014 89.5757L180.845 97.6771Z" fill="#3F3D56"/>
<path d="M180.845 126.902C180.845 126.902 178.925 110.034 190.014 109.182" stroke="#3F3D56" stroke-width="2" stroke-miterlimit="10"/>
<path d="M190.014 112.165C191.663 112.165 193 110.829 193 109.181C193 107.534 191.663 106.198 190.014 106.198C188.366 106.198 187.029 107.534 187.029 109.181C187.029 110.829 188.366 112.165 190.014 112.165Z" fill="#3F3D56"/>
</g>
<defs>
<clipPath id="clip0_36_1019">
<rect width="193" height="148" fill="white"/>
</clipPath>
</defs>
</svg>
