<?xml version="1.0" encoding="utf-8"?>
<!-- Generator: Adobe Illustrator 23.1.0, SVG Export Plug-In . SVG Version: 6.00 Build 0)  -->
<svg version="1.1" id="Слой_1" xmlns="http://www.w3.org/2000/svg" xmlns:xlink="http://www.w3.org/1999/xlink" x="0px" y="0px"
	 viewBox="0 0 464 424" style="enable-background:new 0 0 464 424;" xml:space="preserve">
<style type="text/css">
	.st0{fill:#2F5596;}
	.st1{fill:#F83438;}
</style>
<g id="XMLID_1_">
	<g>
		<path class="st0" d="M299.8,339.7c-1.6,1.8-2.4,3.4-1.6,3.4l-0.5,2.5c-0.3,0-4.5,3.4-9.2,7.8c-1.7,1.6-3.4,3-5,4.3l-1.4-1.6
			l5.2-4.6l-4.1-0.6l0.3-2.4c0.6,0.1,1,0.1,1.6,0.1c3.3,0,4.2-0.7,7.1-5.5c5.5-9,7.1-16.7,4.1-19.7c-1.8-1.8-6.8-2.1-10.7-1
			l-0.3-1.2c5.5-2.3,9.8-2.3,14-0.1C305.1,324.1,305.2,333.2,299.8,339.7z"/>
		<path class="st0" d="M112.7,331.6c-2.7,2.8-3.8,6.5-3.3,10.9c0.5,2.8,0.3,5.1-0.2,5.1c-6.4,0-6.4-7.7,0-15.8
			c0.2-0.3,0.5-0.6,0.7-0.9L112.7,331.6z"/>
		<path class="st1" d="M222.9,180.4c0.6,2,0.9,3.2,1.2,3.4l-0.1,0.1c0,0-11.6,17.1-16.2,25.7l-1.2-3.8L204,198
			c-7.2-21.8-9-46.9-4.4-63.7c6.1-22.5,22.9-39.5,44.1-44.6c3-0.8,6.1-1.5,6.9-1.7h0.1c1.2-0.3,10.4-2.8,24.3-0.9
			c0.2,0.6,3.5,2,7.4,3.2c16.5,4.6,34.4,17.3,44.1,31.4c4.3,6.1,12,22.5,12,25.2c0,1.9-0.2,2,9.1-2.5c13.7-6.4,25.2-8.8,39.9-8.2
			c40.4,1.9,71.5,31.1,71.5,67.3c0,43.7-45.3,79.9-123.8,99.4c-21.1,5.3-45.9,9.8-55.1,10.1l-7.2,0.2l-10.6-13.5
			c-12.2-15.4-31.7-44.5-38.2-56.5c-2.5-4.5-4.6-8.2-5-8.2l15.6-21.3l0.1-0.1c0,5,22.9,42.1,39.6,64.4c8.7,11.5,9.2,12,12.6,11.5
			c18.5-3.3,44.4-9,55.8-12.3c51.2-15,82.3-36.3,91.2-62.6c11.7-34.2-30.5-66.3-69.5-52.8c-10,3.5-18.6,9.3-32,22.1l-11.7,11
			l-0.9-14.5c-1.6-27.4-6.1-39.6-19.4-53c-5.4-5.5-10.1-9.1-15.3-11.5c-4.2-2-8-3.6-8.6-3.6c-15.2-3.9-26.5-0.9-26.5-0.9
			c-1.4-0.1-3.8,0.9-8.6,3.2c-16.8,8.4-24.7,26.8-21.7,51.1C221.1,171.3,222.2,177.9,222.9,180.4z"/>
		<path class="st0" d="M224.3,183.8c0.3,0.3,0.8-0.1,1.6-1.1c3.2-4.4,14.1-26.6,17.9-36.6c4.3-10.8,8.4-26.7,8.4-31.9
			c0-1.8-0.2-2.7-1.4-2.8c0,0,11.3-3,26.5,0.9c-0.6,0-2.1,5.5-3.5,12.2c-1.4,6.8-3.9,17-5.9,22.9c-4.3,12.8-18.9,43.2-26.9,55.6
			c-3.2,5-5.7,9.8-5.7,10.7l-0.1,0.1L224.3,184L224.3,183.8z"/>
		<path class="st0" d="M261.3,367.1c6.4-0.3,12.2-3.3,20.5-10.6l0.5-0.3l1.4,1.6c-11.1,9.3-19.1,13.6-25.8,13.6
			c-4.8,0-10.2-5-10.2-9.3c0-3.4,2.7-7.5,5-7.5c0.7,0,0.6,0.6-0.2,1.4c-2.1,2.1-1.6,7.1,1,9.5C255.1,366.7,257.1,367.2,261.3,367.1z
			"/>
		<path class="st0" d="M172.5,360.8c0.1,0.1,0.3,0.2,0.6,0.2l1.5,1.4c-3.2,2.4-6.3,2.8-7.4,0.9c-0.5-0.7,0.6-3.7,2.1-6.9
			c3.5-6.8,3.5-7,0.7-6.2c-3.7,1-2.5-1,1.5-2.4c7.5-2.4,7.9-1.7,3.4,6.4C172.9,357.3,172,360.2,172.5,360.8z"/>
		<path class="st0" d="M175.5,313.6c0,1.2-5.6,6.4-8.8,8c-1.5,0.8-7,1.7-12.4,2l-9.8,0.7l-4.8,9.9c-4.8,10-12.2,21.7-17.7,28.6
			l-2.7-0.7c3.7-4.3,8.2-12,15.5-25.7l6.9-12.8l-8.4,0.8c-10,0.9-16.9,3.4-20.6,7.2l-2.7-0.7c7.2-8.8,12.9-10.5,35.7-11.4
			c14.9-0.6,20-1.2,22.9-2.7c1.9-1,3.9-2.4,4.3-3C173.5,312.5,175.5,312.3,175.5,313.6z"/>
		<path class="st0" d="M163.5,326.5c1.2-1.5,2.5-2.4,2.7-2.1c0.3,0.2-3.4,7.9-8,16.9c-6.5,12.5-8.6,17.5-8.6,20.9
			c0,4.2,1.8,6.1,3.9,5.6l0.3,2c-2.1,0.5-3.7-0.2-5.5-2.1c-4.1-4.1-2.6-11.1,5.7-26C157.9,334.8,162.2,327.9,163.5,326.5z"/>
		<path class="st0" d="M153.6,367.9c1.6-0.3,3.5-2.1,5-5.2c1.8-3.8,3.6-5.3,5-3.9c1.6,1.6-1.4,6.9-5.1,9.1c-1.8,1-3.3,1.7-4.5,2
			L153.6,367.9z"/>
		<path class="st0" d="M274.9,86.2c0.1,0.6,0.2,0.9,0.2,0.9c-14-2-23.1,0.6-24.3,0.9c1.6-0.7,1-3.2-3.3-12.4
			c-1.7-3.8-5-8.9-7.2-11.4c-4.8-5.4-14.9-10.9-23-12.6c-28.8-6.1-57.9,14.4-66.1,46.6c-0.9,3.6-2.3,13.7-2.9,22.5
			c-0.8,8.7-1.5,15.9-1.5,16c-0.2,0-7.1-6.6-15.3-14.7c-13.2-12.9-16.4-15.5-24.8-19.6c-17.2-8.6-34.6-9-51-1.6
			c-9.2,4.3-18.6,12.9-23.4,21.8c-3.7,6.8-3.8,7.5-3.8,18.9c0,10.9,0.2,12.4,3.6,19.5c15.6,33,63,60.3,134,77.5
			c7.5,1.8,14.7,3.3,15.9,3.3c2.1,0,12.9-13.2,22.4-27.1l3.5-5.1c4.6-8.4,16.2-25.7,16.2-25.7l10.9,29.8L219.4,235
			c-0.3,0-1.6,1.6-2.7,3.4c-1,1.9-3.2,4.6-4.5,6c-1.9,1.8-16.2,18.9-19.5,23.2c-0.6,0.8-37.9-7.9-55.5-12.9
			C86.3,240,45.7,217.4,24.6,192c-7.4-9-15.9-25-18.1-34.6c-2.1-8.8-1.8-25,0.6-33.2c6.4-21.7,24.2-39.5,47.4-47.4
			c12-4.1,30.1-5,43-2.1c9.1,2,22.5,7.5,28.6,11.8c1.8,1.4,3.5,2.4,3.7,2.1c0.1-0.2,1.7-4.2,3.4-8.8c9.6-24.8,31.2-44,56.6-50.1
			c8-1.9,25.1-2.3,33.2-0.6c3.3,0.7,10.1,3.2,15.1,5.5c17,7.9,30.2,24.3,34.9,43.3C273.6,80.5,274.6,84.5,274.9,86.2z"/>
		<path class="st0" d="M108,367.3c4.6,0,7.7-0.9,11.4-5.2l2.7,0.7c-0.6,0.7-1.1,1.4-1.6,1.9c-4.4,5.1-12,8.2-17.2,7.2
			c-5.9-1.1-9.9-5.9-9.9-11.4c0-4.2,1.5-7.3,3.5-7.3c0.3,0,0.5,2.3,0.2,5c-0.6,4.5-0.3,5.2,2.6,7C101.5,366.5,104.8,367.3,108,367.3
			z"/>
		<path class="st0" d="M308.2,362.1c2.8-5,3-10.8,0.5-13.6c-1.7-1.8-1.7-2,0-2c4.4,0,5.6,10.5,1.9,16.5c-1.1,2-3.5,4.5-5.1,5.5
			c-3.6,2.4-9.3,2.6-10.8,0.3c-1.6-2.6-1.1-10.1,1.2-16.8c1.1-3.4,1.9-6.3,1.8-6.5l0,0l0.5-2.5c0.7,0,2.1-1.6,3.2-3.5
			c3.2-5.7,4.3-7,5.5-6.3c0.8,0.5-0.5,4.1-3.3,9.6c-3.2,6.2-4.6,10.6-5.1,15.4C297.5,370.1,302.6,372.1,308.2,362.1z"/>
		<path class="st0" d="M234.7,355.8c1.1,1.1-6.4,7.4-10,8.2c-2.3,0.5-3.8,0.1-5.1-1c-1.5-1.6-1.9-1.6-4.4,0c-2,1.4-3,1.5-3.9,0.6
			c-1.7-1.7,2.7-11.4,6.9-15.6c3.9-3.8,4.2-1.7,0.7,5.3c-3.7,7.3-2.9,8.7,1.1,1.9c3.5-6.2,5.9-8.3,7.3-6.9c0.7,0.7,0,2.6-1.7,5.2
			c-5.6,8.2-2.3,11.9,4.7,5.2C232.4,356.7,234.4,355.4,234.7,355.8z"/>
		<path class="st0" d="M283.5,323.4c-10.2,5.5-9.6,23.4,0.2,25.2l-0.3,2.4l-1.6-0.2c-7.4-1-10.6-4.6-10.6-12
			c0-7.3,3.4-12.2,11.3-16.1c1-0.5,2-0.9,2.9-1.4l0.3,1.2C284.9,322.7,284.1,323,283.5,323.4z"/>
		<path class="st0" d="M151.8,327.8c1.5,1-0.7,7.1-8.6,23.8c-7.4,15.6-7.4,15.8-9,13.8c-0.9-1.1,1.1-6.3,7.7-19.8
			C146.7,335.4,151.2,327.4,151.8,327.8z"/>
		<path class="st0" d="M180.3,358.8c-1,0-3.2,1.2-5.1,2.8c-0.2,0.2-0.6,0.5-0.8,0.7l-1.5-1.4c1.5,0,3.6-3.5,3.6-6.3
			c0-1.6,0.7-2.6,1.7-2.6c0.9,0,1.7,1,1.7,2.3c0,3.4,3.3,2.7,5.4-1.2c3.3-5.9,4.1-6.6,5.6-5.6c1.2,0.7,0.8,2.1-1.9,6.3
			c-5.6,8.8-4.1,10,3.7,2.8c6.4-5.9,8-5.9,2.4,0.1c-7.5,7.8-14.9,10.4-13.8,5C181.8,359.7,181.5,358.8,180.3,358.8z"/>
	</g>
</g>
</svg>
